<?xml version="1.0" standalone="no"?>
<!DOCTYPE svg PUBLIC "-//W3C//DTD SVG 20010904//EN"
 "http://www.w3.org/TR/2001/REC-SVG-20010904/DTD/svg10.dtd">
<svg version="1.0" xmlns="http://www.w3.org/2000/svg"
 width="700.000000pt" height="700.000000pt" viewBox="0 0 700.000000 700.000000"
 preserveAspectRatio="xMidYMid meet">
<metadata>
Created by potrace 1.11, written by Peter Selinger 2001-2013
</metadata>
<g transform="translate(0.000000,700.000000) scale(0.100000,-0.100000)"
fill="#000000" stroke="none">
<path d="M3900 6990 c0 -6 -152 -11 -421 -12 l-422 -3 -1424 -3125 c-993
-2181 -1430 -3131 -1448 -3145 l-24 -20 222 -343 222 -344 440 6 c242 3 441 5
443 5 2 1 2 10 0 21 -2 10 150 346 337 745 l340 725 1365 0 1366 0 343 -745
344 -744 416 -3 c229 -2 421 -2 428 0 6 2 13 11 16 21 2 10 93 162 201 338
108 176 196 325 196 331 0 6 -649 1407 -1441 3114 -793 1707 -1444 3116 -1447
3133 -6 37 -52 76 -52 45z m-648 -107 c-10 -21 -655 -1414 -1433 -3095 l-1414
-3058 -64 0 c-56 0 -62 2 -57 18 4 9 638 1402 1409 3095 l1401 3077 88 0 88 0
-18 -37z m268 35 c0 -2 -629 -1393 -1398 -3093 l-1398 -3090 -128 -3 c-101 -2
-127 0 -123 10 3 7 641 1386 1417 3063 777 1678 1419 3065 1426 3083 l14 32
95 0 c52 0 95 -1 95 -2z m341 -16 c-19 -36 -1843 -3988 -1848 -4003 -4 -16 79
-17 1122 -15 l1126 1 135 -324 c74 -178 133 -325 132 -327 -2 -1 -646 -7
-1432 -11 l-1428 -8 -337 -742 -336 -743 -104 0 c-94 0 -103 2 -97 18 4 9 633
1402 1398 3095 l1392 3077 143 0 c135 0 143 -1 134 -18z m1508 -3160 l1413
-3043 -184 -298 c-166 -272 -184 -297 -195 -277 -10 20 -1403 2999 -2114 4524
-172 369 -316 672 -319 672 -3 0 -111 -230 -240 -512 -129 -281 -375 -816
-545 -1187 l-311 -676 -388 -3 c-367 -2 -388 -1 -381 15 3 10 412 896 907
1970 l901 1952 22 -47 c12 -26 658 -1416 1434 -3090z m-1287 1211 c268 -577
2251 -4830 2264 -4855 l15 -28 -372 2 -372 3 -342 740 -341 740 -1403 0 -1404
0 -341 -726 -341 -727 -198 297 c-127 190 -196 302 -193 314 2 10 150 339 328
731 l323 713 989 6 c544 4 1201 7 1459 7 371 0 468 3 464 13 -2 6 -73 176
-157 377 -117 282 -233 531 -507 1092 l-356 727 184 401 c101 220 187 400 190
400 3 0 53 -102 111 -227z m-182 -1324 l329 -674 -642 -5 c-353 -3 -643 -4
-645 -4 -2 1 137 308 309 683 172 374 314 679 316 677 2 -2 152 -306 333 -677z
m-2706 -3255 c109 -163 195 -298 193 -301 -5 -5 -738 -36 -741 -31 -14 20
-393 605 -399 615 -7 11 56 13 371 13 l379 0 197 -296z"/>
</g>
</svg>
