<svg xmlns="http://www.w3.org/2000/svg" viewBox="0 0 625 864.01"><defs><style>.cls-1{font-size:145.07px;}.cls-1,.cls-16,.cls-17,.cls-19{fill:#fff;}.cls-1,.cls-16{font-family:Montserrat-Black, Montserrat;}.cls-17,.cls-2,.cls-3,.cls-4{font-family:Montserrat-Medium, Montserrat;}.cls-2{letter-spacing:-0.02em;}.cls-3{letter-spacing:-0.01em;}.cls-5{fill:gray;}.cls-10,.cls-11,.cls-12,.cls-13,.cls-14,.cls-15,.cls-6,.cls-7,.cls-8,.cls-9{fill:none;stroke:#fff;stroke-miterlimit:10;}.cls-10,.cls-11,.cls-12,.cls-13,.cls-14,.cls-6,.cls-7,.cls-8,.cls-9{stroke-width:6px;}.cls-6{opacity:0.1;}.cls-7{opacity:0.2;}.cls-8{opacity:0.3;}.cls-9{opacity:0.4;}.cls-10{opacity:0.5;}.cls-11{opacity:0.6;}.cls-12{opacity:0.7;}.cls-13{opacity:0.8;}.cls-14{opacity:0.9;}.cls-15{stroke-width:5px;}.cls-16{font-size:72px;}.cls-17{font-size:60px;}.cls-18{letter-spacing:0.01em;}</style></defs><title>Asset 1</title><g id="Layer_2" data-name="Layer 2"><g id="Layer_1-2" data-name="Layer 1"><rect x="0.02" width="624.97" height="864.01" transform="translate(625.01 864.01) rotate(180)"/><text class="cls-1" transform="translate(6.82 293.83)">H<tspan class="cls-2" x="116.64" y="0">S</tspan><tspan class="cls-3" x="204.55" y="0">Y</tspan><tspan class="cls-4" x="296.67" y="0">NTH</tspan></text><rect class="cls-5" y="698" width="625" height="166"/><line class="cls-6" x1="625" y1="471" y2="471"/><line class="cls-7" x1="625" y1="451" y2="451"/><line class="cls-8" x1="625" y1="431" y2="431"/><line class="cls-9" x1="625" y1="411" y2="411"/><line class="cls-10" x1="625" y1="391" y2="391"/><line class="cls-11" x1="625" y1="371" y2="371"/><line class="cls-12" x1="625" y1="351" y2="351"/><line class="cls-13" x1="625" y1="331" y2="331"/><line class="cls-14" x1="625" y1="311" y2="311"/><line class="cls-6" y1="14" x2="625" y2="14"/><line class="cls-7" y1="34" x2="625" y2="34"/><line class="cls-8" y1="54" x2="625" y2="54"/><line class="cls-9" y1="74" x2="625" y2="74"/><line class="cls-10" y1="94" x2="625" y2="94"/><line class="cls-11" y1="114" x2="625" y2="114"/><line class="cls-12" y1="134" x2="625" y2="134"/><line class="cls-13" y1="154" x2="625" y2="154"/><line class="cls-14" y1="174" x2="625" y2="174"/><rect class="cls-15" x="169.16" y="524.83" width="112" height="112" rx="28" ry="28"/><text class="cls-16" transform="translate(202.51 596.71)">S</text><text class="cls-17" transform="translate(295.82 598.72)">sta<tspan class="cls-18" x="90.78" y="0">r</tspan><tspan x="116.28" y="0">t</tspan></text><circle class="cls-19" cx="209.88" cy="611.72" r="6.26"/><circle class="cls-19" cx="239.74" cy="611.72" r="6.26"/><circle class="cls-19" cx="224.81" cy="611.72" r="6.26"/></g></g></svg>