<svg xmlns="http://www.w3.org/2000/svg" viewBox="0 0 634 865.01"><defs><style>.cls-1,.cls-14,.cls-3,.cls-4,.cls-7{fill:#fff;}.cls-2{fill:gray;}.cls-13,.cls-3,.cls-8{stroke:#fff;}.cls-13,.cls-14,.cls-3,.cls-8{stroke-miterlimit:10;}.cls-3{stroke-width:4px;}.cls-4{font-size:36px;font-family:Montserrat-Medium, Montserrat;}.cls-5{letter-spacing:-0.01em;}.cls-6{letter-spacing:0em;}.cls-10,.cls-11,.cls-12,.cls-7{font-size:48px;font-family:Montserrat-Black, Montserrat;}.cls-13,.cls-8{fill:none;}.cls-14,.cls-8{stroke-width:5px;}.cls-9{letter-spacing:-0.02em;}.cls-11{letter-spacing:0.04em;}.cls-12{letter-spacing:0.04em;}.cls-13{stroke-width:6px;}.cls-14{stroke:#000;}</style></defs><title>Asset 2</title><g id="Layer_2" data-name="Layer 2"><g id="Layer_1-2" data-name="Layer 1"><rect x="5.02" y="1" width="624.97" height="864.01" transform="translate(635.01 866.01) rotate(180)"/><rect class="cls-1" x="5" width="626" height="81"/><rect class="cls-2" x="5" y="699" width="625" height="166"/><rect class="cls-3" x="16.32" y="623.41" width="62.59" height="62.59"/><rect class="cls-3" x="93.24" y="623.41" width="62.59" height="62.59"/><rect class="cls-3" x="247.07" y="623.41" width="62.59" height="62.59"/><rect class="cls-3" x="323.99" y="623.41" width="62.59" height="62.59"/><rect class="cls-3" x="554.91" y="623.41" width="62.59" height="62.59"/><rect class="cls-3" x="477.91" y="623.41" width="62.59" height="62.59"/><rect class="cls-3" x="400.91" y="623.41" width="62.59" height="62.59"/><text class="cls-4" transform="translate(454.82 132.72)">pl<tspan class="cls-5" x="34.6" y="0">a</tspan><tspan class="cls-6" x="55.76" y="0">y</tspan></text><text class="cls-7" transform="translate(570.82 132.72)">P</text><path class="cls-8" d="M541.5,79.5h90a0,0,0,0,1,0,0v75.6a14.4,14.4,0,0,1-14.4,14.4H541.5a0,0,0,0,1,0,0v-90A0,0,0,0,1,541.5,79.5Z" transform="translate(711 -462) rotate(90)"/><path class="cls-8" d="M2.5,79.5h90a0,0,0,0,1,0,0v75.6a14.4,14.4,0,0,1-14.4,14.4H2.5a0,0,0,0,1,0,0v-90A0,0,0,0,1,2.5,79.5Z"/><text class="cls-4" transform="translate(101.82 132.72)">dele<tspan class="cls-9" x="78.66" y="0">t</tspan><tspan x="92.92" y="0">e</tspan></text><text class="cls-7" transform="translate(28.82 132.72)">X</text><text class="cls-10" transform="translate(28.03 671.84)">C</text><text class="cls-10" transform="translate(105.95 671.84)">D</text><rect class="cls-3" x="170.15" y="623.41" width="62.59" height="62.59"/><text class="cls-10" transform="translate(262.78 671.84)">F</text><text class="cls-10" transform="translate(336.78 671.84)">G</text><text class="cls-11" transform="translate(491.7 671.84)">B</text><text class="cls-12" transform="translate(413.7 671.84)">A</text><text class="cls-10" transform="translate(185.13 671.84)">E</text><line class="cls-13" x1="5" y1="481" x2="630" y2="481"/><line class="cls-13" x1="5" y1="431" x2="630" y2="431"/><line class="cls-13" x1="5" y1="381" x2="630" y2="381"/><line class="cls-13" x1="5" y1="331" x2="630" y2="331"/><line class="cls-13" x1="11" y1="531" x2="84" y2="531"/><line class="cls-13" x1="5" y1="281" x2="630" y2="281"/><ellipse class="cls-14" cx="586" cy="355.76" rx="23.5" ry="19.26"/><ellipse class="cls-14" cx="509" cy="380.76" rx="23.5" ry="19.26"/><ellipse class="cls-14" cx="432" cy="406.76" rx="23.5" ry="19.26"/><ellipse class="cls-14" cx="355" cy="430.76" rx="23.5" ry="19.26"/><ellipse class="cls-14" cx="278" cy="455.76" rx="23.5" ry="19.26"/><ellipse class="cls-14" cx="201" cy="480.76" rx="23.5" ry="19.26"/><ellipse class="cls-14" cx="125" cy="506.76" rx="23.5" ry="19.26"/><ellipse class="cls-14" cx="48" cy="530.76" rx="23.5" ry="19.26"/><circle class="cls-1" cx="615.81" cy="147.19" r="4.19"/><circle class="cls-1" cx="557.81" cy="147.19" r="4.19"/><rect class="cls-1" x="564" y="143.14" width="21.52" height="8.1"/><rect class="cls-1" x="588" y="143.14" width="21.52" height="8.1"/><circle class="cls-1" cx="42.81" cy="147.19" r="4.19"/><circle class="cls-1" cx="52.81" cy="147.19" r="4.19"/><rect class="cls-1" x="59" y="143.14" width="21.52" height="8.1"/><rect class="cls-1" x="15" y="143.14" width="21.52" height="8.1"/><text class="cls-12" transform="translate(412.75 50.56)">A</text><circle cx="420.79" cy="60.91" r="4.19"/><rect x="427.08" y="56.85" width="21.52" height="8.1" transform="translate(875.68 121.81) rotate(-180)"/><text class="cls-10" transform="translate(336.55 50.56)">G</text><rect x="327.25" y="56.85" width="21.52" height="8.1" transform="translate(676.02 121.81) rotate(-180)"/><rect x="351.25" y="56.85" width="21.52" height="8.1" transform="translate(724.02 121.81) rotate(-180)"/><circle cx="378.58" cy="60.91" r="4.19"/><text class="cls-10" transform="translate(262.43 50.56)">F</text><circle cx="266.08" cy="60.91" r="4.19"/><circle cx="256.08" cy="60.91" r="4.19"/><rect x="272.37" y="56.85" width="21.52" height="8.1" transform="translate(566.26 121.81) rotate(-180)"/><circle cx="299.7" cy="60.91" r="4.19"/><text class="cls-10" transform="translate(184.81 50.56)">E</text><circle cx="200.97" cy="60.91" r="4.19"/><text class="cls-10" transform="translate(105.15 50.56)">D</text><circle cx="131.78" cy="60.91" r="4.19"/><circle cx="141.78" cy="60.91" r="4.19"/><rect x="103.97" y="56.85" width="21.52" height="8.1"/><text class="cls-10" transform="translate(29.16 50.56)">C</text><circle cx="75.82" cy="60.91" r="4.19"/><rect x="48.01" y="56.85" width="21.52" height="8.1"/><circle cx="41.82" cy="60.91" r="4.19"/><rect x="14.01" y="56.85" width="21.52" height="8.1"/><text class="cls-11" transform="translate(491.82 50.56)">B</text><circle cx="513.14" cy="60.91" r="4.19"/><circle cx="533.14" cy="60.91" r="4.19"/><circle cx="523.14" cy="60.91" r="4.19"/><rect x="485.33" y="56.85" width="21.52" height="8.1"/></g></g></svg>