<svg id="Layer_1" data-name="Layer 1" xmlns="http://www.w3.org/2000/svg" viewBox="0 0 1366 768"><defs><style>.cls-1{opacity:0.5;}.cls-2{fill:#ffbc42;}</style></defs><title>all</title><g class="cls-1"><path d="M985.35,632.5v18.66h25.5v11h-25.5v19.37h28.56v11.52H971v-72h42.93V632.5Z"/><path d="M1034.2,636.58l15.4,38.35,14.28-38.35h15.8L1045.11,720H1029.2L1042,691.45l-23.76-54.87Z"/><path d="M1139,667.58h-41.41q.31,7.56,4.08,11.12a13.12,13.12,0,0,0,9.38,3.57,13.6,13.6,0,0,0,8.31-2.45,10.79,10.79,0,0,0,4.24-6.63h15.19A24.35,24.35,0,0,1,1134,683.8a25.16,25.16,0,0,1-9.43,7.34,32.33,32.33,0,0,1-27.49-.87,24.7,24.7,0,0,1-10-10,35.11,35.11,0,0,1,0-30.85,24.29,24.29,0,0,1,10-10,30.48,30.48,0,0,1,14.69-3.47,29.77,29.77,0,0,1,14.63,3.47,24.48,24.48,0,0,1,9.69,9.53,27.64,27.64,0,0,1,3.42,13.82A28.13,28.13,0,0,1,1139,667.58Zm-17.6-16.83a13.81,13.81,0,0,0-9.63-3.57,14.16,14.16,0,0,0-9.79,3.57q-4,3.59-4.39,10.51h27.44Q1125.37,654.33,1121.44,650.75Z"/></g><path class="cls-2" d="M225.11,146.26V256.17H427.69V321H225.11V435.14H452V503H110.85V79H452v67.26Z"/><path class="cls-1" d="M1298.19,327c-4.31-5.21-98.24-125.71-242.29-129.77-2.45-.12-4.9-.19-7.38-.19H1048c-2.28,0-4.56.06-6.82.18-144.1,4-238,124.55-242.35,129.77L795,331.54a4.48,4.48,0,0,0,0,5.71l3.78,4.57c4.31,5.23,98.25,125.75,242.35,129.78,2.26.12,4.53.16,6.82.17l.52,0h0c2.48,0,4.93-.07,7.38-.19,144-4.07,238-124.56,242.29-129.78l3.78-4.57a4.48,4.48,0,0,0,0-5.71Zm-249.65,109h0c-57.12,0-103.59-45.56-103.59-101.55s46.47-101.54,103.59-101.55h0c57.09,0,103.54,45.56,103.54,101.55S1105.63,435.93,1048.54,435.94Z"/><g class="cls-1"><path d="M280.71,686.58a17.2,17.2,0,0,1-7.16,7,23.47,23.47,0,0,1-11.15,2.49H248.3V656.42h14.1a23.82,23.82,0,0,1,11.15,2.44,16.88,16.88,0,0,1,7.16,6.91,23.07,23.07,0,0,1,0,20.81Zm-9.07-1q3.51-3.37,3.51-9.44t-3.51-9.49q-3.51-3.37-9.91-3.37h-5.51V689h5.51Q268.14,689,271.64,685.63Z"/><path d="M289.59,652.91a5.78,5.78,0,0,1,7.08,0,4.23,4.23,0,0,1,0,6.18,5.82,5.82,0,0,1-7.08,0,4.21,4.21,0,0,1,0-6.18ZM297.06,665v31.11h-7.92V665Z"/><path d="M320.88,689.28v6.79h-4.16c-3.49,0-6.15-.84-8-2.52s-2.78-4.5-2.78-8.43V671.64h-4.32V665h4.32v-7.7h7.92V665h7v6.68h-7v13.6a4.38,4.38,0,0,0,.9,3.14,4.19,4.19,0,0,0,3,.9Z"/></g><circle class="cls-2" cx="283.83" cy="590.7" r="15.3"/><path class="cls-2" d="M1048.52,292.77h0c-29.6,0-53.68,23.61-53.68,52.62S1018.91,398,1048.51,398h0c29.59,0,53.66-23.62,53.66-52.63S1078.11,292.78,1048.52,292.77Z"/></svg>