<svg id="Layer_1" data-name="Layer 1" xmlns="http://www.w3.org/2000/svg" viewBox="0 0 1366 768"><defs><style>.cls-1{opacity:0.5;}.cls-2{fill:#ffbc42;}</style></defs><title>all</title><g class="cls-1"><path d="M1086.37,309.76c2.68,0,4.86,1.9,4.86,4.24v39.94c0,2.34,2.17,4.24,4.86,4.24h38.1c2.68,0,4.86-1.9,4.86-4.24V314c0-2.34,2.17-4.24,4.86-4.24H1254a5.17,5.17,0,0,1,3.58,1.37L1287,339.2a3.94,3.94,0,0,1,1.28,2.87v78.19c0,2.35-2.17,4.25-4.86,4.25H789.54c-2.69,0-4.86-1.9-4.86-4.25V314c0-2.34,2.17-4.24,4.86-4.24Z"/><path d="M853.61,354a10.46,10.46,0,0,1-6.88-2.49,7.76,7.76,0,0,1,0-12L1088.79,128a10.74,10.74,0,0,1,13.75,0,7.75,7.75,0,0,1,0,12L860.48,351.5A10.43,10.43,0,0,1,853.61,354Z"/><path d="M818.92,327.86a10.5,10.5,0,0,1-6.88-2.48,7.76,7.76,0,0,1,0-12L1060.26,96.49a10.74,10.74,0,0,1,13.75,0,7.75,7.75,0,0,1,0,12L825.79,325.38A10.5,10.5,0,0,1,818.92,327.86Z"/><polygon points="1058.85 165.92 1033.18 129.36 1049.75 120.48 1075.42 157.04 1058.85 165.92"/><polygon points="1017.01 202.48 991.34 165.92 1007.91 157.04 1033.58 193.59 1017.01 202.48"/><polygon points="975.17 239.03 949.5 202.48 966.07 193.59 991.74 230.15 975.17 239.03"/><polygon points="933.33 275.59 907.66 239.03 924.23 230.15 949.9 266.7 933.33 275.59"/><polygon points="891.5 312.14 865.83 275.59 882.4 266.7 908.07 303.26 891.5 312.14"/><path d="M784.68,405.85c-5.9,0-10.68,4.18-10.68,9.33s4.78,9.33,10.68,9.33h10.24Z"/><path d="M1288.32,405.85c5.9,0,10.68,4.18,10.68,9.33s-4.78,9.33-10.68,9.33h-10.88Z"/></g><ellipse class="cls-2" cx="1240.41" cy="424.51" rx="21.35" ry="18.66"/><ellipse class="cls-2" cx="902.1" cy="424.51" rx="21.35" ry="18.66"/><ellipse class="cls-2" cx="818.94" cy="424.51" rx="21.35" ry="18.66"/><rect class="cls-2" x="963.92" y="405.85" width="214.67" height="37.32"/><path class="cls-2" d="M470,77V145H240.39V259.88h184v65.63h-184V506h-109V77Z"/><g class="cls-1"><path d="M128.71,690.09a16.16,16.16,0,0,1-7,6.11,25.28,25.28,0,0,1-10.91,2.18H97V663.76h13.79a25.74,25.74,0,0,1,10.91,2.13,15.88,15.88,0,0,1,7,6,18.26,18.26,0,0,1,0,18.17Zm-8.88-.83a10.28,10.28,0,0,0,3.44-8.24q0-5.35-3.44-8.29t-9.7-2.94h-5.38V692.2h5.38Q116.4,692.2,119.83,689.26Z"/><path d="M137.39,660.69a6.24,6.24,0,0,1,6.93,0,3.44,3.44,0,0,1,0,5.4,6.24,6.24,0,0,1-6.93,0,3.42,3.42,0,0,1,0-5.4Zm7.31,10.52v27.17H137V671.21Z"/><path d="M168,692.44v5.94h-4.07q-5.12,0-7.83-2.21t-2.72-7.36V677h-4.23v-5.83h4.23v-6.72h7.75v6.72h6.81V677h-6.81v11.87a3.54,3.54,0,0,0,.88,2.75,4.43,4.43,0,0,0,3,.78Z"/><path d="M193.27,678v5.73H169.92V678Z"/><path d="M234,690.09a16.11,16.11,0,0,1-7,6.11,25.2,25.2,0,0,1-10.9,2.18h-13.8V663.76h13.8a25.66,25.66,0,0,1,10.9,2.13,15.82,15.82,0,0,1,7,6,18.26,18.26,0,0,1,0,18.17Zm-8.87-.83a10.27,10.27,0,0,0,3.43-8.24q0-5.35-3.43-8.29t-9.7-2.94H210V692.2h5.39Q221.69,692.2,225.12,689.26Z"/><path d="M242.67,660.69a6.24,6.24,0,0,1,6.93,0,3.42,3.42,0,0,1,0,5.4,6.24,6.24,0,0,1-6.93,0,3.44,3.44,0,0,1,0-5.4ZM250,671.21v27.17h-7.75V671.21Z"/><path d="M273.28,692.44v5.94h-4.07q-5.1,0-7.83-2.21t-2.72-7.36V677h-4.23v-5.83h4.23v-6.72h7.75v6.72h6.82V677h-6.82v11.87a3.54,3.54,0,0,0,.88,2.75,4.48,4.48,0,0,0,3,.78Z"/><path d="M298.56,678v5.73H275.2V678Z"/><path d="M339.28,690.09a16.16,16.16,0,0,1-7,6.11,25.28,25.28,0,0,1-10.91,2.18H307.57V663.76h13.79a25.74,25.74,0,0,1,10.91,2.13,15.88,15.88,0,0,1,7,6,18.26,18.26,0,0,1,0,18.17Zm-8.88-.83a10.28,10.28,0,0,0,3.44-8.24q0-5.35-3.44-8.29t-9.7-2.94h-5.38V692.2h5.38Q327,692.2,330.4,689.26Z"/><path d="M366,672.48a9.1,9.1,0,0,1,3.9,4.37v-5.64h7.69v27.17h-7.69v-5.69a9.23,9.23,0,0,1-3.9,4.39,12.67,12.67,0,0,1-6.6,1.64,14.2,14.2,0,0,1-6.92-1.67,11.84,11.84,0,0,1-4.81-4.83,16.82,16.82,0,0,1,0-14.86,12,12,0,0,1,4.81-4.83,14.3,14.3,0,0,1,6.92-1.66A12.86,12.86,0,0,1,366,672.48ZM356,679a8.68,8.68,0,0,0,0,11.55,9.07,9.07,0,0,0,11.62,0,8.37,8.37,0,0,0,0-11.48,8.15,8.15,0,0,0-5.8-2.13A8,8,0,0,0,356,679Z"/><path d="M411.21,673.91q3.14,3.09,3.13,8.68v15.79h-7.69v-15a6.63,6.63,0,0,0-1.87-5,7.07,7.07,0,0,0-5.11-1.8,6.75,6.75,0,0,0-7.26,7.41v14.42h-7.74V662.09h7.74v14.56a9,9,0,0,1,4-4.29,12.93,12.93,0,0,1,6.4-1.54A11.45,11.45,0,0,1,411.21,673.91Z"/><path d="M440.88,678v5.73H417.53V678Z"/><path d="M481.6,690.09a16.11,16.11,0,0,1-7,6.11,25.25,25.25,0,0,1-10.91,2.18H449.89V663.76h13.79a25.71,25.71,0,0,1,10.91,2.13,15.82,15.82,0,0,1,7,6,18.26,18.26,0,0,1,0,18.17Zm-8.87-.83a11.67,11.67,0,0,0,0-16.53q-3.45-2.94-9.7-2.94h-5.39V692.2H463Q469.29,692.2,472.73,689.26Z"/><path d="M490.28,660.69a6.24,6.24,0,0,1,6.93,0,3.42,3.42,0,0,1,0,5.4,6.24,6.24,0,0,1-6.93,0,3.44,3.44,0,0,1,0-5.4Zm7.31,10.52v27.17h-7.75V671.21Z"/><path d="M520.89,692.44v5.94h-4.07c-3.4,0-6-.74-7.83-2.21s-2.72-3.92-2.72-7.36V677H502v-5.83h4.23v-6.72H514v6.72h6.82V677H514v11.87a3.54,3.54,0,0,0,.88,2.75,4.48,4.48,0,0,0,3,.78Z"/></g><ellipse class="cls-2" cx="218.77" cy="597.65" rx="14.97" ry="13.36"/><ellipse class="cls-2" cx="455.95" cy="597.65" rx="14.97" ry="13.36"/><ellipse class="cls-2" cx="160.46" cy="597.65" rx="14.97" ry="13.36"/><rect class="cls-2" x="262.11" y="584.29" width="150.51" height="26.72"/><g class="cls-1"><path d="M868.92,635.52v10H839.29v16.83H863v9.62H839.29v26.44H825.22V635.52Z"/><path d="M879.19,630a11.25,11.25,0,0,1,12.57,0,6,6,0,0,1,2.4,4.94,6,6,0,0,1-2.4,4.85,11.3,11.3,0,0,1-12.57,0,5.94,5.94,0,0,1-2.39-4.85A6,6,0,0,1,879.19,630Zm13.27,19.09v49.33H878.39V649.05Z"/><path d="M927.48,651.06a23.76,23.76,0,0,1,11.37-2.72v13.45h-4.09q-15.46,0-15.46,12.82v23.77H905.23V649.05H919.3v9.44A22,22,0,0,1,927.48,651.06Z"/><path d="M998.11,676.12h-40.5q.3,6.58,4,9.71a13.77,13.77,0,0,0,9.17,3.11,14.46,14.46,0,0,0,8.14-2.14,9.42,9.42,0,0,0,4.14-5.78h14.86a20.17,20.17,0,0,1-4.69,9.26,24.35,24.35,0,0,1-9.23,6.41A32.68,32.68,0,0,1,971.48,699a32.29,32.29,0,0,1-14.37-3.07,23.08,23.08,0,0,1-9.78-8.77,27.72,27.72,0,0,1,0-26.93,22.64,22.64,0,0,1,9.78-8.77,32.69,32.69,0,0,1,14.37-3,31.94,31.94,0,0,1,14.31,3,22.81,22.81,0,0,1,9.48,8.32,22.12,22.12,0,0,1,3.34,12.06A21.51,21.51,0,0,1,998.11,676.12ZM980.9,661.43a14.46,14.46,0,0,0-9.42-3.12,14.81,14.81,0,0,0-9.58,3.12q-3.9,3.12-4.29,9.17h26.84Q984.73,664.56,980.9,661.43Z"/><path d="M1038.12,687.61v10.77h-7.38q-9.29,0-14.22-4T1011.58,681V659.65h-7.68v-10.6h7.68V636.86h14.07v12.19H1038v10.6h-12.37v21.54q0,3.57,1.59,5c1.07,1,2.86,1.43,5.39,1.43Z"/><path d="M1070.44,651.06a23.8,23.8,0,0,1,11.38-2.72v13.45h-4.1q-15.45,0-15.46,12.82v23.77H1048.2V649.05h14.06v9.44A22,22,0,0,1,1070.44,651.06Z"/><path d="M1142.47,649.05v49.33h-14.06v-10a16.34,16.34,0,0,1-7.24,7.79,23.48,23.48,0,0,1-11.62,2.8q-9.58,0-15.27-5.61t-5.68-15.67V649.05h14V676.3q0,5.88,3.4,9.12t9.18,3.25q6.08,0,9.67-3.47t3.6-10V649.05Z"/><path d="M1197.89,653.59a22.17,22.17,0,0,1,8.93,14.07H1192a10.08,10.08,0,0,0-4.09-6.19,13.63,13.63,0,0,0-8.08-2.27,12.74,12.74,0,0,0-9.32,3.7q-3.75,3.69-3.75,10.82t3.75,10.81a12.7,12.7,0,0,0,9.32,3.7,13.63,13.63,0,0,0,8.08-2.27,10.06,10.06,0,0,0,4.09-6.19h14.87a22.12,22.12,0,0,1-8.93,14.07q-7.14,5.16-17.81,5.16a32.28,32.28,0,0,1-14.36-3.07,23,23,0,0,1-9.78-8.77,27.72,27.72,0,0,1,0-26.93,22.58,22.58,0,0,1,9.78-8.77,32.68,32.68,0,0,1,14.36-3Q1190.76,648.43,1197.89,653.59Z"/><path d="M1249.12,698.38l-18.26-21.55v21.55H1216.8V632.49h14.06v37L1249,649.05h16.66l-23.24,24.58,23.84,24.75Z"/></g></svg>