<svg id="Layer_1" data-name="Layer 1" xmlns="http://www.w3.org/2000/svg" viewBox="0 0 1366 768"><defs><style>.cls-1{opacity:0.5;}.cls-2{fill:none;}.cls-3{fill:#f8951d;}.cls-4{fill:#ffbc42;}</style></defs><title>all</title><g class="cls-1"><path d="M1083.33,470h-62.11a7.95,7.95,0,1,1,0-15.89h62.11a7.95,7.95,0,0,1,0,15.89Z"/><path d="M1151.27,436.85h-83.85a7.95,7.95,0,0,1,0-15.89h83.85a7.95,7.95,0,0,1,0,15.89Z"/><path d="M982.09,422.31h-125a7.94,7.94,0,1,1,0-15.88h125a7.94,7.94,0,0,1,0,15.88Z"/><path class="cls-2" d="M1004.11,308c-1.71,0-3.39.09-5.06.22C1000.72,308.13,1002.4,308,1004.11,308Z"/><path class="cls-2" d="M1066.16,308.94c-1.55-.26-3.12-.47-4.71-.62C1063,308.47,1064.61,308.68,1066.16,308.94Z"/><path class="cls-2" d="M1071.67,310.13c-1.52-.41-3.07-.74-4.64-1C1068.6,309.39,1070.15,309.72,1071.67,310.13Z"/><path class="cls-2" d="M1060.67,308.26c-1.67-.13-3.35-.22-5.06-.22C1057.32,308,1059,308.13,1060.67,308.26Z"/><path class="cls-2" d="M998.27,308.32c-1.59.15-3.16.36-4.71.62C995.11,308.68,996.68,308.47,998.27,308.32Z"/><path class="cls-2" d="M982.72,311.79c-1.51.55-3,1.17-4.44,1.83C979.73,313,981.21,312.34,982.72,311.79Z"/><path class="cls-2" d="M977.64,313.9c-1.43.67-2.82,1.39-4.19,2.15C974.82,315.29,976.21,314.57,977.64,313.9Z"/><path class="cls-2" d="M992.69,309.1c-1.57.29-3.12.62-4.64,1C989.57,309.72,991.12,309.39,992.69,309.1Z"/><path class="cls-2" d="M987.52,310.28c-1.53.42-3,.89-4.52,1.42C984.48,311.17,986,310.7,987.52,310.28Z"/><path class="cls-2" d="M1111.47,342.12a62.92,62.92,0,0,0-8.79-12.82A62.92,62.92,0,0,1,1111.47,342.12Z"/><path class="cls-2" d="M1076.72,311.7c-1.48-.53-3-1-4.52-1.42C1073.73,310.7,1075.24,311.17,1076.72,311.7Z"/><path class="cls-2" d="M1098.87,325.36q-1.78-1.71-3.71-3.27Q1097.08,323.65,1098.87,325.36Z"/><path class="cls-2" d="M944.39,379.59a13.61,13.61,0,0,0,8.05,4.74A13.61,13.61,0,0,1,944.39,379.59Z"/><path class="cls-2" d="M1116.92,357.08a62.56,62.56,0,0,0-5.42-14.9A62.56,62.56,0,0,1,1116.92,357.08Z"/><path class="cls-2" d="M1081.44,313.62c-1.45-.66-2.93-1.28-4.45-1.83C1078.51,312.34,1080,313,1081.44,313.62Z"/><path class="cls-2" d="M1086.26,316.05c-1.36-.77-2.76-1.48-4.18-2.15C1083.5,314.57,1084.9,315.28,1086.26,316.05Z"/><path class="cls-2" d="M1095,322a64.25,64.25,0,0,0-8.23-5.62A64.25,64.25,0,0,1,1095,322Z"/><path class="cls-2" d="M941.44,373h0s0,.11,0,.16S941.45,373,941.44,373Z"/><path class="cls-2" d="M957,329.29a63.26,63.26,0,0,0-8.79,12.83A63.26,63.26,0,0,1,957,329.29Z"/><path class="cls-2" d="M957.11,329.22c1.1-1.24,2.26-2.44,3.46-3.59C959.37,326.78,958.21,328,957.11,329.22Z"/><path class="cls-2" d="M948.22,342.18a62.43,62.43,0,0,0-5.43,14.9h0A63,63,0,0,1,948.22,342.18Z"/><path class="cls-2" d="M964.56,322.09q-1.92,1.56-3.71,3.27Q962.64,323.65,964.56,322.09Z"/><path class="cls-2" d="M1099.15,325.63c1.2,1.15,2.36,2.35,3.46,3.59Q1100.95,327.36,1099.15,325.63Z"/><path class="cls-2" d="M972.93,316.35A64.25,64.25,0,0,0,964.7,322,63.56,63.56,0,0,1,972.93,316.35Z"/><path d="M1233.06,357.08h-54c-2.72-18.52-10.1-48.88-30.18-71-8.21-9-30.58-29.36-48-49.16a146.14,146.14,0,0,1,16.33-7c11.3-3.94,24.7-37.71,1.33-39.3-17.89-1.22-28.14,18.71-32,28.13h0c-.45-.66-.9-1.3-1.31-1.94-15.66-24.3-56.64-22.6-56.64-22.6h-3S988,192.7,971.1,214h0c-4.91-10.09-14.61-24.4-29.85-23.36-23.36,1.59-10,35.36,1.33,39.3,4.48,1.56,8.82,3.43,12.45,5.11-17.6,20.4-41.14,41.71-49.61,51-1.72,1.89-5,6.85-8.38,12.09H857.1a7.94,7.94,0,1,0,0,15.88h30c-6.89,14.95-10.27,31.53-11.92,43H824.78a7.95,7.95,0,1,0,0,15.89H881l.07.16h44.36c-.06-.74-.1-1.48-.1-2.23a78.84,78.84,0,0,1,78.75-78.75h51.5a78.84,78.84,0,0,1,78.75,78.75c0,.75,0,1.49-.1,2.23h39l.08-.16h59.74a7.95,7.95,0,0,0,0-15.89Z"/><path d="M941.46,373.13a13.59,13.59,0,0,0,13.46,11.42h149.9a13.46,13.46,0,0,0,7-1.9,13.59,13.59,0,0,0,6.49-9.52,11.63,11.63,0,0,0,.21-2.23,62.89,62.89,0,0,0-7-28.72l0-.06a62.92,62.92,0,0,0-8.79-12.82l-.07-.08c-1.1-1.24-2.26-2.44-3.46-3.59l-.28-.27q-1.78-1.71-3.71-3.27L1095,322a64.25,64.25,0,0,0-8.23-5.62l-.53-.3c-1.36-.77-2.76-1.48-4.18-2.15l-.64-.28c-1.45-.66-2.93-1.28-4.45-1.83l-.27-.09c-1.48-.53-3-1-4.52-1.42-.18,0-.35-.11-.53-.15-1.52-.41-3.07-.74-4.64-1l-.87-.16c-1.55-.26-3.12-.47-4.71-.62l-.78-.06c-1.67-.13-3.35-.22-5.06-.22h-51.5c-1.71,0-3.39.09-5.06.22l-.78.06c-1.59.15-3.16.36-4.71.62l-.87.16c-1.57.29-3.12.62-4.64,1-.18,0-.35.1-.53.15-1.53.42-3,.89-4.52,1.42l-.28.09c-1.51.55-3,1.17-4.44,1.83l-.64.28c-1.43.67-2.82,1.39-4.19,2.15l-.52.3A63.56,63.56,0,0,0,964.7,322l-.14.12q-1.92,1.56-3.71,3.27l-.28.27c-1.2,1.15-2.36,2.35-3.46,3.59a.46.46,0,0,1-.07.07,63.26,63.26,0,0,0-8.79,12.83l0,.06a63,63,0,0,0-5.43,14.9h0a62.94,62.94,0,0,0-1.55,13.82,11.71,11.71,0,0,0,.2,2.07h0S941.45,373.08,941.46,373.13Z"/><path class="cls-3" d="M1086.79,316.35l-.53-.3Z"/><path class="cls-3" d="M1082.08,313.9l-.64-.28Z"/><path class="cls-3" d="M978.28,313.62l-.64.28Z"/><path class="cls-3" d="M1095.16,322.09,1095,322Z"/><path class="cls-3" d="M1111.77,382.65a13.47,13.47,0,0,1-4.47,1.68A13.47,13.47,0,0,0,1111.77,382.65Z"/><path class="cls-3" d="M1111.5,342.18l0-.06Z"/><path class="cls-3" d="M1102.68,329.3l-.07-.08Z"/><path class="cls-3" d="M1072.2,310.28c-.18,0-.35-.11-.53-.15C1071.85,310.17,1072,310.23,1072.2,310.28Z"/><path class="cls-3" d="M999.05,308.26l-.78.06Z"/><path class="cls-3" d="M964.7,322l-.14.12Z"/><path class="cls-3" d="M948.25,342.12l0,.06Z"/><path class="cls-3" d="M983,311.7l-.28.09Z"/><path class="cls-3" d="M957.11,329.22a.46.46,0,0,1-.07.07A.46.46,0,0,0,957.11,329.22Z"/><path class="cls-3" d="M1077,311.79l-.27-.09Z"/><path class="cls-3" d="M993.56,308.94l-.87.16Z"/><path class="cls-3" d="M1061.45,308.32l-.78-.06Z"/><path class="cls-3" d="M988.05,310.13c-.18,0-.35.1-.53.15C987.7,310.23,987.87,310.17,988.05,310.13Z"/><path class="cls-3" d="M973.45,316.05l-.52.3Z"/><path class="cls-3" d="M1098.87,325.36l.28.27Z"/><path class="cls-3" d="M960.57,325.63l.28-.27Z"/><path class="cls-3" d="M1067,309.1l-.87-.16Z"/></g><path class="cls-4" d="M471.39,63.9V506H382.47V313.76H193.36V506h-88.3V63.9h88.3V243H382.47V63.9Z"/><g class="cls-1"><path d="M969.09,634.07v64.14h-12.9V670.32H928.75v27.89H915.94V634.07h12.81v26h27.44v-26Z"/><path d="M981.44,628.4a9.34,9.34,0,0,1,11.45,0,6.43,6.43,0,0,1,2.18,5,6.33,6.33,0,0,1-2.18,4.95,9.38,9.38,0,0,1-11.45,0,6.36,6.36,0,0,1-2.18-4.95A6.46,6.46,0,0,1,981.44,628.4Zm12.09,19.48v50.33H980.72V647.88Z"/><path d="M1046.67,650.34a20.79,20.79,0,0,1,7.95,8.94,34.44,34.44,0,0,1,0,27.53,20.76,20.76,0,0,1-7.95,9,21.58,21.58,0,0,1-11.44,3.09,18.92,18.92,0,0,1-10.86-3.05,16.58,16.58,0,0,1-6.4-8.13V722.2h-12.81V647.88H1018v10.45a16.33,16.33,0,0,1,6.4-8.08,19.05,19.05,0,0,1,10.86-3A21.58,21.58,0,0,1,1046.67,650.34Zm-25,12q-3.78,3.95-3.78,10.67t3.78,10.58a13.74,13.74,0,0,0,19.21.09q3.63-3.86,3.63-10.67t-3.63-10.72a12.5,12.5,0,0,0-9.63-3.91A12.64,12.64,0,0,0,1021.65,662.38Z"/><path d="M1108.09,650.34a20.91,20.91,0,0,1,8,8.94,34.56,34.56,0,0,1,0,27.53,20.88,20.88,0,0,1-8,9,21.64,21.64,0,0,1-11.45,3.09,18.92,18.92,0,0,1-10.86-3.05,16.58,16.58,0,0,1-6.4-8.13V722.2h-12.81V647.88h12.81v10.45a16.33,16.33,0,0,1,6.4-8.08,19.05,19.05,0,0,1,10.86-3A21.64,21.64,0,0,1,1108.09,650.34Zm-25,12q-3.76,3.95-3.77,10.67t3.77,10.58a13.74,13.74,0,0,0,19.21.09q3.63-3.86,3.63-10.67t-3.63-10.72a12.5,12.5,0,0,0-9.63-3.91A12.64,12.64,0,0,0,1083.06,662.38Z"/><path d="M1164.46,650.34a22.66,22.66,0,0,1,9.22,8.94,29.79,29.79,0,0,1,0,27.49,23,23,0,0,1-9.22,8.94,29.4,29.4,0,0,1-26.44,0,22.92,22.92,0,0,1-9.22-8.94,29.79,29.79,0,0,1,0-27.49,22.6,22.6,0,0,1,9.22-8.94,29.82,29.82,0,0,1,26.44,0Zm-22.3,11.76c-2.49,2.51-3.73,6.17-3.73,10.95s1.24,8.43,3.73,10.94a12.83,12.83,0,0,0,18.17,0q3.72-3.76,3.72-10.94c0-4.78-1.24-8.44-3.72-10.95a12.83,12.83,0,0,0-18.17,0Z"/></g><circle class="cls-4" cx="255.91" cy="595.43" r="13.63"/><circle class="cls-4" cx="202.82" cy="595.43" r="13.63"/><circle class="cls-4" cx="309.01" cy="595.43" r="13.63"/><circle class="cls-4" cx="362.11" cy="595.43" r="13.63"/><g class="cls-1"><path d="M135.87,689.75a15.36,15.36,0,0,1-6.38,6.24,20.86,20.86,0,0,1-9.93,2.22H107V662.88h12.56a21.21,21.21,0,0,1,9.93,2.18,15,15,0,0,1,6.38,6.16,20.53,20.53,0,0,1,0,18.53Zm-8.08-.85q3.13-3,3.13-8.4T127.79,672c-2.08-2-5-3-8.83-3h-4.91V691.9H119C122.76,691.9,125.71,690.9,127.79,688.9Z"/><path d="M143.78,659.76a5.15,5.15,0,0,1,6.31,0,3.56,3.56,0,0,1,1.19,2.77,3.52,3.52,0,0,1-1.19,2.73,5.15,5.15,0,0,1-6.31,0,3.5,3.5,0,0,1-1.2-2.73A3.54,3.54,0,0,1,143.78,659.76Zm6.65,10.73v27.72h-7.05V670.49Z"/><path d="M171.65,692.16v6.05H168c-3.11,0-5.48-.75-7.13-2.25s-2.48-4-2.48-7.51v-12h-3.85v-6h3.85v-6.85h7v6.85h6.21v6h-6.21v12.11a3.85,3.85,0,0,0,.81,2.8,3.69,3.69,0,0,0,2.7.81Z"/><path d="M194.67,677.44v5.86H173.4v-5.86Z"/><path d="M231.75,689.75a15.42,15.42,0,0,1-6.38,6.24,20.92,20.92,0,0,1-9.94,2.22H202.87V662.88h12.56a21.28,21.28,0,0,1,9.94,2.18,15.06,15.06,0,0,1,6.38,6.16,20.61,20.61,0,0,1,0,18.53Zm-8.08-.85q3.12-3,3.12-8.4T223.67,672c-2.09-2-5-3-8.84-3h-4.9V691.9h4.9C218.64,691.9,221.58,690.9,223.67,688.9Z"/><path d="M239.65,659.76a5.15,5.15,0,0,1,6.31,0,3.54,3.54,0,0,1,1.2,2.77,3.5,3.5,0,0,1-1.2,2.73,5.15,5.15,0,0,1-6.31,0,3.5,3.5,0,0,1-1.2-2.73A3.54,3.54,0,0,1,239.65,659.76Zm6.66,10.73v27.72h-7.06V670.49Z"/><path d="M267.52,692.16v6.05h-3.7q-4.65,0-7.13-2.25c-1.65-1.5-2.48-4-2.48-7.51v-12h-3.85v-6h3.85v-6.85h7.06v6.85h6.2v6h-6.2v12.11a3.86,3.86,0,0,0,.8,2.8,3.69,3.69,0,0,0,2.7.81Z"/><path d="M290.54,677.44v5.86H269.27v-5.86Z"/><path d="M327.62,689.75a15.42,15.42,0,0,1-6.38,6.24,20.91,20.91,0,0,1-9.93,2.22H298.75V662.88h12.56a21.27,21.27,0,0,1,9.93,2.18,15.06,15.06,0,0,1,6.38,6.16,20.61,20.61,0,0,1,0,18.53Zm-8.08-.85c2.08-2,3.13-4.8,3.13-8.4s-1.05-6.46-3.13-8.46-5-3-8.83-3H305.8V691.9h4.91Q316.41,691.9,319.54,688.9Z"/><path d="M335.53,659.76a5.13,5.13,0,0,1,6.3,0,3.54,3.54,0,0,1,1.2,2.77,3.5,3.5,0,0,1-1.2,2.73,5.13,5.13,0,0,1-6.3,0,3.47,3.47,0,0,1-1.2-2.73A3.51,3.51,0,0,1,335.53,659.76Zm6.65,10.73v27.72h-7.06V670.49Z"/><path d="M363.4,692.16v6.05h-3.71q-4.65,0-7.13-2.25c-1.65-1.5-2.47-4-2.47-7.51v-12h-3.86v-6h3.86v-6.85h7.05v6.85h6.21v6h-6.21v12.11a3.9,3.9,0,0,0,.8,2.8,3.73,3.73,0,0,0,2.7.81Z"/><path d="M386.42,677.44v5.86H365.15v-5.86Z"/><path d="M423.49,689.75a15.36,15.36,0,0,1-6.38,6.24,20.86,20.86,0,0,1-9.93,2.22H394.62V662.88h12.56a21.21,21.21,0,0,1,9.93,2.18,15,15,0,0,1,6.38,6.16,20.53,20.53,0,0,1,0,18.53Zm-8.08-.85q3.13-3,3.13-8.4T415.41,672c-2.08-2-5-3-8.83-3h-4.91V691.9h4.91C410.38,691.9,413.33,690.9,415.41,688.9Z"/><path d="M431.4,659.76a5.15,5.15,0,0,1,6.31,0,3.56,3.56,0,0,1,1.19,2.77,3.52,3.52,0,0,1-1.19,2.73,5.15,5.15,0,0,1-6.31,0,3.5,3.5,0,0,1-1.2-2.73A3.54,3.54,0,0,1,431.4,659.76Zm6.65,10.73v27.72H431V670.49Z"/><path d="M459.27,692.16v6.05h-3.7c-3.11,0-5.48-.75-7.13-2.25s-2.48-4-2.48-7.51v-12h-3.85v-6H446v-6.85H453v6.85h6.21v6H453v12.11a3.85,3.85,0,0,0,.81,2.8,3.69,3.69,0,0,0,2.7.81Z"/></g><circle class="cls-4" cx="971.15" cy="266.19" r="13.24"/><circle class="cls-4" cx="1088.59" cy="266.19" r="13.24"/><circle class="cls-4" cx="994.96" cy="344.76" r="13.24"/><circle class="cls-4" cx="1064.77" cy="344.76" r="13.24"/></svg>