<svg id="Layer_1" data-name="Layer 1" xmlns="http://www.w3.org/2000/svg" viewBox="0 0 1366 768"><defs><style>.cls-1{fill:#ffbc42;}.cls-2{opacity:0.5;}</style></defs><title>all</title><path class="cls-1" d="M385.75,84.64V364.28q0,57.27-31.72,89T266.15,485q-60.63,0-96-34.81T134.76,350.8h78.05q0,30.32,12.63,46.6t37.34,16.29q22.46,0,33.13-13.2t10.67-36.21V84.64Z"/><g class="cls-2"><path d="M114.76,672.46a14.32,14.32,0,0,1-6,5.85,19.53,19.53,0,0,1-9.33,2.09H87.64V647.22h11.8a20,20,0,0,1,9.33,2,14.11,14.11,0,0,1,6,5.78,19.34,19.34,0,0,1,0,17.41Zm-7.59-.8q2.94-2.82,2.94-7.9t-2.94-7.94Q104.23,653,98.88,653H94.27v21.48h4.61Q104.24,674.48,107.17,671.66Z"/><path d="M122.19,644.29a4.84,4.84,0,0,1,5.92,0,3.52,3.52,0,0,1,0,5.17,4.84,4.84,0,0,1-5.92,0,3.52,3.52,0,0,1,0-5.17Zm6.25,10.08v26h-6.63v-26Z"/><path d="M148.37,674.72v5.68h-3.48q-4.38,0-6.7-2.11t-2.33-7V660h-3.62v-5.59h3.62v-6.44h6.63v6.44h5.83V660h-5.83v11.37a3.66,3.66,0,0,0,.75,2.63,3.48,3.48,0,0,0,2.54.76Z"/><path d="M170,660.9v5.5H150v-5.5Z"/><path d="M204.81,672.46a14.38,14.38,0,0,1-6,5.85,19.53,19.53,0,0,1-9.33,2.09h-11.8V647.22h11.8a20,20,0,0,1,9.33,2,14.16,14.16,0,0,1,6,5.78,19.42,19.42,0,0,1,0,17.41Zm-7.59-.8q2.94-2.82,2.94-7.9t-2.94-7.94c-2-1.88-4.72-2.82-8.3-2.82h-4.6v21.48h4.6C192.5,674.48,195.26,673.54,197.22,671.66Z"/><path d="M227.7,655.59a8.48,8.48,0,0,1,3.33,4.18v-5.4h6.58v26H231V675a8.59,8.59,0,0,1-3.33,4.21,9.92,9.92,0,0,1-5.65,1.57,11.16,11.16,0,0,1-5.92-1.6A10.76,10.76,0,0,1,212,674.5a17.87,17.87,0,0,1,0-14.24,10.85,10.85,0,0,1,4.11-4.62,11.16,11.16,0,0,1,5.92-1.6A10.06,10.06,0,0,1,227.7,655.59Zm-8.56,6.25a9.09,9.09,0,0,0,0,11.07,7.14,7.14,0,0,0,9.94,0,8.73,8.73,0,0,0,0-11,6.56,6.56,0,0,0-5-2A6.46,6.46,0,0,0,219.14,661.84Z"/><path d="M266.33,657c1.79,2,2.68,4.75,2.68,8.32V680.4h-6.58V666a6.84,6.84,0,0,0-1.6-4.82,5.69,5.69,0,0,0-4.37-1.71,5.87,5.87,0,0,0-4.52,1.83,7.52,7.52,0,0,0-1.68,5.26V680.4h-6.63V645.63h6.63v14a8.32,8.32,0,0,1,3.4-4.11,10.19,10.19,0,0,1,5.48-1.48A9.25,9.25,0,0,1,266.33,657Z"/><path d="M291.71,660.9v5.5h-20v-5.5Z"/><path d="M326.53,672.46a14.32,14.32,0,0,1-6,5.85,19.53,19.53,0,0,1-9.33,2.09h-11.8V647.22h11.8a20,20,0,0,1,9.33,2,14.11,14.11,0,0,1,6,5.78,19.34,19.34,0,0,1,0,17.41Zm-7.59-.8q2.94-2.82,2.94-7.9t-2.94-7.94Q316,653,310.65,653H306v21.48h4.61Q316,674.48,318.94,671.66Z"/><path d="M349.42,655.59a8.5,8.5,0,0,1,3.34,4.18v-5.4h6.58v26h-6.58V675a8.61,8.61,0,0,1-3.34,4.21,9.91,9.91,0,0,1-5.64,1.57,11.13,11.13,0,0,1-5.92-1.6,10.63,10.63,0,0,1-4.11-4.63,17.87,17.87,0,0,1,0-14.24,10.72,10.72,0,0,1,4.11-4.62,11.13,11.13,0,0,1,5.92-1.6A10.05,10.05,0,0,1,349.42,655.59Zm-8.55,6.25a9.09,9.09,0,0,0,0,11.07,7.12,7.12,0,0,0,9.93,0,8.7,8.7,0,0,0,0-11,6.56,6.56,0,0,0-5-2A6.45,6.45,0,0,0,340.87,661.84Z"/><path d="M388.05,657c1.79,2,2.68,4.75,2.68,8.32V680.4h-6.58V666a6.79,6.79,0,0,0-1.6-4.82,5.68,5.68,0,0,0-4.37-1.71,5.85,5.85,0,0,0-4.51,1.83,7.47,7.47,0,0,0-1.69,5.26V680.4h-6.63V645.63H372v14a8.29,8.29,0,0,1,3.41-4.11,10.16,10.16,0,0,1,5.47-1.48A9.22,9.22,0,0,1,388.05,657Z"/><path d="M413.43,660.9v5.5h-20v-5.5Z"/><path d="M448.26,672.46a14.35,14.35,0,0,1-6,5.85,19.5,19.5,0,0,1-9.33,2.09H421.14V647.22h11.79a20,20,0,0,1,9.33,2,14.13,14.13,0,0,1,6,5.78,19.42,19.42,0,0,1,0,17.41Zm-7.6-.8q2.94-2.82,2.94-7.9t-2.94-7.94q-2.94-2.82-8.29-2.82h-4.6v21.48h4.6Q437.73,674.48,440.66,671.66Z"/><path d="M471.14,655.59a8.44,8.44,0,0,1,3.34,4.18v-5.4h6.58v26h-6.58V675a8.56,8.56,0,0,1-3.34,4.21,9.86,9.86,0,0,1-5.64,1.57,11.16,11.16,0,0,1-5.92-1.6,10.76,10.76,0,0,1-4.11-4.63,17.87,17.87,0,0,1,0-14.24,10.85,10.85,0,0,1,4.11-4.62,11.16,11.16,0,0,1,5.92-1.6A10,10,0,0,1,471.14,655.59Zm-8.55,6.25a9.09,9.09,0,0,0,0,11.07,7.14,7.14,0,0,0,9.94,0,8.73,8.73,0,0,0,0-11,6.56,6.56,0,0,0-5-2A6.46,6.46,0,0,0,462.59,661.84Z"/><path d="M509.78,657c1.78,2,2.67,4.75,2.67,8.32V680.4h-6.58V666a6.83,6.83,0,0,0-1.59-4.82,5.71,5.71,0,0,0-4.37-1.71,5.87,5.87,0,0,0-4.52,1.83,7.52,7.52,0,0,0-1.69,5.26V680.4h-6.63V645.63h6.63v14a8.34,8.34,0,0,1,3.41-4.11,10.19,10.19,0,0,1,5.48-1.48A9.25,9.25,0,0,1,509.78,657Z"/></g><circle class="cls-1" cx="69.8" cy="583.87" r="12.8"/><rect class="cls-1" x="106.87" y="571.07" width="128.72" height="25.61"/><rect class="cls-1" x="259.85" y="571.07" width="128.72" height="25.61"/><rect class="cls-1" x="414.19" y="571.07" width="128.72" height="25.61"/><g class="cls-2"><path d="M985,620.16v42.49q0,8.72-4.82,13.53T966.87,681q-9.21,0-14.59-5.29t-5.38-15.1h11.86q0,4.6,1.92,7.08a6.75,6.75,0,0,0,5.68,2.47,6.11,6.11,0,0,0,5-2,8.53,8.53,0,0,0,1.63-5.51V620.16Z"/><path d="M1039.57,659.07h-34.64q.26,6.31,3.41,9.3a11,11,0,0,0,7.85,3,11.41,11.41,0,0,0,6.95-2.05,9.06,9.06,0,0,0,3.54-5.55h12.72a20.51,20.51,0,0,1-4,8.88,21,21,0,0,1-7.9,6.14,27,27,0,0,1-23-.72,20.71,20.71,0,0,1-8.36-8.41,29.34,29.34,0,0,1,0-25.81,20.27,20.27,0,0,1,8.36-8.4,25.39,25.39,0,0,1,12.29-2.91,24.84,24.84,0,0,1,12.24,2.91,20.46,20.46,0,0,1,8.11,8,23.5,23.5,0,0,1,2.43,15.66ZM1024.85,645a11.55,11.55,0,0,0-8.06-3,11.83,11.83,0,0,0-8.2,3c-2.21,2-3.44,4.92-3.66,8.79h23Q1028.13,648,1024.85,645Z"/><path d="M1073.78,670.08V680.4h-6.31q-7.93,0-12.16-3.84t-4.22-12.8V643.29h-6.57V633.13h6.57V621.44h12v11.69h10.58v10.16h-10.58v20.64q0,3.42,1.36,4.78c.91.91,2.45,1.37,4.61,1.37Z"/></g><g class="cls-2"><path d="M1132.37,243.74a3,3,0,0,1-1.65-3.56l1.94-12.26,9.47-59.95a3.35,3.35,0,0,0-3.16-4H1116.9a3.08,3.08,0,0,0-2.39,1.14l-51.78,61.64a3.15,3.15,0,0,1-2.39,1.14H912.09c-50.91,0-135.21,59.25-135.21,59.25-7.83,5.11-6.76,17.59,1.84,21,19.26,7.66,54,29.1,108.53,29.1h35.58a3.08,3.08,0,0,1,2,.78l63.57,55.79A16.56,16.56,0,0,0,999.35,398h78.85c5.14,0,7.77-6.56,4.21-10.5l-45.47-50.24c-1.78-2-.78-5.46,1.78-5.71a71.83,71.83,0,0,0,12.6-2.24L1149,297.4v-47Z"/></g><g class="cls-2"><polygon points="1183.16 264.27 1166.06 257.36 1166.06 291.8 1183.16 286.2 1183.16 264.27"/></g><ellipse class="cls-1" cx="874.95" cy="275.24" rx="10.32" ry="10.97"/><rect class="cls-1" x="904.82" y="264.27" width="103.74" height="21.94"/><rect class="cls-1" x="1028.11" y="264.27" width="103.74" height="21.94"/><rect class="cls-1" x="1200.26" y="264.27" width="103.74" height="21.94"/></svg>