<svg id="Layer_1" data-name="Layer 1" xmlns="http://www.w3.org/2000/svg" viewBox="0 0 1366 768"><defs><style>.cls-1{opacity:0.5;}.cls-2,.cls-3,.cls-4{fill:none;stroke:#000;stroke-miterlimit:10;}.cls-2,.cls-3{stroke-width:6px;}.cls-3,.cls-4{stroke-linecap:round;}.cls-4{stroke-width:3px;}.cls-5{fill:#ffbc42;}.cls-6{fill:#f3e3d2;}</style></defs><title>all</title><g class="cls-1"><path d="M994.41,350.39a3.67,3.67,0,0,0,3.68-3.67V270.29a3.67,3.67,0,0,0-3.68-3.67H962.83V219.31H949.91V208a22.59,22.59,0,0,0-5.81-37.28,12.63,12.63,0,0,0,3-10.91,12.79,12.79,0,0,0-25.34,2.49,12.68,12.68,0,0,0,3.32,8.52,22.6,22.6,0,0,0,1.46,41.56v6.89H908.72a11.48,11.48,0,0,0-11.48,11.48v35.83H874.68a3.67,3.67,0,0,0-3.68,3.67v76.43a3.67,3.67,0,0,0,3.68,3.67Z"/><line class="cls-2" x1="934.54" y1="335.45" x2="934.54" y2="386.21"/><line class="cls-3" x1="947.88" y1="211.65" x2="982.98" y2="211.65"/><line class="cls-4" x1="976.43" y1="207.82" x2="1008.06" y2="207.82"/><circle cx="1008.06" cy="211.65" r="7.66"/><line class="cls-3" x1="970.23" y1="250.66" x2="989.09" y2="207.9"/><path d="M1131.55,350.39a3.67,3.67,0,0,0,3.68-3.67V270.29a3.67,3.67,0,0,0-3.68-3.67H1100V219.31h-12.91V208a22.63,22.63,0,0,0,5-6.54,26.48,26.48,0,0,0-2.47-36.79,26.75,26.75,0,0,0-35.46,0,26.48,26.48,0,0,0-2.47,36.79,22.67,22.67,0,0,0,12,10.92v6.89h-29.5a11.48,11.48,0,0,0-11.48,11.48v35.83h-10.87a3.67,3.67,0,0,0-3.68,3.67v76.43a3.67,3.67,0,0,0,3.68,3.67Z"/><line class="cls-2" x1="1071.69" y1="335.45" x2="1071.69" y2="386.21"/><line class="cls-3" x1="1085.03" y1="211.65" x2="1120.13" y2="211.65"/><line class="cls-4" x1="1113.57" y1="207.82" x2="1145.2" y2="207.82"/><circle cx="1145.2" cy="211.65" r="7.66"/><line class="cls-3" x1="1107.38" y1="250.66" x2="1126.23" y2="207.9"/><path d="M1268.7,266.62h-31.58V219.31H1224.2V208a22.54,22.54,0,0,0,3.79-29,15.49,15.49,0,0,0,3.51-5c.18-.17.24-.26.11-.28-7.75-.91-14.58-5.21-22.51-5.11H1209a22.63,22.63,0,0,0-8.16,43.73v6.89h-29.49a11.48,11.48,0,0,0-11.48,11.48v35.83H1149a3.67,3.67,0,0,0-3.67,3.67v76.43a3.67,3.67,0,0,0,3.67,3.67H1268.7a3.67,3.67,0,0,0,3.67-3.67V270.29A3.67,3.67,0,0,0,1268.7,266.62Z"/><line class="cls-2" x1="1208.83" y1="335.45" x2="1208.83" y2="386.21"/><path d="M1257.27,219.31h-35.1a7.66,7.66,0,0,1,0-15.32h35.1a7.66,7.66,0,1,1,0,15.32Z"/><path d="M1282.34,211.65h-31.63a3.83,3.83,0,1,1,0-7.66h31.63a3.83,3.83,0,1,1,0,7.66Z"/><circle cx="1282.34" cy="211.65" r="7.66"/><path d="M1244.51,258.32a7.66,7.66,0,0,1-7-10.75l18.86-42.76a7.65,7.65,0,1,1,14,6.17l-18.85,42.77A7.66,7.66,0,0,1,1244.51,258.32Z"/></g><path class="cls-5" d="M412.7,103.77q42.23,25.77,66.63,72t24.39,104.47q0,58.26-24.39,104.75T412.7,457.23Q370.48,483,318.54,483t-94.17-25.77Q182.15,431.48,157.75,385t-24.4-104.75q0-58.25,24.4-104.47t66.62-72Q266.6,78,318.54,78T412.7,103.77ZM261.36,166.51Q236.69,182.2,222.8,211.6t-13.9,68.62q0,39.21,13.9,68.62t38.56,45.09q24.64,15.69,57.18,15.69t57.18-15.69q24.64-15.68,38.56-45.09t13.9-68.62q0-39.2-13.9-68.62t-38.56-45.09q-24.66-15.67-57.18-15.69T261.36,166.51Z"/><g class="cls-1"><path d="M152.09,668a15.61,15.61,0,0,1-6.47,6.33,21.24,21.24,0,0,1-10.08,2.25H122.8V640.76h12.74A21.6,21.6,0,0,1,145.62,643a15.25,15.25,0,0,1,6.47,6.25,20.93,20.93,0,0,1,0,18.8Zm-8.2-.86c2.12-2,3.17-4.87,3.17-8.53s-1.05-6.55-3.17-8.58-5.1-3-9-3h-5v23.2h5Q140.72,670.2,143.89,667.16Z"/><path d="M176.81,649.8a9.15,9.15,0,0,1,3.61,4.52v-5.84h7.1V676.6h-7.1v-5.89a9.31,9.31,0,0,1-3.61,4.55,10.7,10.7,0,0,1-6.09,1.7,12.11,12.11,0,0,1-6.4-1.73,11.67,11.67,0,0,1-4.44-5,19.28,19.28,0,0,1,0-15.38,11.73,11.73,0,0,1,4.44-5,12.11,12.11,0,0,1,6.4-1.73A10.77,10.77,0,0,1,176.81,649.8Zm-9.24,6.75a8.47,8.47,0,0,0-2,6,8.39,8.39,0,0,0,2,6,7.72,7.72,0,0,0,10.74,0,9.43,9.43,0,0,0,0-11.89,7.09,7.09,0,0,0-5.36-2.2A7,7,0,0,0,167.57,656.55Z"/><path d="M218.54,651.27q2.9,3.19,2.89,9V676.6h-7.11V661.07a7.38,7.38,0,0,0-1.72-5.21,6.16,6.16,0,0,0-4.72-1.85,6.33,6.33,0,0,0-4.88,2,8.14,8.14,0,0,0-1.82,5.69V676.6H194V639h7.16v15.07a9,9,0,0,1,3.68-4.44,11,11,0,0,1,5.91-1.6A10,10,0,0,1,218.54,651.27Z"/><path d="M246,655.53v5.94H224.38v-5.94Z"/><path d="M283.57,668a15.61,15.61,0,0,1-6.47,6.33A21.24,21.24,0,0,1,267,676.6H254.28V640.76H267A21.6,21.6,0,0,1,277.1,643a15.25,15.25,0,0,1,6.47,6.25,20.93,20.93,0,0,1,0,18.8Zm-8.2-.86q3.18-3,3.18-8.53t-3.18-8.58q-3.18-3-9-3h-5v23.2h5Q272.2,670.2,275.37,667.16Z"/><path d="M308.29,649.8a9.1,9.1,0,0,1,3.61,4.52v-5.84H319V676.6H311.9v-5.89a9.26,9.26,0,0,1-3.61,4.55,10.7,10.7,0,0,1-6.09,1.7,12.05,12.05,0,0,1-6.39-1.73,11.63,11.63,0,0,1-4.45-5,19.28,19.28,0,0,1,0-15.38,11.68,11.68,0,0,1,4.45-5,12.05,12.05,0,0,1,6.39-1.73A10.77,10.77,0,0,1,308.29,649.8Zm-9.24,6.75a8.47,8.47,0,0,0-2,6,8.39,8.39,0,0,0,2,6,7.72,7.72,0,0,0,10.74,0,9.43,9.43,0,0,0,0-11.89,7.09,7.09,0,0,0-5.36-2.2A7,7,0,0,0,299.05,656.55Z"/><path d="M350,651.27q2.89,3.19,2.89,9V676.6h-7.1V661.07a7.38,7.38,0,0,0-1.73-5.21,6.15,6.15,0,0,0-4.72-1.85,6.29,6.29,0,0,0-4.87,2,8.09,8.09,0,0,0-1.83,5.69V676.6H325.5V639h7.16v15.07a9,9,0,0,1,3.68-4.44,11,11,0,0,1,5.92-1.6A10,10,0,0,1,350,651.27Z"/><path d="M377.43,655.53v5.94H355.86v-5.94Z"/><path d="M415.05,668a15.61,15.61,0,0,1-6.47,6.33,21.24,21.24,0,0,1-10.08,2.25H385.76V640.76H398.5A21.6,21.6,0,0,1,408.58,643a15.25,15.25,0,0,1,6.47,6.25,20.84,20.84,0,0,1,0,18.8Zm-8.2-.86q3.18-3,3.18-8.53t-3.18-8.58q-3.18-3-9-3h-5v23.2h5Q403.68,670.2,406.85,667.16Z"/><path d="M439.77,649.8a9.1,9.1,0,0,1,3.61,4.52v-5.84h7.11V676.6h-7.11v-5.89a9.26,9.26,0,0,1-3.61,4.55,10.7,10.7,0,0,1-6.09,1.7,12.05,12.05,0,0,1-6.39-1.73,11.63,11.63,0,0,1-4.45-5,19.39,19.39,0,0,1,0-15.38,11.68,11.68,0,0,1,4.45-5,12.05,12.05,0,0,1,6.39-1.73A10.77,10.77,0,0,1,439.77,649.8Zm-9.24,6.75a8.47,8.47,0,0,0-2,6,8.39,8.39,0,0,0,2,6,7.72,7.72,0,0,0,10.74,0,9.43,9.43,0,0,0,0-11.89,7.08,7.08,0,0,0-5.36-2.2A7,7,0,0,0,430.53,656.55Z"/><path d="M481.5,651.27q2.89,3.19,2.89,9V676.6h-7.1V661.07a7.38,7.38,0,0,0-1.73-5.21,6.15,6.15,0,0,0-4.72-1.85,6.29,6.29,0,0,0-4.87,2,8.09,8.09,0,0,0-1.83,5.69V676.6H457V639h7.16v15.07a9,9,0,0,1,3.68-4.44,11,11,0,0,1,5.91-1.6A10,10,0,0,1,481.5,651.27Z"/></g><g class="cls-1"><path d="M888,614.85a30.8,30.8,0,0,1,11.71,11.85,36.67,36.67,0,0,1,0,34.42A30.7,30.7,0,0,1,888,673a34.38,34.38,0,0,1-33.08,0,30.7,30.7,0,0,1-11.71-11.89,36.67,36.67,0,0,1,0-34.42,30.8,30.8,0,0,1,11.71-11.85,34.38,34.38,0,0,1,33.08,0Zm-26.59,10.32a17.68,17.68,0,0,0-6.77,7.42,27.24,27.24,0,0,0,0,22.58,17.62,17.62,0,0,0,6.77,7.42,20.77,20.77,0,0,0,20.09,0,17.64,17.64,0,0,0,6.78-7.42,27.34,27.34,0,0,0,0-22.58,17.7,17.7,0,0,0-6.78-7.42,20.84,20.84,0,0,0-20.09,0Z"/><path d="M934.29,627.62a20,20,0,0,1,10.5-2.81v13.91H941q-14.29,0-14.29,13.27V676.6h-13V625.54h13v9.77A21.28,21.28,0,0,1,934.29,627.62Z"/><path d="M991.38,630.24a23.32,23.32,0,0,1,8.25,14.56H985.9a10.58,10.58,0,0,0-3.78-6.4,11.61,11.61,0,0,0-7.47-2.35,11.12,11.12,0,0,0-8.61,3.83q-3.46,3.82-3.46,11.19t3.46,11.2a11.12,11.12,0,0,0,8.61,3.83,11.67,11.67,0,0,0,7.47-2.35,10.6,10.6,0,0,0,3.78-6.41h13.73a23.27,23.27,0,0,1-8.25,14.56q-6.58,5.36-16.45,5.35a27.16,27.16,0,0,1-13.27-3.18,22.37,22.37,0,0,1-9-9.08,31.7,31.7,0,0,1,0-27.88,22,22,0,0,1,9-9.08,27.47,27.47,0,0,1,13.27-3.13Q984.79,624.9,991.38,630.24Z"/><path d="M1053.36,630.61q5.27,5.8,5.26,16.32V676.6h-12.9V648.4c0-4.06-1-7.2-3.14-9.45a11.15,11.15,0,0,0-8.57-3.36,11.48,11.48,0,0,0-8.85,3.59q-3.32,3.6-3.32,10.33V676.6h-13V608.4h13v27.37a16.24,16.24,0,0,1,6.68-8.06,19.86,19.86,0,0,1,10.74-2.9Q1048.11,624.81,1053.36,630.61Z"/><path d="M1117.6,653.56h-37.42q.28,6.83,3.69,10.05a11.85,11.85,0,0,0,8.48,3.22,12.27,12.27,0,0,0,7.51-2.21,9.8,9.8,0,0,0,3.83-6h13.73a22.09,22.09,0,0,1-4.33,9.59,22.8,22.8,0,0,1-8.53,6.63,29.19,29.19,0,0,1-24.84-.78,22.37,22.37,0,0,1-9-9.08,31.7,31.7,0,0,1,0-27.88,22,22,0,0,1,9-9.08A27.5,27.5,0,0,1,1093,624.9a26.9,26.9,0,0,1,13.23,3.13,22.09,22.09,0,0,1,8.76,8.62,25.08,25.08,0,0,1,3.08,12.49A24.32,24.32,0,0,1,1117.6,653.56Zm-15.9-15.21a12.45,12.45,0,0,0-8.71-3.22,12.78,12.78,0,0,0-8.85,3.22q-3.59,3.24-4,9.5H1105Q1105.25,641.58,1101.7,638.35Z"/><path d="M1159.81,629.6a20.33,20.33,0,0,1,7,12.53h-12.17a10.17,10.17,0,0,0-3.31-5.9,10,10,0,0,0-6.73-2.21,7.75,7.75,0,0,0-5.17,1.57,5.31,5.31,0,0,0-1.84,4.24,4.3,4.3,0,0,0,1.48,3.41,10.59,10.59,0,0,0,3.68,2q2.22.74,6.36,1.75a64.23,64.23,0,0,1,9.45,2.72,15.65,15.65,0,0,1,6.27,4.51,12.46,12.46,0,0,1,2.63,8.34,12.88,12.88,0,0,1-5.12,10.6q-5.11,4.06-13.78,4.06-9.94,0-15.94-4.47T1125.35,660h12.44a8.39,8.39,0,0,0,3.31,6,12.08,12.08,0,0,0,7.47,2.16,7.21,7.21,0,0,0,5.07-1.61,5.41,5.41,0,0,0,1.75-4.19,4.66,4.66,0,0,0-1.52-3.6,10.35,10.35,0,0,0-3.78-2.12c-1.5-.49-3.64-1.07-6.4-1.75a72.79,72.79,0,0,1-9.27-2.62,14.78,14.78,0,0,1-6.08-4.29q-2.53-3-2.53-8.11a13.26,13.26,0,0,1,5.07-10.78q5.05-4.15,14-4.15Q1154.19,624.9,1159.81,629.6Z"/><path d="M1204.42,665.45V676.6h-6.82q-8.56,0-13.13-4.15t-4.57-13.82V636.51h-7.09v-11h7.09V612.92h13v12.62h11.43v11H1192.9v22.3q0,3.69,1.47,5.17t5,1.47Z"/><path d="M1234.28,627.62a20,20,0,0,1,10.51-2.81v13.91H1241q-14.28,0-14.28,13.27V676.6h-13V625.54h13v9.77A21.33,21.33,0,0,1,1234.28,627.62Z"/><path d="M1283,627.94a16.57,16.57,0,0,1,6.54,8.2v-10.6h12.91V676.6h-12.91V665.91a16.78,16.78,0,0,1-6.54,8.25,19.39,19.39,0,0,1-11.06,3.09,21.89,21.89,0,0,1-11.61-3.14,21.07,21.07,0,0,1-8.07-9.08,35.05,35.05,0,0,1,0-27.92,21.18,21.18,0,0,1,8.07-9.08A21.89,21.89,0,0,1,1272,624.9,19.6,19.6,0,0,1,1283,627.94Zm-16.78,12.26q-3.69,4-3.68,10.87t3.68,10.83a14,14,0,0,0,19.5-.09q3.83-4,3.82-10.74c0-4.54-1.27-8.16-3.82-10.83a12.87,12.87,0,0,0-9.73-4A12.74,12.74,0,0,0,1266.26,640.2Z"/></g><rect class="cls-5" x="68" y="558.5" width="139.04" height="27.66"/><rect class="cls-5" x="233.25" y="558.5" width="139.04" height="27.66"/><rect class="cls-5" x="399.95" y="558.5" width="139.04" height="27.66"/><rect class="cls-5" x="876.85" y="243.66" width="115.39" height="22.96"/><rect class="cls-6" x="1013.99" y="243.66" width="115.39" height="22.96"/><rect class="cls-5" x="1151.13" y="243.66" width="115.39" height="22.96"/><rect class="cls-5" x="1013.99" y="243.66" width="115.39" height="22.96"/></svg>