<svg id="Layer_1" data-name="Layer 1" xmlns="http://www.w3.org/2000/svg" viewBox="0 0 1366 768"><defs><style>.cls-1{fill:#ffbc42;}.cls-2{opacity:0.5;}.cls-3{fill:none;stroke:#000;stroke-linecap:round;stroke-linejoin:round;stroke-width:6px;}</style></defs><title>all</title><path class="cls-1" d="M371.09,475l-53-63.62a175.06,175.06,0,0,1-42.42,4.82q-47.72,0-86.51-22.17t-61.21-62.17q-22.39-40-22.41-90.12t22.41-89.89q22.42-39.75,61.21-61.93t86.51-22.17q47.71,0,86.51,22.17t61.21,61.93q22.41,39.77,22.41,89.89,0,46.74-19.28,84.58a159.8,159.8,0,0,1-53.49,61L453.5,475ZM187.71,300.78q12.76,25.29,35.42,38.79t52.53,13.5q29.88,0,52.54-13.5t35.42-38.79q12.76-25.3,12.77-59t-12.77-59q-12.78-25.3-35.42-38.8t-52.54-13.5q-29.88,0-52.53,13.5t-35.42,38.8q-12.78,25.31-12.77,59T187.71,300.78Z"/><g class="cls-2"><path d="M142.21,665.35a15,15,0,0,1-6.21,6.07,20.36,20.36,0,0,1-9.67,2.16H114.09v-34.4h12.24A20.72,20.72,0,0,1,136,641.3a14.66,14.66,0,0,1,6.21,6,20,20,0,0,1,0,18.06Zm-7.87-.83q3-2.92,3-8.19c0-3.54-1-6.29-3-8.23s-4.9-2.93-8.6-2.93H121v22.27h4.78Q131.29,667.44,134.34,664.52Z"/><path d="M166,647.85a8.82,8.82,0,0,1,3.46,4.34v-5.61h6.82v27h-6.82v-5.65a8.91,8.91,0,0,1-3.46,4.36,10.28,10.28,0,0,1-5.85,1.64,11.63,11.63,0,0,1-6.14-1.66,11.31,11.31,0,0,1-4.27-4.8,18.59,18.59,0,0,1,0-14.77,11.31,11.31,0,0,1,4.27-4.8,11.62,11.62,0,0,1,6.14-1.65A10.42,10.42,0,0,1,166,647.85Zm-8.88,6.48a8.17,8.17,0,0,0-1.94,5.75,8.06,8.06,0,0,0,1.94,5.73,7.39,7.39,0,0,0,10.31,0,9,9,0,0,0,0-11.4,7.36,7.36,0,0,0-10.31,0Z"/><path d="M206,649.27c1.86,2,2.78,4.92,2.78,8.62v15.69H202V658.67a7.06,7.06,0,0,0-1.66-5,5.89,5.89,0,0,0-4.53-1.78,6.05,6.05,0,0,0-4.68,1.9,7.76,7.76,0,0,0-1.76,5.46v14.32h-6.87V637.52h6.87V652a8.71,8.71,0,0,1,3.54-4.26,10.52,10.52,0,0,1,5.68-1.53A9.53,9.53,0,0,1,206,649.27Z"/><path d="M232.32,653.36v5.7H211.61v-5.7Z"/><path d="M268.43,665.35a14.93,14.93,0,0,1-6.22,6.07,20.33,20.33,0,0,1-9.67,2.16H240.31v-34.4h12.23a20.69,20.69,0,0,1,9.67,2.12,14.63,14.63,0,0,1,6.22,6,20,20,0,0,1,0,18.06Zm-7.87-.83q3-2.92,3-8.19c0-3.54-1-6.29-3-8.23s-4.9-2.93-8.6-2.93h-4.78v22.27H252Q257.51,667.44,260.56,664.52Z"/><path d="M292.16,647.85a8.71,8.71,0,0,1,3.46,4.34v-5.61h6.82v27h-6.82v-5.65a8.8,8.8,0,0,1-3.46,4.36,10.24,10.24,0,0,1-5.85,1.64,11.65,11.65,0,0,1-6.14-1.66,11.22,11.22,0,0,1-4.26-4.8,18.48,18.48,0,0,1,0-14.77,11.22,11.22,0,0,1,4.26-4.8,11.65,11.65,0,0,1,6.14-1.65A10.37,10.37,0,0,1,292.16,647.85Zm-8.87,6.48a8.13,8.13,0,0,0-2,5.75,8,8,0,0,0,2,5.73,7.39,7.39,0,0,0,10.31,0,9.05,9.05,0,0,0,0-11.4,7.36,7.36,0,0,0-10.31,0Z"/><path d="M332.22,649.27c1.86,2,2.78,4.92,2.78,8.62v15.69h-6.82V658.67a7.06,7.06,0,0,0-1.66-5A5.89,5.89,0,0,0,322,651.9a6.05,6.05,0,0,0-4.68,1.9,7.76,7.76,0,0,0-1.76,5.46v14.32h-6.87V637.52h6.87V652a8.71,8.71,0,0,1,3.54-4.26,10.51,10.51,0,0,1,5.67-1.53A9.54,9.54,0,0,1,332.22,649.27Z"/><path d="M358.54,653.36v5.7H337.83v-5.7Z"/><path d="M394.65,665.35a14.93,14.93,0,0,1-6.22,6.07,20.33,20.33,0,0,1-9.67,2.16H366.53v-34.4h12.23a20.69,20.69,0,0,1,9.67,2.12,14.63,14.63,0,0,1,6.22,6,20.12,20.12,0,0,1,0,18.06Zm-7.87-.83q3-2.92,3-8.19c0-3.54-1-6.29-3-8.23s-4.9-2.93-8.6-2.93H373.4v22.27h4.78Q383.73,667.44,386.78,664.52Z"/><path d="M402.35,636.13a5.05,5.05,0,0,1,6.14,0,3.47,3.47,0,0,1,1.17,2.71,3.39,3.39,0,0,1-1.17,2.65,5,5,0,0,1-6.14,0,3.39,3.39,0,0,1-1.17-2.65A3.47,3.47,0,0,1,402.35,636.13Zm6.48,10.45v27H402v-27Z"/><path d="M429.49,667.69v5.89h-3.61q-4.53,0-6.94-2.19t-2.41-7.31v-11.7h-3.75v-5.8h3.75v-6.67h6.87v6.67h6v5.8h-6v11.8a3.81,3.81,0,0,0,.78,2.73,3.64,3.64,0,0,0,2.63.78Z"/><path d="M451.91,653.36v5.7H431.2v-5.7Z"/><path d="M488,665.35a15,15,0,0,1-6.21,6.07,20.4,20.4,0,0,1-9.68,2.16H459.9v-34.4h12.23a20.76,20.76,0,0,1,9.68,2.12,14.66,14.66,0,0,1,6.21,6,20,20,0,0,1,0,18.06Zm-7.87-.83q3-2.92,3.05-8.19c0-3.54-1-6.29-3.05-8.23s-4.9-2.93-8.6-2.93h-4.78v22.27h4.78Q477.1,667.44,480.15,664.52Z"/><path d="M511.75,647.85a8.71,8.71,0,0,1,3.46,4.34v-5.61H522v27h-6.83v-5.65a8.8,8.8,0,0,1-3.46,4.36,10.22,10.22,0,0,1-5.84,1.64,11.69,11.69,0,0,1-6.15-1.66,11.35,11.35,0,0,1-4.26-4.8,18.48,18.48,0,0,1,0-14.77,11.35,11.35,0,0,1,4.26-4.8,11.68,11.68,0,0,1,6.15-1.65A10.36,10.36,0,0,1,511.75,647.85Zm-8.87,6.48a8.17,8.17,0,0,0-1.94,5.75,8.06,8.06,0,0,0,1.94,5.73,7.39,7.39,0,0,0,10.31,0,9.05,9.05,0,0,0,0-11.4,7.36,7.36,0,0,0-10.31,0Z"/><path d="M551.81,649.27c1.86,2,2.78,4.92,2.78,8.62v15.69h-6.82V658.67a7.06,7.06,0,0,0-1.66-5,5.88,5.88,0,0,0-4.53-1.78,6.05,6.05,0,0,0-4.68,1.9,7.76,7.76,0,0,0-1.76,5.46v14.32h-6.87V637.52h6.87V652a8.71,8.71,0,0,1,3.54-4.26,10.52,10.52,0,0,1,5.68-1.53A9.53,9.53,0,0,1,551.81,649.27Z"/></g><g class="cls-2"><path d="M798.28,685l-9.73-11.68a32.12,32.12,0,0,1-7.79.89,31.47,31.47,0,0,1-15.88-4.07,29.38,29.38,0,0,1-11.24-11.42,35.28,35.28,0,0,1,0-33.05,29.5,29.5,0,0,1,11.24-11.36,33,33,0,0,1,31.76,0,29.5,29.5,0,0,1,11.24,11.36A33.07,33.07,0,0,1,812,642.18a33.71,33.71,0,0,1-3.54,15.53,29.31,29.31,0,0,1-9.82,11.19L813.41,685Zm-33.67-32a16.92,16.92,0,0,0,6.51,7.12,20.07,20.07,0,0,0,19.29,0,17,17,0,0,0,6.5-7.12,26.28,26.28,0,0,0,0-21.68,17,17,0,0,0-6.5-7.12,20,20,0,0,0-19.29,0,16.86,16.86,0,0,0-6.51,7.12,26.28,26.28,0,0,0,0,21.68Z"/><path d="M868.27,624.57v49H855.79v-9.91a15.68,15.68,0,0,1-6.41,7.74,19.07,19.07,0,0,1-10.31,2.79q-8.51,0-13.54-5.58t-5-15.57V624.57h12.39v27.07q0,5.85,3,9.07a10.57,10.57,0,0,0,8.14,3.23,11.1,11.1,0,0,0,8.58-3.45q3.2-3.45,3.19-9.91v-26Z"/><path d="M909.41,626.87a15.92,15.92,0,0,1,6.28,7.87V624.57h12.39v49H915.69V663.32a16.08,16.08,0,0,1-6.28,7.92,18.61,18.61,0,0,1-10.62,3,21.1,21.1,0,0,1-11.15-3,20.36,20.36,0,0,1-7.74-8.72,33.6,33.6,0,0,1,0-26.81,20.39,20.39,0,0,1,7.74-8.71,21.1,21.1,0,0,1,11.15-3A18.82,18.82,0,0,1,909.41,626.87ZM893.3,638.64q-3.54,3.81-3.54,10.44t3.54,10.4a13.42,13.42,0,0,0,18.72-.09q3.68-3.85,3.67-10.31T912,638.68a12.37,12.37,0,0,0-9.34-3.85A12.2,12.2,0,0,0,893.3,638.64Z"/><path d="M959.13,626.56a19.27,19.27,0,0,1,10.09-2.7v13.36h-3.63q-13.71,0-13.72,12.74v23.63H939.4v-49h12.47V634A20.5,20.5,0,0,1,959.13,626.56Z"/><path d="M1002.31,662.88v10.71h-6.55q-8.24,0-12.61-4t-4.38-13.28V635.1H972V624.57h6.81V612.45h12.48v12.12h11V635.1h-11v21.41q0,3.54,1.41,5c.94.94,2.54,1.41,4.78,1.41Z"/><path d="M1056.9,651.47H1021q.27,6.54,3.54,9.64a11.37,11.37,0,0,0,8.14,3.1,11.88,11.88,0,0,0,7.22-2.12,9.46,9.46,0,0,0,3.67-5.76h13.18a21,21,0,0,1-4.16,9.2,21.61,21.61,0,0,1-8.18,6.37,28,28,0,0,1-23.85-.75,21.45,21.45,0,0,1-8.67-8.71,27.5,27.5,0,0,1-3.1-13.36,27.78,27.78,0,0,1,3.1-13.41,21.21,21.21,0,0,1,8.67-8.71,26.47,26.47,0,0,1,12.74-3,25.89,25.89,0,0,1,12.7,3,21.16,21.16,0,0,1,8.4,8.27,24.23,24.23,0,0,1,2.53,16.24Zm-15.27-14.6a12,12,0,0,0-8.36-3.1,12.27,12.27,0,0,0-8.49,3.1Q1021.33,640,1021,646h23.81C1045,642,1043.91,638.93,1041.63,636.87Z"/><path d="M1085.92,626.56a19.26,19.26,0,0,1,10.08-2.7v13.36h-3.63q-13.71,0-13.71,12.74v23.63h-12.47v-49h12.47V634A20.5,20.5,0,0,1,1085.92,626.56Z"/><path d="M1143.34,627a20.39,20.39,0,0,1,7.74,8.71,33.6,33.6,0,0,1,0,26.81,20.36,20.36,0,0,1-7.74,8.72,21.13,21.13,0,0,1-11.15,3,18.36,18.36,0,0,1-10.57-3,16.17,16.17,0,0,1-6.24-7.92v10.27H1102.9V608.11h12.48v26.63a16,16,0,0,1,6.24-7.87,18.56,18.56,0,0,1,10.57-2.92A21.13,21.13,0,0,1,1143.34,627ZM1119,638.68q-3.68,3.86-3.67,10.4t3.67,10.31a13.4,13.4,0,0,0,18.71.09q3.54-3.76,3.54-10.4t-3.54-10.44a12.19,12.19,0,0,0-9.38-3.81A12.37,12.37,0,0,0,1119,638.68Z"/><path d="M1192.53,626.87a15.92,15.92,0,0,1,6.28,7.87V624.57h12.39v49h-12.39V663.32a16.08,16.08,0,0,1-6.28,7.92,18.61,18.61,0,0,1-10.62,3,21.13,21.13,0,0,1-11.15-3,20.36,20.36,0,0,1-7.74-8.72,33.71,33.71,0,0,1,0-26.81,20.39,20.39,0,0,1,7.74-8.71,21.13,21.13,0,0,1,11.15-3A18.82,18.82,0,0,1,1192.53,626.87Zm-16.1,11.77q-3.54,3.81-3.54,10.44t3.54,10.4a13.4,13.4,0,0,0,18.71-.09q3.67-3.85,3.67-10.31t-3.67-10.4a12.37,12.37,0,0,0-9.33-3.85A12.19,12.19,0,0,0,1176.43,638.64Z"/><path d="M1260.35,629.08a22.49,22.49,0,0,1,7.92,14h-13.19a10.23,10.23,0,0,0-3.62-6.15,11.18,11.18,0,0,0-7.17-2.25,10.68,10.68,0,0,0-8.27,3.67q-3.33,3.67-3.32,10.75t3.32,10.75a10.68,10.68,0,0,0,8.27,3.67,11.18,11.18,0,0,0,7.17-2.25,10.23,10.23,0,0,0,3.62-6.16h13.19a22.46,22.46,0,0,1-7.92,14q-6.33,5.14-15.79,5.14a26.08,26.08,0,0,1-12.75-3.06,21.45,21.45,0,0,1-8.67-8.71,27.5,27.5,0,0,1-3.09-13.36,27.78,27.78,0,0,1,3.09-13.41,21.21,21.21,0,0,1,8.67-8.71,26.51,26.51,0,0,1,12.75-3Q1254,624,1260.35,629.08Z"/><path d="M1305.78,673.59l-16.19-21.41v21.41h-12.48V608.11h12.48v36.81l16.1-20.35h14.78L1299.85,649l21.15,24.6Z"/></g><circle class="cls-1" cx="415.66" cy="573.49" r="13.28"/><rect class="cls-1" x="243.75" y="560.21" width="133.48" height="26.55" transform="translate(620.98 1146.97) rotate(180)"/><rect class="cls-1" x="454.1" y="560.21" width="133.48" height="26.55" transform="translate(1041.67 1146.97) rotate(180)"/><rect class="cls-1" x="85.12" y="560.21" width="133.48" height="26.55" transform="translate(303.72 1146.97) rotate(180)"/><g class="cls-2"><path d="M983.09,315.52c0,16.51-12.48,22.84-18.62,33.39-11,19-1.82,42.34,12.43,56.47,14.67,14.55,36.72,32.66,64,32.56a81.79,81.79,0,0,0,33-7.45c18.92-8.53,35-20,55.32-26a234.12,234.12,0,0,1,59.19-9.16c13.42-.38,15.58-22.57,17.46-32.15,2.87-14.63,6.63-29.15,8.69-43.91,5.78-41.38,3.92-78.7-19.61-114.75-20.48-31.4-52.11-54.86-87.37-67.19-34.24-12-72.26-14-107.18-3.67-40.37,12-70.17,40.29-92,75.57-5.46,8.85-28,42.91-8.67,48.57L918.56,263C938.2,268.21,983.09,281.05,983.09,315.52Z"/><polyline class="cls-3" points="863.39 345.14 863.39 424.03 920.35 424.03 966.04 278.71"/><line class="cls-3" x1="863.39" y1="392.36" x2="930.31" y2="392.36"/></g><circle class="cls-1" cx="1051.66" cy="345.6" r="7.86"/><rect class="cls-1" x="949.89" y="337.74" width="79.02" height="15.72"/><rect class="cls-1" x="855.98" y="337.74" width="79.02" height="15.72"/><rect class="cls-1" x="1074.42" y="337.74" width="79.02" height="15.72"/></svg>