<svg id="Layer_1" data-name="Layer 1" xmlns="http://www.w3.org/2000/svg" viewBox="0 0 1366 768"><defs><style>.cls-1{fill:#ffbc42;}.cls-2{opacity:0.5;}</style></defs><title>all</title><path class="cls-1" d="M389.2,436.62q-15.79,26.43-46.8,42.4t-75.48,16q-43.88,0-78.39-14.81t-55.29-42.7q-20.78-27.89-23.7-65.06h87.77q2.91,25,20.18,41.54t45.92,16.55q25.74,0,39.5-13.65t13.74-35.14q0-19.19-11.11-31.67a81.43,81.43,0,0,0-28.08-20q-17-7.54-46.81-17.42Q192,299.82,167.46,287.32T125.63,251q-17.26-23.82-17.25-62.16,0-52.86,38.32-83.36T248.2,75q65.52,0,104.44,31.37T396.81,190H307.88q-3.51-22.07-18.72-36.31t-41.55-14.23q-22.8,0-36.85,11.91t-14,34.56q0,18,10.82,29.92T235,235.33q16.68,7.56,45.34,16.85,39.78,13.95,64.65,26.14t42.41,36.6Q405,339.31,405,378.82A110.62,110.62,0,0,1,389.2,436.62Z"/><g class="cls-2"><path d="M140.42,677.74a15.67,15.67,0,0,1-6.5,6.35,21.26,21.26,0,0,1-10.12,2.27H111v-36h12.8a21.62,21.62,0,0,1,10.12,2.22,15.37,15.37,0,0,1,6.5,6.27,21,21,0,0,1,0,18.89Zm-8.24-.87q3.19-3.06,3.19-8.56t-3.19-8.62q-3.18-3.06-9-3.06h-5v23.3h5Q129,679.93,132.18,676.87Z"/><path d="M148.47,647.17a5.29,5.29,0,0,1,6.43,0,3.65,3.65,0,0,1,1.22,2.83,3.57,3.57,0,0,1-1.22,2.78,5.25,5.25,0,0,1-6.43,0,3.57,3.57,0,0,1-1.22-2.78A3.65,3.65,0,0,1,148.47,647.17Zm6.78,10.94v28.25h-7.18V658.11Z"/><path d="M176.87,680.19v6.17H173.1q-4.74,0-7.26-2.3t-2.53-7.65V664.18h-3.93v-6.07h3.93v-7h7.19v7h6.32v6.07H170.5v12.34a4,4,0,0,0,.81,2.85,3.81,3.81,0,0,0,2.76.82Z"/><path d="M211.44,665.2v6H189.77v-6Z"/><path d="M260.33,677.74a15.61,15.61,0,0,1-6.5,6.35,21.26,21.26,0,0,1-10.12,2.27h-12.8v-36h12.8a21.62,21.62,0,0,1,10.12,2.22,15.32,15.32,0,0,1,6.5,6.27,20.95,20.95,0,0,1,0,18.89Zm-8.23-.87q3.18-3.06,3.18-8.56t-3.18-8.62c-2.13-2-5.12-3.06-9-3.06h-5v23.3h5C247,679.93,250,678.91,252.1,676.87Z"/><path d="M268.39,647.17a5.27,5.27,0,0,1,6.42,0A3.62,3.62,0,0,1,276,650a3.55,3.55,0,0,1-1.23,2.78,5.23,5.23,0,0,1-6.42,0,3.54,3.54,0,0,1-1.22-2.78A3.62,3.62,0,0,1,268.39,647.17Zm6.78,10.94v28.25H268V658.11Z"/><path d="M296.79,680.19v6.17H293q-4.74,0-7.26-2.3c-1.68-1.53-2.53-4.08-2.53-7.65V664.18H279.3v-6.07h3.92v-7h7.19v7h6.33v6.07h-6.33v12.34a3.93,3.93,0,0,0,.82,2.85,3.77,3.77,0,0,0,2.75.82Z"/><path d="M331.36,665.2v6H309.69v-6Z"/><path d="M380.25,677.74a15.67,15.67,0,0,1-6.5,6.35,21.26,21.26,0,0,1-10.12,2.27h-12.8v-36h12.8a21.62,21.62,0,0,1,10.12,2.22,15.37,15.37,0,0,1,6.5,6.27,21,21,0,0,1,0,18.89Zm-8.24-.87q3.19-3.06,3.19-8.56T372,659.69q-3.18-3.06-9-3.06h-5v23.3h5Q368.83,679.93,372,676.87Z"/><path d="M388.3,647.17a5.29,5.29,0,0,1,6.43,0A3.62,3.62,0,0,1,396,650a3.54,3.54,0,0,1-1.22,2.78,5.25,5.25,0,0,1-6.43,0,3.57,3.57,0,0,1-1.22-2.78A3.65,3.65,0,0,1,388.3,647.17Zm6.79,10.94v28.25H387.9V658.11Z"/><path d="M416.7,680.19v6.17h-3.77q-4.74,0-7.26-2.3t-2.53-7.65V664.18h-3.92v-6.07h3.92v-7h7.19v7h6.32v6.07h-6.32v12.34a4,4,0,0,0,.81,2.85,3.81,3.81,0,0,0,2.76.82Z"/></g><circle class="cls-1" cx="316.8" cy="581.63" r="13.89"/><circle class="cls-1" cx="262.7" cy="581.63" r="13.89"/><circle class="cls-1" cx="208.6" cy="581.63" r="13.89"/><g class="cls-2"><path d="M822.68,677.7a17.83,17.83,0,0,1-7.4,6.75A25.63,25.63,0,0,1,803.34,687a30.81,30.81,0,0,1-12.4-2.36,20.9,20.9,0,0,1-8.75-6.8,19.56,19.56,0,0,1-3.75-10.37h13.88a10.59,10.59,0,0,0,3.2,6.62,10,10,0,0,0,7.26,2.64,8.46,8.46,0,0,0,6.25-2.18,7.59,7.59,0,0,0,2.18-5.6,7.32,7.32,0,0,0-1.76-5,13,13,0,0,0-4.44-3.2c-1.79-.8-4.26-1.73-7.41-2.77a74.47,74.47,0,0,1-10-4,18.43,18.43,0,0,1-6.61-5.79q-2.75-3.79-2.74-9.9,0-8.43,6.07-13.29t16.06-4.86q10.36,0,16.52,5a18.9,18.9,0,0,1,7,13.33H809.82a9.81,9.81,0,0,0-3-5.78,9.23,9.23,0,0,0-6.58-2.27,8.65,8.65,0,0,0-5.83,1.9,7.73,7.73,0,0,0-.51,10.27,12.93,12.93,0,0,0,4.35,3.1,69.73,69.73,0,0,0,7.18,2.69,97.79,97.79,0,0,1,10.23,4.16,18.08,18.08,0,0,1,6.71,5.83q2.77,3.9,2.78,10.19A17.7,17.7,0,0,1,822.68,677.7Z"/><path d="M883.87,635.07v51.28h-13V676a16.43,16.43,0,0,1-6.71,8.1A20,20,0,0,1,853.32,687q-8.88,0-14.16-5.83t-5.27-16.29V635.07h13V663.4q0,6.11,3.15,9.48a11.06,11.06,0,0,0,8.52,3.38,11.6,11.6,0,0,0,9-3.61q3.35-3.6,3.34-10.36V635.07Z"/><path d="M938,637.57a21.23,21.23,0,0,1,8.1,9.12,35.12,35.12,0,0,1,0,28,21.12,21.12,0,0,1-8.1,9.12A22,22,0,0,1,926.36,687a19.23,19.23,0,0,1-11.06-3.1,17,17,0,0,1-6.53-8.29v10.74h-13v-68.5h13v27.87a16.67,16.67,0,0,1,6.53-8.24,19.44,19.44,0,0,1,11.06-3.06A22,22,0,0,1,938,637.57Zm-25.5,12.27q-3.84,4-3.84,10.87t3.84,10.79a14,14,0,0,0,19.58.09q3.69-3.93,3.7-10.88t-3.7-10.92a12.75,12.75,0,0,0-9.82-4A12.88,12.88,0,0,0,912.52,649.84Z"/><path d="M1038.32,640.12q5.42,5.77,5.41,16.43v29.8h-13V658q0-5.92-3-9.12a10.8,10.8,0,0,0-8.28-3.19,11.42,11.42,0,0,0-8.7,3.42q-3.24,3.42-3.24,10v27.21h-13V658q0-5.92-3-9.12a10.83,10.83,0,0,0-8.28-3.19,11.42,11.42,0,0,0-8.71,3.42q-3.24,3.42-3.24,10v27.21H958.29V635.07h13.05v9.72a15.94,15.94,0,0,1,6.44-7.73A19,19,0,0,1,988,634.33a19.45,19.45,0,0,1,10.78,3,18.23,18.23,0,0,1,6.9,8.52,19.35,19.35,0,0,1,17.86-11.48Q1032.9,634.33,1038.32,640.12Z"/><path d="M1086.41,637.48a16.64,16.64,0,0,1,6.57,8.24V635.07h13v51.28h-13V675.61a16.94,16.94,0,0,1-6.57,8.29,19.51,19.51,0,0,1-11.11,3.1,22,22,0,0,1-11.67-3.15,21.24,21.24,0,0,1-8.1-9.12,35.23,35.23,0,0,1,0-28,21.36,21.36,0,0,1,8.1-9.12,22,22,0,0,1,11.67-3.15A19.72,19.72,0,0,1,1086.41,637.48Zm-16.85,12.31q-3.7,4-3.7,10.92t3.7,10.88a14,14,0,0,0,19.58-.09q3.84-4,3.84-10.79t-3.84-10.87a12.9,12.9,0,0,0-9.77-4A12.73,12.73,0,0,0,1069.56,649.79Z"/><path d="M1138.43,637.15a20.15,20.15,0,0,1,10.55-2.82v14h-3.79q-14.36,0-14.35,13.33v24.71h-13.06V635.07h13.06v9.81A21.47,21.47,0,0,1,1138.43,637.15Z"/><path d="M1156.94,615.21a9.55,9.55,0,0,1,11.67,0,6.62,6.62,0,0,1,2.22,5.14,6.52,6.52,0,0,1-2.22,5,9.55,9.55,0,0,1-11.67,0,6.49,6.49,0,0,1-2.22-5A6.59,6.59,0,0,1,1156.94,615.21Zm12.31,19.86v51.28h-13V635.07Z"/><path d="M1225.81,640.16q5.28,5.83,5.28,16.39v29.8h-13V658q0-6.12-3.15-9.49a11.21,11.21,0,0,0-8.61-3.38,11.49,11.49,0,0,0-8.88,3.61q-3.35,3.62-3.34,10.37v27.21H1181.1V635.07h13.05v10.27a16.37,16.37,0,0,1,6.71-8.09,19.91,19.91,0,0,1,10.79-2.92Q1220.53,634.33,1225.81,640.16Z"/><path d="M1290.33,663.21h-37.58q.27,6.85,3.7,10.09a11.91,11.91,0,0,0,8.52,3.24,12.37,12.37,0,0,0,7.54-2.22,9.89,9.89,0,0,0,3.84-6h13.79a22.11,22.11,0,0,1-4.35,9.63,22.74,22.74,0,0,1-8.56,6.67,29.39,29.39,0,0,1-25-.79,22.44,22.44,0,0,1-9.07-9.12,31.87,31.87,0,0,1,0-28,22.08,22.08,0,0,1,9.07-9.12,27.63,27.63,0,0,1,13.33-3.15,27,27,0,0,1,13.29,3.15,22.24,22.24,0,0,1,8.79,8.65,25.14,25.14,0,0,1,3.1,12.55A25.45,25.45,0,0,1,1290.33,663.21Zm-16-15.27a12.53,12.53,0,0,0-8.75-3.24,12.83,12.83,0,0,0-8.89,3.24q-3.6,3.24-4,9.53h24.9Q1277.92,651.17,1274.36,647.94Z"/></g><g class="cls-2"><g id="vEh7XF"><path d="M1078,228.84h55.42a3.41,3.41,0,0,1,3.41,3.41v20.13a0,0,0,0,1,0,0H1074.6a0,0,0,0,1,0,0V232.25A3.41,3.41,0,0,1,1078,228.84Z"/><path d="M1132.76,175.36h59.79a1.24,1.24,0,0,1,1.24,1.24v18.89a3.41,3.41,0,0,1-3.41,3.41h-55.43a3.41,3.41,0,0,1-3.41-3.41V176.59A1.24,1.24,0,0,1,1132.76,175.36Z" transform="translate(1349.79 -975.53) rotate(90)"/><path d="M1117.53,240.7H1094V215.46c0-25.11,15.91-40.1,42.54-40.1h26.23V198.9h-26.23c-15.76,0-19,6.62-19,16.56Z"/><path d="M1155.46,268.08h-84.08c-18.58,0-35.89,4-52.15,13C1000.78,291.27,962.48,312,947.74,320l-9.63-30.56A11.64,11.64,0,0,0,927,281.29H873.11a4.11,4.11,0,0,0-3.92,5.35l17.19,54.62a4.37,4.37,0,0,0,4.16,3.05h49.52a7.85,7.85,0,1,1,0,15.7H864.23a15.7,15.7,0,0,0,0,31.39h18.19l-13.23,42a4.1,4.1,0,0,0,3.92,5.34H927a11.65,11.65,0,0,0,11.11-8.15l9.7-30.79c22.42,12.44,55.2,30.91,71.41,38.59,12.41,5.88,24.87,12.44,39.44,12.44,32.43,0,65.84-.18,96.8-.18,47.36,0,81.23-44,81.29-90.84C1236.81,314.39,1202.84,268.08,1155.46,268.08Z"/></g></g><circle class="cls-1" cx="1105.76" cy="361.11" r="17.17"/><circle class="cls-1" cx="1172.63" cy="361.11" r="17.17"/><circle class="cls-1" cx="1038.89" cy="361.11" r="17.17"/></svg>