<svg id="Layer_1" data-name="Layer 1" xmlns="http://www.w3.org/2000/svg" viewBox="0 0 1366 768"><defs><style>.cls-1{fill:#ffbc42;}.cls-2{opacity:0.5;}</style></defs><title>all</title><path class="cls-1" d="M196.67,89.38V312.13q0,44.65,19.64,67t56.76,22.33q36.58,0,56.22-22.33t19.64-67V89.38h75.33V312.13q0,52.74-19.64,89t-54.34,54.07Q315.57,473,271.45,473q-68.32,0-109.21-40.89t-40.89-120V89.38Z"/><g class="cls-2"><path d="M161.28,659.8a13.94,13.94,0,0,1-5.76,5.62,18.78,18.78,0,0,1-9,2H135.23V635.55h11.33a19.14,19.14,0,0,1,9,2,13.56,13.56,0,0,1,5.76,5.56,18.58,18.58,0,0,1,0,16.73ZM154,659a10,10,0,0,0,2.82-7.59q0-4.92-2.82-7.63c-1.88-1.8-4.54-2.71-8-2.71h-4.43v20.64H146C149.45,661.74,152.11,660.83,154,659Z"/><path d="M168.41,632.73a4.66,4.66,0,0,1,5.69,0,3.38,3.38,0,0,1,0,5,4.7,4.7,0,0,1-5.69,0,3.4,3.4,0,0,1,0-5Zm6,9.68v25h-6.37v-25Z"/><path d="M193.56,662v5.46h-3.34q-4.2,0-6.43-2c-1.5-1.35-2.24-3.61-2.24-6.77V647.78h-3.48v-5.37h3.48v-6.18h6.37v6.18h5.59v5.37h-5.59v10.93a3.52,3.52,0,0,0,.72,2.53,3.37,3.37,0,0,0,2.44.72Z"/><path d="M214.33,648.69V654H195.14v-5.28Z"/><path d="M247.79,659.8a14,14,0,0,1-5.76,5.62,18.78,18.78,0,0,1-9,2H221.73V635.55h11.34a19.14,19.14,0,0,1,9,2,13.62,13.62,0,0,1,5.76,5.56,18.66,18.66,0,0,1,0,16.73Zm-7.3-.77a10,10,0,0,0,2.83-7.59c0-3.28-.95-5.82-2.83-7.63s-4.54-2.71-8-2.71H228.1v20.64h4.43C236,661.74,238.61,660.83,240.49,659Z"/><path d="M254.92,632.73a4.66,4.66,0,0,1,5.69,0,3.4,3.4,0,0,1,0,5,4.7,4.7,0,0,1-5.69,0,3.38,3.38,0,0,1,0-5Zm6,9.68v25h-6.36v-25Z"/><path d="M280.07,662v5.46h-3.34q-4.2,0-6.44-2t-2.23-6.77V647.78h-3.48v-5.37h3.48v-6.18h6.36v6.18H280v5.37h-5.6v10.93a3.52,3.52,0,0,0,.72,2.53,3.4,3.4,0,0,0,2.44.72Z"/><path d="M300.83,648.69V654H281.65v-5.28Z"/><path d="M334.29,659.8a13.88,13.88,0,0,1-5.76,5.62,18.78,18.78,0,0,1-9,2H308.24V635.55h11.33a19.14,19.14,0,0,1,9,2,13.51,13.51,0,0,1,5.76,5.56,18.58,18.58,0,0,1,0,16.73ZM327,659a10,10,0,0,0,2.82-7.59q0-4.92-2.82-7.63c-1.88-1.8-4.54-2.71-8-2.71h-4.42v20.64H319C322.46,661.74,325.12,660.83,327,659Z"/><path d="M356.28,643.59a8.18,8.18,0,0,1,3.21,4v-5.19h6.32v25h-6.32v-5.23a8.3,8.3,0,0,1-3.21,4,9.5,9.5,0,0,1-5.42,1.51,10.78,10.78,0,0,1-5.69-1.53,10.47,10.47,0,0,1-3.95-4.45,17.18,17.18,0,0,1,0-13.68,10.47,10.47,0,0,1,3.95-4.45,10.78,10.78,0,0,1,5.69-1.53A9.65,9.65,0,0,1,356.28,643.59Zm-8.22,6a8.76,8.76,0,0,0,0,10.64,6.86,6.86,0,0,0,9.55-.05,8.37,8.37,0,0,0,0-10.57,6.3,6.3,0,0,0-4.76-2A6.2,6.2,0,0,0,348.06,649.59Z"/><path d="M393.39,644.89c1.72,1.9,2.58,4.56,2.58,8v14.53h-6.32V653.61a6.55,6.55,0,0,0-1.54-4.63,5.45,5.45,0,0,0-4.2-1.65,5.59,5.59,0,0,0-4.33,1.77,7.13,7.13,0,0,0-1.63,5v13.27h-6.36V634H378v13.41a8,8,0,0,1,3.27-3.95,9.76,9.76,0,0,1,5.27-1.42A8.86,8.86,0,0,1,393.39,644.89Z"/></g><g class="cls-2"><path d="M877.16,608.55v33.94q0,6.81,3,10.21t8.65,3.4c3.72,0,6.57-1.14,8.57-3.4s3-5.67,3-10.21V608.55h11.47v33.94a28.15,28.15,0,0,1-3,13.57,19.23,19.23,0,0,1-8.28,8.23,25.86,25.86,0,0,1-12,2.71q-10.42,0-16.64-6.23t-6.24-18.28V608.55Z"/><path d="M961.59,625.52q4.68,5.18,4.68,14.51v26.4H954.79V641.34c0-3.6-.93-6.41-2.79-8.4a9.93,9.93,0,0,0-7.62-3,10.23,10.23,0,0,0-7.87,3.19q-3,3.21-3,9.19v24.1H922V621h11.56v9.1a14.44,14.44,0,0,1,5.94-7.17,17.67,17.67,0,0,1,9.55-2.58Q956.93,620.36,961.59,625.52Z"/><path d="M977.08,603.43a8.46,8.46,0,0,1,10.33,0,5.81,5.81,0,0,1,2,4.55,5.73,5.73,0,0,1-2,4.47,8.46,8.46,0,0,1-10.33,0,5.75,5.75,0,0,1-2-4.47A5.83,5.83,0,0,1,977.08,603.43ZM988,621v45.42H976.43V621Z"/><path d="M1033.52,625.19a20.8,20.8,0,0,1,7.34,13h-12.22a9.4,9.4,0,0,0-3.36-5.7,10.28,10.28,0,0,0-6.64-2.09,9.89,9.89,0,0,0-7.66,3.4q-3.08,3.4-3.07,10t3.07,10a9.89,9.89,0,0,0,7.66,3.4,10.28,10.28,0,0,0,6.64-2.09,9.4,9.4,0,0,0,3.36-5.7h12.22a20.75,20.75,0,0,1-7.34,13q-5.87,4.75-14.63,4.76a24.09,24.09,0,0,1-11.8-2.83,19.78,19.78,0,0,1-8-8.07,28.22,28.22,0,0,1,0-24.8,19.54,19.54,0,0,1,8-8.07,24.4,24.4,0,0,1,11.8-2.79Q1027.67,620.44,1033.52,625.19Z"/><path d="M1082,623.23a20.42,20.42,0,0,1,8.31,8.07,26.81,26.81,0,0,1,0,24.8,20.68,20.68,0,0,1-8.31,8.07,26.56,26.56,0,0,1-23.86,0,20.7,20.7,0,0,1-8.32-8.07,26.89,26.89,0,0,1,0-24.8,20.45,20.45,0,0,1,8.32-8.07,26.9,26.9,0,0,1,23.86,0Zm-20.13,10.61q-3.36,3.4-3.36,9.88t3.36,9.88a11.59,11.59,0,0,0,16.4,0q3.36-3.4,3.36-9.88t-3.36-9.88a11.59,11.59,0,0,0-16.4,0Z"/><path d="M1119.79,622.86a17.86,17.86,0,0,1,9.35-2.5v12.38h-3.36q-12.71,0-12.71,11.8v21.89h-11.55V621h11.55v8.69A19.08,19.08,0,0,1,1119.79,622.86Z"/><path d="M1175.13,625.52q4.66,5.18,4.67,14.51v26.4h-11.48V641.34c0-3.6-.93-6.41-2.78-8.4a9.93,9.93,0,0,0-7.63-3,10.23,10.23,0,0,0-7.87,3.19q-3,3.21-3,9.19v24.1h-11.55V621h11.55v9.1a14.44,14.44,0,0,1,5.94-7.17,17.71,17.71,0,0,1,9.56-2.58Q1170.45,620.36,1175.13,625.52Z"/></g><circle class="cls-1" cx="217.11" cy="564.69" r="12.3"/><circle class="cls-1" cx="169.2" cy="564.69" r="12.3"/><rect class="cls-1" x="252.72" y="552.38" width="123.66" height="24.6"/><g class="cls-2"><path d="M1161.61,371.8l-41-124.79s-2.95-7.56-4.08-10.07c-.12-.28-.26-.54-.39-.81,14.52,2.63,18.77-7.84,19.2-10.24.23-1.25-.78-2.19-2.55-2.52-14.79-2.67-24.19-11.75-39.52-21.42,2.09-15.69-.78-39.55-1.87-47.57a2.38,2.38,0,0,0-3.17-1.93c-14.93,5.47-23,26.27-26.91,41.7a41.86,41.86,0,0,0-13.54,5.45c2.42-15.23-.52-40.64-1.63-49.07a2.37,2.37,0,0,0-3.21-1.92c-16.76,7-26.32,40.58-29.29,57,0,0-14-15.78-44.24.84C944.17,220.32,927.61,223,917,221.82a2.12,2.12,0,0,0-1.76,3.62,52.43,52.43,0,0,0,34.8,14.78C928,246.17,920.34,254,903.33,264.86c-19.23,12.31-45.69,16.53-56.56,13a2.13,2.13,0,0,0-2.36,3.3c5.15,8.49,14.52,28,57.73,16.09,0,0-31.81,50.9-63.82,54.37-2,.22-2.4,2.4-1,3.87,6.68,7.18,17.65,16.71,38.16,20.42C976,394.08,946.16,439,1019,452.13l16-88.36c-.18,0-.36,0-.54,0-3.67-.67-53.66-19.28-55-73.33a3.27,3.27,0,0,1,6.53-.16c.45,18.39,11.31,36.74,26.9,48.35A82.08,82.08,0,0,0,1037.27,351c38.16,6.9,45,38.8,60,55.54.22.26.46.5.69.75l.3.34h0a37.44,37.44,0,0,0,64.58-18.54A33.83,33.83,0,0,0,1161.61,371.8Z"/></g><circle class="cls-1" cx="1106.81" cy="280.2" r="11.79"/><rect class="cls-1" x="1114.45" y="222.6" width="108.36" height="21.56" transform="matrix(0.93, -0.36, 0.36, 0.93, -4.56, 442.62)"/><circle class="cls-1" cx="1067.72" cy="290.74" r="11.79"/></svg>