<svg id="Layer_1" data-name="Layer 1" xmlns="http://www.w3.org/2000/svg" viewBox="0 0 1366 768"><defs><style>.cls-1{opacity:0.5;}.cls-2{fill:none;}.cls-3{fill:#ffbc42;}</style></defs><title>all</title><g class="cls-1"><path d="M1244.87,211.93h0a17.48,17.48,0,0,0-13.21-17.63,17.11,17.11,0,0,0-4.23-.51l0,0h-9.89a4.93,4.93,0,0,0-4.78,3.7l-36.13,139.86a7,7,0,0,0,5.59,8.58l22.22,3.67c.26.05.53.1.79.13l.26.05,0,0a26.78,26.78,0,0,0,29.28-20,27.39,27.39,0,0,0,.64-3.87l0,0,9.4-113.41C1244.84,212.23,1244.86,212.08,1244.87,211.93Z"/><path d="M1072.51,345.79h-43.6a28.58,28.58,0,0,0-28.58,28.57V406h144.36C1144.69,372.75,1112.37,345.79,1072.51,345.79Z"/><path class="cls-2" d="M1072.51,345.79h-43.6a28.58,28.58,0,0,0-28.58,28.57V406h144.36C1144.69,372.75,1112.37,345.79,1072.51,345.79Z"/><path d="M1248.09,163h-70.48a8.57,8.57,0,0,0-8.3,6.43l-45.53,176.81a78,78,0,0,1,28.06,30.5l27.49-106.57,23.55-91.29h45.66a7.93,7.93,0,0,0,7.93-8.36A8.24,8.24,0,0,0,1248.09,163Z"/></g><path class="cls-3" d="M173.25,95,274.43,394.29,376.16,95H457L323.16,473h-96.9L92.41,95Z"/><g class="cls-1"><path d="M135.11,661.46a14.38,14.38,0,0,1-6,5.85,19.47,19.47,0,0,1-9.33,2.09H108V636.23h11.79a20,20,0,0,1,9.33,2,14.11,14.11,0,0,1,6,5.78,19.34,19.34,0,0,1,0,17.41Zm-7.58-.8q2.92-2.82,2.93-7.9t-2.93-7.93q-2.94-2.82-8.3-2.82h-4.6v21.47h4.6Q124.59,663.48,127.53,660.66Z"/><path d="M142.54,633.29a4.84,4.84,0,0,1,5.92,0,3.36,3.36,0,0,1,1.13,2.61,3.29,3.29,0,0,1-1.13,2.56,4.84,4.84,0,0,1-5.92,0,3.29,3.29,0,0,1-1.13-2.56A3.36,3.36,0,0,1,142.54,633.29Zm6.25,10.08v26h-6.63v-26Z"/><path d="M168.71,663.71v5.69h-3.48c-2.91,0-5.14-.71-6.69-2.11s-2.33-3.76-2.33-7V649h-3.62v-5.59h3.62v-6.44h6.63v6.44h5.83V649h-5.83v11.38a3.65,3.65,0,0,0,.75,2.62,3.48,3.48,0,0,0,2.54.75Z"/><path d="M190.33,649.9v5.5h-20v-5.5Z"/><path d="M225.14,661.46a14.38,14.38,0,0,1-6,5.85,19.47,19.47,0,0,1-9.33,2.09H198V636.23h11.79a20,20,0,0,1,9.33,2,14.11,14.11,0,0,1,6,5.78,19.34,19.34,0,0,1,0,17.41Zm-7.58-.8q2.92-2.82,2.93-7.9t-2.93-7.93q-2.94-2.82-8.3-2.82h-4.6v21.47h4.6Q214.62,663.48,217.56,660.66Z"/><path d="M232.57,633.29a4.84,4.84,0,0,1,5.92,0,3.36,3.36,0,0,1,1.13,2.61,3.29,3.29,0,0,1-1.13,2.56,4.84,4.84,0,0,1-5.92,0,3.29,3.29,0,0,1-1.13-2.56A3.36,3.36,0,0,1,232.57,633.29Zm6.25,10.08v26h-6.63v-26Z"/><path d="M258.74,663.71v5.69h-3.48c-2.91,0-5.14-.71-6.69-2.11s-2.33-3.76-2.33-7V649h-3.62v-5.59h3.62v-6.44h6.63v6.44h5.83V649h-5.83v11.38a3.65,3.65,0,0,0,.75,2.62,3.48,3.48,0,0,0,2.54.75Z"/><path d="M280.36,649.9v5.5h-20v-5.5Z"/><path d="M315.18,661.46a14.41,14.41,0,0,1-6,5.85,19.46,19.46,0,0,1-9.32,2.09h-11.8V636.23h11.8a19.93,19.93,0,0,1,9.32,2,14.13,14.13,0,0,1,6,5.78,19.34,19.34,0,0,1,0,17.41Zm-7.59-.8q2.93-2.82,2.93-7.9t-2.93-7.93c-2-1.88-4.72-2.82-8.3-2.82h-4.6v21.47h4.6C302.87,663.48,305.63,662.54,307.59,660.66Z"/><path d="M322.6,633.29a4.84,4.84,0,0,1,5.92,0,3.36,3.36,0,0,1,1.13,2.61,3.29,3.29,0,0,1-1.13,2.56,4.84,4.84,0,0,1-5.92,0,3.29,3.29,0,0,1-1.13-2.56A3.36,3.36,0,0,1,322.6,633.29Zm6.25,10.08v26h-6.63v-26Z"/><path d="M348.77,663.71v5.69h-3.48c-2.91,0-5.14-.71-6.69-2.11s-2.33-3.76-2.33-7V649h-3.62v-5.59h3.62v-6.44h6.63v6.44h5.83V649H342.9v11.38a3.65,3.65,0,0,0,.75,2.62,3.48,3.48,0,0,0,2.54.75Z"/><path d="M370.39,649.9v5.5h-20v-5.5Z"/><path d="M405.21,661.46a14.41,14.41,0,0,1-6,5.85,19.46,19.46,0,0,1-9.32,2.09h-11.8V636.23h11.8a19.93,19.93,0,0,1,9.32,2,14.13,14.13,0,0,1,6,5.78,19.34,19.34,0,0,1,0,17.41Zm-7.59-.8q2.92-2.82,2.93-7.9t-2.93-7.93c-2-1.88-4.72-2.82-8.3-2.82h-4.6v21.47h4.6C392.9,663.48,395.66,662.54,397.62,660.66Z"/><path d="M428.09,644.59a8.48,8.48,0,0,1,3.34,4.18v-5.4H438v26h-6.58V664a8.49,8.49,0,0,1-3.34,4.2,9.81,9.81,0,0,1-5.64,1.58,11.16,11.16,0,0,1-5.92-1.6,10.76,10.76,0,0,1-4.11-4.63,17.84,17.84,0,0,1,0-14.23,10.87,10.87,0,0,1,4.11-4.63,11.16,11.16,0,0,1,5.92-1.6A10,10,0,0,1,428.09,644.59Zm-8.55,6.25a7.84,7.84,0,0,0-1.88,5.54,7.75,7.75,0,0,0,1.88,5.53,6.51,6.51,0,0,0,5,2,6.57,6.57,0,0,0,5-2,8.73,8.73,0,0,0,0-11,6.57,6.57,0,0,0-5-2A6.46,6.46,0,0,0,419.54,650.84Z"/><path d="M466.72,646q2.67,3,2.67,8.32V669.4h-6.57V655a6.86,6.86,0,0,0-1.6-4.82,5.73,5.73,0,0,0-4.37-1.71,5.87,5.87,0,0,0-4.51,1.83,7.47,7.47,0,0,0-1.69,5.26V669.4H444V634.63h6.63v14a8.3,8.3,0,0,1,3.4-4.12,10.19,10.19,0,0,1,5.48-1.48A9.23,9.23,0,0,1,466.72,646Z"/></g><circle class="cls-3" cx="261.99" cy="567.88" r="12.8"/><circle class="cls-3" cx="162.26" cy="567.88" r="12.8"/><circle class="cls-3" cx="212.13" cy="567.88" r="12.8"/><rect class="cls-3" x="299.05" y="555.08" width="128.7" height="25.6"/><g class="cls-1"><path d="M886.57,609.17l16.12,47.69,16.21-47.69h12.88L910.45,669.4H895l-21.33-60.23Z"/><path d="M967,624.36a15.27,15.27,0,0,1,6.06,7.59v-9.81H985V669.4H973.07v-9.89a15.49,15.49,0,0,1-6.06,7.63A17.9,17.9,0,0,1,956.78,670,20.33,20.33,0,0,1,946,667.1a19.53,19.53,0,0,1-7.47-8.4,32.4,32.4,0,0,1,0-25.85,19.61,19.61,0,0,1,7.47-8.41,20.33,20.33,0,0,1,10.75-2.9A18.11,18.11,0,0,1,967,624.36Zm-15.52,11.35q-3.42,3.66-3.42,10.06t3.42,10a12.93,12.93,0,0,0,18-.09q3.54-3.71,3.54-9.94t-3.54-10a11.88,11.88,0,0,0-9-3.71A11.74,11.74,0,0,0,951.49,635.71Z"/><path d="M1032.41,626.49A21.62,21.62,0,0,1,1040,640h-12.71a9.82,9.82,0,0,0-3.5-5.93,10.73,10.73,0,0,0-6.91-2.17,10.28,10.28,0,0,0-8,3.54q-3.21,3.54-3.2,10.36t3.2,10.37a10.28,10.28,0,0,0,8,3.54,10.74,10.74,0,0,0,6.91-2.18,9.79,9.79,0,0,0,3.5-5.93H1040a21.6,21.6,0,0,1-7.63,13.48q-6.11,5-15.23,5a25.21,25.21,0,0,1-12.29-2.94,20.71,20.71,0,0,1-8.36-8.41,29.41,29.41,0,0,1,0-25.8,20.41,20.41,0,0,1,8.36-8.41,25.53,25.53,0,0,1,12.29-2.9Q1026.3,621.54,1032.41,626.49Z"/><path d="M1093.79,622.14V669.4h-12v-9.55a15,15,0,0,1-6.19,7.46,18.37,18.37,0,0,1-9.93,2.69q-8.21,0-13.06-5.38t-4.86-15V622.14h11.94v26.11q0,5.63,2.9,8.74a10.2,10.2,0,0,0,7.85,3.11,10.72,10.72,0,0,0,8.28-3.32q3.06-3.33,3.07-9.56V622.14Z"/><path d="M1149.92,622.14V669.4h-12v-9.55a15,15,0,0,1-6.18,7.46,18.41,18.41,0,0,1-9.94,2.69q-8.19,0-13.06-5.38t-4.86-15V622.14h12v26.11c0,3.75,1,6.66,2.9,8.74a10.19,10.19,0,0,0,7.85,3.11,10.68,10.68,0,0,0,8.27-3.32q3.08-3.33,3.07-9.56V622.14Z"/><path d="M1234.59,626.79q5,5.33,5,15.14V669.4h-11.94V643.3c0-3.64-.92-6.45-2.77-8.4a10,10,0,0,0-7.64-2.95,10.51,10.51,0,0,0-8,3.16q-3,3.15-3,9.21V669.4h-12V643.3c0-3.64-.92-6.45-2.77-8.4a10,10,0,0,0-7.63-2.95,10.51,10.51,0,0,0-8,3.16q-3,3.15-3,9.21V669.4h-12V622.14h12v9a14.68,14.68,0,0,1,5.93-7.13,17.54,17.54,0,0,1,9.42-2.51,18,18,0,0,1,10,2.73,16.66,16.66,0,0,1,6.35,7.85A17.81,17.81,0,0,1,1221,621.46Q1229.6,621.46,1234.59,626.79Z"/></g><circle class="cls-3" cx="902.84" cy="420.37" r="14.36"/><circle class="cls-3" cx="958.77" cy="420.37" r="14.36"/><circle class="cls-3" cx="846.92" cy="420.37" r="14.36"/><rect class="cls-3" x="1000.33" y="406.01" width="144.35" height="28.72"/></svg>