<svg id="Layer_1" data-name="Layer 1" xmlns="http://www.w3.org/2000/svg" viewBox="0 0 1200 740.55"><defs><style>.cls-1{opacity:0.5;}.cls-2,.cls-3{fill:none;stroke:#34314c;stroke-linecap:round;stroke-miterlimit:10;}.cls-2{stroke-width:3px;}.cls-3{stroke-width:8px;}.cls-4{fill:#ffbc42;}.cls-5{fill:#ffc952;}</style></defs><title>A</title><g class="cls-1"><rect x="922.26" y="251.95" width="300.66" height="28.09" transform="translate(2089.18 512.83) rotate(180)"/><polyline class="cls-2" points="981.12 36.21 853.14 246.83 985.77 453.5"/><path class="cls-3" d="M1199.1,267.56c0-193.06-169.75-144.07-169.75-244.39" transform="translate(-56 -19.17)"/><polygon points="1200 246.83 1165.53 215.9 1165.53 278.64 1200 246.83"/><path class="cls-3" d="M1199.1,267.56c0,193.05-169.75,144.06-169.75,244.39" transform="translate(-56 -19.17)"/></g><path class="cls-4" d="M367.17,401.33H184.47L152.19,493H56L223.85,42.38H327.79L495,493H398.81Zm-24.53-69.08L275.5,139.86,208.36,332.25Z" transform="translate(-56 -19.17)"/><g class="cls-1"><path d="M189.94,729a14.48,14.48,0,0,1-6,5.89,19.65,19.65,0,0,1-9.4,2.11H162.62V703.59H174.5a20.12,20.12,0,0,1,9.4,2.06,14.21,14.21,0,0,1,6,5.82,19.47,19.47,0,0,1,0,17.55Zm-7.65-.81c2-1.89,3-4.54,3-8s-1-6.1-3-8-4.75-2.84-8.35-2.84h-4.65v21.64h4.65Q179.34,731.05,182.29,728.21Z" transform="translate(-56 -19.17)"/><path d="M197.42,700.63a4.88,4.88,0,0,1,6,0,3.36,3.36,0,0,1,1.14,2.63,3.31,3.31,0,0,1-1.14,2.58,4.88,4.88,0,0,1-6,0,3.3,3.3,0,0,1-1.13-2.58A3.35,3.35,0,0,1,197.42,700.63Zm6.3,10.15V737H197V710.78Z" transform="translate(-56 -19.17)"/><path d="M223.8,731.29V737h-3.51q-4.39,0-6.74-2.13t-2.35-7.11V716.42h-3.65v-5.64h3.65V704.3h6.68v6.48h5.87v5.64h-5.87v11.46a3.66,3.66,0,0,0,.76,2.65,3.49,3.49,0,0,0,2.55.76Z" transform="translate(-56 -19.17)"/><path d="M245.58,717.37v5.54H225.45v-5.54Z" transform="translate(-56 -19.17)"/><path d="M280.67,729a14.48,14.48,0,0,1-6,5.89,19.68,19.68,0,0,1-9.4,2.11H253.34V703.59h11.89a20.15,20.15,0,0,1,9.4,2.06,14.21,14.21,0,0,1,6,5.82,19.55,19.55,0,0,1,0,17.55Zm-7.65-.81q3-2.84,3-8t-3-8q-3-2.84-8.36-2.84H260v21.64h4.64Q270.06,731.05,273,728.21Z" transform="translate(-56 -19.17)"/><path d="M303.73,712a8.5,8.5,0,0,1,3.36,4.21v-5.45h6.63V737h-6.63v-5.5a8.57,8.57,0,0,1-3.36,4.24,10,10,0,0,1-5.68,1.59,11.32,11.32,0,0,1-6-1.61,10.8,10.8,0,0,1-4.14-4.67,17.89,17.89,0,0,1,0-14.34,10.86,10.86,0,0,1,4.14-4.67,11.31,11.31,0,0,1,6-1.6A10.09,10.09,0,0,1,303.73,712Zm-8.62,6.29a7.9,7.9,0,0,0-1.89,5.59,7.82,7.82,0,0,0,1.89,5.57,7.18,7.18,0,0,0,10-.05,8.81,8.81,0,0,0,0-11.08,7.16,7.16,0,0,0-10,0Z" transform="translate(-56 -19.17)"/><path d="M342.65,713.39q2.7,3,2.7,8.38V737h-6.63V722.53a6.86,6.86,0,0,0-1.61-4.85,5.69,5.69,0,0,0-4.4-1.73,5.91,5.91,0,0,0-4.55,1.84,7.59,7.59,0,0,0-1.7,5.31V737h-6.68V702h6.68V716a8.32,8.32,0,0,1,3.43-4.14,10.23,10.23,0,0,1,5.52-1.49A9.27,9.27,0,0,1,342.65,713.39Z" transform="translate(-56 -19.17)"/></g><circle class="cls-4" cx="120.82" cy="620.59" r="12.9"/><rect class="cls-4" x="158.17" y="607.69" width="129.69" height="25.8"/><g class="cls-1"><path d="M917.35,724.81H893L888.72,737H875.91l22.35-60H912.1l22.27,60H921.56Zm-3.27-9.2L905.14,690l-8.94,25.62Z" transform="translate(-56 -19.17)"/><path d="M959.22,691.33a18.71,18.71,0,0,1,9.8-2.63v13h-3.53q-13.32,0-13.32,12.38V737H940V689.39h12.13v9.11A19.79,19.79,0,0,1,959.22,691.33Z" transform="translate(-56 -19.17)"/><path d="M1011.62,693.77a21.84,21.84,0,0,1,7.69,13.59H1006.5a9.93,9.93,0,0,0-3.53-6,10.81,10.81,0,0,0-7-2.19,10.39,10.39,0,0,0-8,3.57q-3.22,3.57-3.22,10.45T988,723.65a10.39,10.39,0,0,0,8,3.57,10.81,10.81,0,0,0,7-2.19,9.93,9.93,0,0,0,3.53-6h12.81a21.79,21.79,0,0,1-7.69,13.58q-6.15,5-15.35,5a25.33,25.33,0,0,1-12.38-3,20.81,20.81,0,0,1-8.43-8.46,29.6,29.6,0,0,1,0-26,20.54,20.54,0,0,1,8.43-8.47,25.76,25.76,0,0,1,12.38-2.92Q1005.46,688.79,1011.62,693.77Z" transform="translate(-56 -19.17)"/><path d="M1068.57,694.12q4.9,5.42,4.9,15.22V737h-12V710.71q0-5.67-2.93-8.81a10.4,10.4,0,0,0-8-3.14,10.68,10.68,0,0,0-8.25,3.36q-3.09,3.35-3.09,9.62V737h-12.12V673.4h12.12v25.53a15.15,15.15,0,0,1,6.23-7.52,18.56,18.56,0,0,1,10-2.71Q1063.67,688.7,1068.57,694.12Z" transform="translate(-56 -19.17)"/><path d="M1127.63,715.53h-34.9q.26,6.36,3.44,9.37a11.07,11.07,0,0,0,7.9,3,11.45,11.45,0,0,0,7-2.07,9.13,9.13,0,0,0,3.57-5.59h12.81a20.55,20.55,0,0,1-4,9,21.29,21.29,0,0,1-8,6.19,27.26,27.26,0,0,1-23.17-.74,20.75,20.75,0,0,1-8.43-8.46,29.6,29.6,0,0,1,0-26,20.48,20.48,0,0,1,8.43-8.47,25.73,25.73,0,0,1,12.38-2.92,25.17,25.17,0,0,1,12.33,2.92,20.59,20.59,0,0,1,8.17,8,23.32,23.32,0,0,1,2.88,11.65A22.73,22.73,0,0,1,1127.63,715.53Zm-14.83-14.19a11.66,11.66,0,0,0-8.12-3,12,12,0,0,0-8.26,3q-3.35,3-3.69,8.86h23.12Q1116.11,704.35,1112.8,701.34Z" transform="translate(-56 -19.17)"/><path d="M1155,691.33a18.71,18.71,0,0,1,9.8-2.63v13h-3.52q-13.34,0-13.33,12.38V737H1135.8V689.39h12.12v9.11A20,20,0,0,1,1155,691.33Z" transform="translate(-56 -19.17)"/><path d="M1179.64,689.39l13,32.33,12-32.33H1218l-29.14,70.33h-13.41l10.74-24.08-20-46.25Z" transform="translate(-56 -19.17)"/></g><circle class="cls-5" cx="853.14" cy="246.83" r="17.2"/><rect class="cls-5" x="989.83" y="232.79" width="175.7" height="28.09"/></svg>