<svg id="Layer_1" data-name="Layer 1" xmlns="http://www.w3.org/2000/svg" viewBox="0 0 1242 695.56"><defs><style>.cls-1{fill:#ffbc42;}.cls-2{opacity:0.5;}.cls-3{fill:none;stroke:#000;stroke-linecap:round;stroke-miterlimit:10;stroke-width:6px;}</style></defs><title>B</title><path class="cls-1" d="M394.94,287.63Q417,316.33,417,355q0,53.79-34.1,84.89T284.05,471H110.41V44.44h170.2q61.32,0,94.27,28.4t32.95,79.75q0,39.87-19.77,65.25T336.2,251.07Q372.86,258.93,394.94,287.63ZM191.21,223.28H264q30.38,0,46.14-14.2t15.75-40.78q0-26.58-15.47-41.09t-47.56-14.5H191.21ZM317.29,386.72q17.19-14.81,17.19-43.2T317,299.71q-17.49-15.4-49.57-15.41H191.21V401.52H268Q300.09,401.52,317.29,386.72Z" transform="translate(-61 -44.44)"/><g class="cls-2"><path d="M92.18,703.06a16.94,16.94,0,0,1-6.89,7.09,21.56,21.56,0,0,1-10.73,2.54H61V672.46H74.56a22,22,0,0,1,10.73,2.48,16.58,16.58,0,0,1,6.89,7,24.6,24.6,0,0,1,0,21.11Zm-8.72-1q3.38-3.42,3.37-9.58c0-4.13-1.12-7.35-3.37-9.63s-5.43-3.41-9.54-3.41h-5.3v26h5.3C78,705.51,81.2,704.37,83.46,702.09Z" transform="translate(-61 -44.44)"/><path d="M118.5,682.6a10.21,10.21,0,0,1,3.84,5.07v-6.55h7.57v31.57h-7.57v-6.61a10.33,10.33,0,0,1-3.84,5.1,11,11,0,0,1-6.48,1.91,12.39,12.39,0,0,1-6.81-1.94,12.86,12.86,0,0,1-4.73-5.62,22.75,22.75,0,0,1,0-17.26,12.89,12.89,0,0,1,4.73-5.61,12.39,12.39,0,0,1,6.81-1.94A11.08,11.08,0,0,1,118.5,682.6Zm-9.83,7.58a11.5,11.5,0,0,0,0,13.42,7.89,7.89,0,0,0,11.43-.06,11,11,0,0,0,0-13.33,7.35,7.35,0,0,0-5.71-2.48A7.27,7.27,0,0,0,108.67,690.18Z" transform="translate(-61 -44.44)"/><path d="M162.93,684.25q3.07,3.6,3.08,10.09v18.35h-7.57V695.25a8.5,8.5,0,0,0-1.84-5.84,6.34,6.34,0,0,0-5-2.08,6.57,6.57,0,0,0-5.19,2.22,9.38,9.38,0,0,0-1.95,6.38v16.76h-7.62V670.52h7.62v16.92a10,10,0,0,1,3.92-5,11.18,11.18,0,0,1,6.3-1.79A10.35,10.35,0,0,1,162.93,684.25Z" transform="translate(-61 -44.44)"/><path d="M192.11,689v6.67h-23V689Z" transform="translate(-61 -44.44)"/><path d="M232.16,703.06a17,17,0,0,1-6.9,7.09,21.52,21.52,0,0,1-10.72,2.54H201V672.46h13.57a21.94,21.94,0,0,1,10.72,2.48,16.66,16.66,0,0,1,6.9,7,24.69,24.69,0,0,1,0,21.11Zm-8.74-1q3.39-3.42,3.39-9.58c0-4.13-1.13-7.35-3.39-9.63s-5.43-3.41-9.53-3.41h-5.3v26h5.3Q220,705.51,223.42,702.09Z" transform="translate(-61 -44.44)"/><path d="M240.69,668.9a5.33,5.33,0,0,1,6.81,0,4.13,4.13,0,0,1,1.3,3.16,4.08,4.08,0,0,1-1.3,3.11,5.36,5.36,0,0,1-6.81,0,4.1,4.1,0,0,1-1.29-3.11A4.15,4.15,0,0,1,240.69,668.9Zm7.19,12.22v31.57h-7.62V681.12Z" transform="translate(-61 -44.44)"/><path d="M270.79,705.79v6.9h-4q-5,0-7.7-2.57t-2.68-8.55V687.9h-4.16v-6.78h4.16v-7.8H264v7.8h6.7v6.78H264v13.79a4.65,4.65,0,0,0,.86,3.19,3.9,3.9,0,0,0,2.92.91Z" transform="translate(-61 -44.44)"/><path d="M295.66,689v6.67h-23V689Z" transform="translate(-61 -44.44)"/><path d="M335.7,703.06a17,17,0,0,1-6.89,7.09,21.56,21.56,0,0,1-10.73,2.54H304.52V672.46h13.56a22,22,0,0,1,10.73,2.48,16.64,16.64,0,0,1,6.89,7,24.6,24.6,0,0,1,0,21.11Zm-8.73-1q3.38-3.42,3.38-9.58c0-4.13-1.13-7.35-3.38-9.63s-5.43-3.41-9.54-3.41h-5.29v26h5.29Q323.6,705.51,327,702.09Z" transform="translate(-61 -44.44)"/><path d="M344.24,668.9a5.33,5.33,0,0,1,6.81,0,4.16,4.16,0,0,1,1.3,3.16,4.11,4.11,0,0,1-1.3,3.11,5.36,5.36,0,0,1-6.81,0,4.08,4.08,0,0,1-1.3-3.11A4.13,4.13,0,0,1,344.24,668.9Zm7.19,12.22v31.57h-7.62V681.12Z" transform="translate(-61 -44.44)"/><path d="M374.34,705.79v6.9h-4q-5,0-7.7-2.57T360,701.57V687.9H355.8v-6.78H360v-7.8h7.62v7.8h6.7v6.78h-6.7v13.79a4.6,4.6,0,0,0,.86,3.19,3.9,3.9,0,0,0,2.92.91Z" transform="translate(-61 -44.44)"/><path d="M399.2,689v6.67h-23V689Z" transform="translate(-61 -44.44)"/><path d="M439.25,703.06a17.06,17.06,0,0,1-6.89,7.09,21.59,21.59,0,0,1-10.73,2.54H408.06V672.46h13.57a22,22,0,0,1,10.73,2.48,16.69,16.69,0,0,1,6.89,7,24.6,24.6,0,0,1,0,21.11Zm-8.73-1q3.38-3.42,3.38-9.58c0-4.13-1.13-7.35-3.38-9.63s-5.43-3.41-9.54-3.41h-5.3v26H421Q427.15,705.51,430.52,702.09Z" transform="translate(-61 -44.44)"/><path d="M447.79,668.9a5.33,5.33,0,0,1,6.81,0,4.15,4.15,0,0,1,1.29,3.16,4.1,4.1,0,0,1-1.29,3.11,5.36,5.36,0,0,1-6.81,0,4.08,4.08,0,0,1-1.3-3.11A4.13,4.13,0,0,1,447.79,668.9ZM455,681.12v31.57h-7.62V681.12Z" transform="translate(-61 -44.44)"/><path d="M477.89,705.79v6.9h-4q-5,0-7.7-2.57c-1.78-1.71-2.68-4.56-2.68-8.55V687.9h-4.16v-6.78h4.16v-7.8h7.62v7.8h6.71v6.78h-6.71v13.79a4.6,4.6,0,0,0,.87,3.19,3.87,3.87,0,0,0,2.91.91Z" transform="translate(-61 -44.44)"/></g><ellipse class="cls-1" cx="238.33" cy="551.21" rx="14.72" ry="15.52"/><ellipse class="cls-1" cx="295.67" cy="551.21" rx="14.72" ry="15.52"/><ellipse class="cls-1" cx="353.02" cy="551.21" rx="14.72" ry="15.52"/><rect class="cls-1" x="108.69" y="580.13" width="148.02" height="31.05" transform="translate(304.39 1146.86) rotate(180)"/><g class="cls-2"><path d="M1001.94,681.29a18.39,18.39,0,0,1,3.78,11.54q0,9.21-5.84,14.53T983,712.69H953.23v-73h29.14q10.5,0,16.14,4.86t5.64,13.66q0,6.83-3.38,11.17a15.61,15.61,0,0,1-8.88,5.69A16.68,16.68,0,0,1,1001.94,681.29Zm-34.88-11h12.46q5.21,0,7.9-2.43c1.8-1.62,2.7-3.94,2.7-7a9.15,9.15,0,0,0-2.65-7c-1.76-1.66-4.48-2.49-8.14-2.49H967.06Zm21.59,28q2.94-2.53,2.94-7.4c0-3.24-1-5.74-3-7.5s-4.82-2.64-8.49-2.64H967.06v20.07h13.15C983.87,700.79,986.69,700,988.65,698.26Z" transform="translate(-61 -44.44)"/><path d="M1048.5,658.07a18.46,18.46,0,0,1,7,9.2V655.38h13.73v57.31h-13.73v-12a18.79,18.79,0,0,1-7,9.26,19.88,19.88,0,0,1-11.77,3.46,22.51,22.51,0,0,1-12.37-3.51,23.45,23.45,0,0,1-8.58-10.2,41.28,41.28,0,0,1,0-31.34,23.42,23.42,0,0,1,8.58-10.19,22.52,22.52,0,0,1,12.37-3.52A20.07,20.07,0,0,1,1048.5,658.07Zm-17.86,13.76q-3.92,4.44-3.92,12.2t3.92,12.16a14.32,14.32,0,0,0,20.76-.11q4.06-4.49,4.07-12.05t-4.07-12.15a13.37,13.37,0,0,0-10.36-4.5A13.19,13.19,0,0,0,1030.64,671.83Z" transform="translate(-61 -44.44)"/><path d="M1129.15,661.07q5.6,6.51,5.6,18.31v33.31H1121V681q0-6.82-3.34-10.6a11.53,11.53,0,0,0-9.12-3.78,11.9,11.9,0,0,0-9.42,4q-3.54,4-3.53,11.58v30.42h-13.84V655.38h13.84v11.48a18.08,18.08,0,0,1,7.11-9.05,20.35,20.35,0,0,1,11.43-3.26Q1123.56,654.55,1129.15,661.07Z" transform="translate(-61 -44.44)"/><path d="M1137.69,727.38h3.92c2,0,3.49-.45,4.37-1.35s1.33-2.44,1.33-4.65v-66h13.83v66q0,18.61-17.76,18.62h-5.69Zm10.3-82.81a7.43,7.43,0,0,1-2.36-5.64,7.53,7.53,0,0,1,2.36-5.74,8.6,8.6,0,0,1,6.18-2.23,8.49,8.49,0,0,1,6.18,2.28,7.59,7.59,0,0,1,2.36,5.69,7.43,7.43,0,0,1-2.36,5.64,9.71,9.71,0,0,1-12.36,0Z" transform="translate(-61 -44.44)"/><path d="M1213,658.17a25.12,25.12,0,0,1,10,10.19,35.53,35.53,0,0,1,0,31.29,25.49,25.49,0,0,1-10,10.19,30.34,30.34,0,0,1-28.56,0,25.45,25.45,0,0,1-10-10.19,35.53,35.53,0,0,1,0-31.29,25.08,25.08,0,0,1,10-10.19,30.73,30.73,0,0,1,28.56,0Zm-24.09,13.4q-4,4.29-4,12.46t4,12.47a13.36,13.36,0,0,0,19.62,0q4-4.29,4-12.47t-4-12.46a13.34,13.34,0,0,0-19.62,0Z" transform="translate(-61 -44.44)"/></g><g class="cls-2"><path d="M911.3,293.74c-42.89,43.34-41.85,115.44,2.33,161s114.78,47.43,157.68,4.09c38.17-38.57,41.52-99.9,10.66-145.07l153.66-155.25-28.49-29.4L1053.48,284.39C1009.57,252.4,949.48,255.17,911.3,293.74Z" transform="translate(-61 -44.44)"/><path d="M1301.72,100.09l-50.9,43.56a3.66,3.66,0,0,1-5-.36l-23.67-24.44a3.81,3.81,0,0,1-.3-5.06l43.18-51.51a3.62,3.62,0,0,1,5.43-.11l31.38,32.39A3.78,3.78,0,0,1,1301.72,100.09Z" transform="translate(-61 -44.44)"/><line class="cls-3" x1="1207.04" y1="96.01" x2="1164.2" y2="51.8"/><line class="cls-3" x1="1228.09" y1="75.65" x2="1181.41" y2="27.47"/></g><ellipse class="cls-1" cx="1098.3" cy="268.2" rx="19.61" ry="20.52" transform="translate(-42.16 559.87) rotate(-31.02)"/><ellipse class="cls-1" cx="1145.84" cy="220.16" rx="19.61" ry="20.52" transform="matrix(0.86, -0.52, 0.52, 0.86, -10.61, 577.5)"/><ellipse class="cls-1" cx="1193.38" cy="172.13" rx="19.61" ry="20.52" transform="translate(20.95 595.13) rotate(-31.02)"/><polygon class="cls-1" points="853.45 380.42 992.48 239.95 1020.97 269.35 881.93 409.82 853.45 380.42"/></svg>