<svg id="Layer_1" data-name="Layer 1" xmlns="http://www.w3.org/2000/svg" viewBox="0 0 875.7 447.32"><defs><style>.cls-1{fill:#ffbc42;}.cls-2{opacity:0.5;}.cls-3{fill:none;stroke:#000;stroke-miterlimit:10;stroke-width:6px;}</style></defs><title>C</title><path class="cls-1" d="M271.58,55.65q26,20.31,34.35,55.25h-44.2A57.82,57.82,0,0,0,240.37,84q-14.49-9.85-34.79-9.85a56,56,0,0,0-30.17,8.36q-13.44,8.35-20.9,23.89T147,142.86q0,20.61,7.47,36.14t20.9,23.89a55.9,55.9,0,0,0,30.17,8.36q20.31,0,34.79-9.85a57.82,57.82,0,0,0,21.36-26.88h44.2q-8.37,34.93-34.35,55.25t-65.4,20.31q-30.18,0-53.31-13.59A92.53,92.53,0,0,1,117,198.41q-12.69-24.48-12.69-55.55Q104.33,111.5,117,87a92.87,92.87,0,0,1,35.69-38.08q23-13.59,53.47-13.59Q245.6,35.34,271.58,55.65Z" transform="translate(-63.65 -35.34)"/><g class="cls-2"><path d="M83.18,460.72a10.38,10.38,0,0,1-4.32,4.21,14,14,0,0,1-6.72,1.51H63.65v-23.9h8.49A14.36,14.36,0,0,1,78.86,444a10.15,10.15,0,0,1,4.32,4.16,14,14,0,0,1,0,12.54Zm-5.47-.58a8.72,8.72,0,0,0,0-11.4,8.25,8.25,0,0,0-6-2H68.42v15.46h3.32A8.25,8.25,0,0,0,77.71,460.14Z" transform="translate(-63.65 -35.34)"/><path d="M99.66,448.57a6.09,6.09,0,0,1,2.4,3v-3.89h4.74v18.75h-4.74v-3.93a6.14,6.14,0,0,1-2.4,3,7.12,7.12,0,0,1-4.06,1.14,8,8,0,0,1-4.27-1.16,7.71,7.71,0,0,1-3-3.33,12.81,12.81,0,0,1,0-10.25,7.8,7.8,0,0,1,3-3.34,8.13,8.13,0,0,1,4.27-1.15A7.19,7.19,0,0,1,99.66,448.57Zm-6.16,4.5a5.6,5.6,0,0,0-1.36,4,5.54,5.54,0,0,0,1.36,4,5.13,5.13,0,0,0,7.16,0,6.3,6.3,0,0,0,0-7.92,5.09,5.09,0,0,0-7.16,0Z" transform="translate(-63.65 -35.34)"/><path d="M127.48,449.55a8.64,8.64,0,0,1,1.92,6v10.9h-4.73V456.08a4.94,4.94,0,0,0-1.15-3.47,4.11,4.11,0,0,0-3.15-1.23,4.21,4.21,0,0,0-3.25,1.32,5.4,5.4,0,0,0-1.22,3.79v9.95h-4.77V441.39h4.77v10.05a6.05,6.05,0,0,1,2.46-3,7.29,7.29,0,0,1,3.94-1.06A6.66,6.66,0,0,1,127.48,449.55Z" transform="translate(-63.65 -35.34)"/><path d="M145.75,452.39v4H131.37v-4Z" transform="translate(-63.65 -35.34)"/><path d="M170.83,460.72a10.36,10.36,0,0,1-4.31,4.21,14.08,14.08,0,0,1-6.73,1.51H151.3v-23.9h8.49a14.43,14.43,0,0,1,6.73,1.48,10.13,10.13,0,0,1,4.31,4.16,13.94,13.94,0,0,1,0,12.54Zm-5.47-.58a8.72,8.72,0,0,0,0-11.4,8.25,8.25,0,0,0-6-2h-3.32v15.46h3.32A8.25,8.25,0,0,0,165.36,460.14Z" transform="translate(-63.65 -35.34)"/><path d="M176.18,440.43a3.47,3.47,0,0,1,4.26,0,2.4,2.4,0,0,1,.81,1.88,2.36,2.36,0,0,1-.81,1.84,3.47,3.47,0,0,1-4.26,0,2.37,2.37,0,0,1-.82-1.84A2.41,2.41,0,0,1,176.18,440.43Zm4.5,7.26v18.75H175.9V447.69Z" transform="translate(-63.65 -35.34)"/><path d="M195,462.34v4.1h-2.51a6.92,6.92,0,0,1-4.82-1.53Q186,463.4,186,459.84v-8.12h-2.6v-4H186v-4.64h4.78v4.64H195v4H190.8v8.19a2.63,2.63,0,0,0,.54,1.89,2.53,2.53,0,0,0,1.83.54Z" transform="translate(-63.65 -35.34)"/><path d="M210.6,452.39v4H196.21v-4Z" transform="translate(-63.65 -35.34)"/><path d="M235.67,460.72a10.36,10.36,0,0,1-4.31,4.21,14.06,14.06,0,0,1-6.72,1.51h-8.49v-23.9h8.49a14.42,14.42,0,0,1,6.72,1.48,10.13,10.13,0,0,1,4.31,4.16,13.94,13.94,0,0,1,0,12.54Zm-5.46-.58a8.75,8.75,0,0,0,0-11.4,8.25,8.25,0,0,0-6-2h-3.31v15.46h3.31A8.25,8.25,0,0,0,230.21,460.14Z" transform="translate(-63.65 -35.34)"/><path d="M252.15,448.57a6.11,6.11,0,0,1,2.41,3v-3.89h4.74v18.75h-4.74v-3.93a6.16,6.16,0,0,1-2.41,3,7.1,7.1,0,0,1-4.06,1.14,8,8,0,0,1-4.26-1.16,7.65,7.65,0,0,1-3-3.33,12.81,12.81,0,0,1,0-10.25,7.73,7.73,0,0,1,3-3.34,8.09,8.09,0,0,1,4.26-1.15A7.16,7.16,0,0,1,252.15,448.57Zm-6.16,4.5a5.64,5.64,0,0,0-1.35,4,5.58,5.58,0,0,0,1.35,4,5.13,5.13,0,0,0,7.16,0,6.27,6.27,0,0,0,0-7.92,5.09,5.09,0,0,0-7.16,0Z" transform="translate(-63.65 -35.34)"/><path d="M280,449.55a8.6,8.6,0,0,1,1.93,6v10.9h-4.74V456.08a4.89,4.89,0,0,0-1.15-3.47,4.08,4.08,0,0,0-3.14-1.23,4.2,4.2,0,0,0-3.25,1.32,5.4,5.4,0,0,0-1.22,3.79v9.95h-4.77V441.39h4.77v10.05a6,6,0,0,1,2.45-3,7.32,7.32,0,0,1,3.95-1.06A6.62,6.62,0,0,1,280,449.55Z" transform="translate(-63.65 -35.34)"/><path d="M298.25,452.39v4H283.86v-4Z" transform="translate(-63.65 -35.34)"/><path d="M323.33,460.72a10.44,10.44,0,0,1-4.32,4.21,14,14,0,0,1-6.72,1.51H303.8v-23.9h8.49A14.36,14.36,0,0,1,319,444a10.21,10.21,0,0,1,4.32,4.16,13.94,13.94,0,0,1,0,12.54Zm-5.47-.58a8.72,8.72,0,0,0,0-11.4,8.25,8.25,0,0,0-6-2h-3.32v15.46h3.32A8.25,8.25,0,0,0,317.86,460.14Z" transform="translate(-63.65 -35.34)"/><path d="M328.67,440.43a3.49,3.49,0,0,1,4.27,0,2.4,2.4,0,0,1,.81,1.88,2.36,2.36,0,0,1-.81,1.84,3.49,3.49,0,0,1-4.27,0,2.36,2.36,0,0,1-.81-1.84A2.4,2.4,0,0,1,328.67,440.43Zm4.5,7.26v18.75H328.4V447.69Z" transform="translate(-63.65 -35.34)"/><path d="M347.52,462.34v4.1H345a6.89,6.89,0,0,1-4.82-1.53q-1.68-1.52-1.68-5.07v-8.12h-2.61v-4h2.61v-4.64h4.77v4.64h4.2v4h-4.2v8.19a2.63,2.63,0,0,0,.54,1.89,2.53,2.53,0,0,0,1.83.54Z" transform="translate(-63.65 -35.34)"/></g><circle class="cls-1" cx="123.52" cy="361.59" r="9.22"/><rect class="cls-1" x="67.79" y="387.7" width="92.69" height="18.44" transform="translate(164.62 758.51) rotate(180)"/><circle class="cls-1" cx="269.6" cy="361.59" r="9.22"/><rect class="cls-1" x="213.86" y="387.7" width="92.69" height="18.44" transform="translate(456.77 758.51) rotate(180)"/><g class="cls-2"><path d="M650.35,426.81a19.72,19.72,0,0,1,7.07,11.37h-9.09a11.91,11.91,0,0,0-4.4-5.53,12.36,12.36,0,0,0-7.16-2,11.31,11.31,0,0,0-10.5,6.63,17.05,17.05,0,0,0-1.54,7.5,16.86,16.86,0,0,0,1.54,7.43,11.3,11.3,0,0,0,10.5,6.64,12.44,12.44,0,0,0,7.16-2,11.91,11.91,0,0,0,4.4-5.53h9.09a19.75,19.75,0,0,1-7.07,11.37q-5.34,4.19-13.45,4.18a21.19,21.19,0,0,1-11-2.8,19,19,0,0,1-7.38-7.83,26.46,26.46,0,0,1,0-22.92,19.09,19.09,0,0,1,7.35-7.83,21.15,21.15,0,0,1,11-2.8Q645,422.63,650.35,426.81Z" transform="translate(-63.65 -35.34)"/><path d="M684.64,434a11,11,0,0,1,4.36,5.47V432.4h8.6v34H689v-7.13a11.16,11.16,0,0,1-4.36,5.5,13,13,0,0,1-7.38,2.06,14.67,14.67,0,0,1-7.74-2.09,14.11,14.11,0,0,1-5.37-6,23.31,23.31,0,0,1,0-18.62,14.11,14.11,0,0,1,5.37-6.05,14.67,14.67,0,0,1,7.74-2.09A13.12,13.12,0,0,1,684.64,434Zm-11.18,8.17a10.22,10.22,0,0,0-2.46,7.25,10.11,10.11,0,0,0,2.46,7.22,9.31,9.31,0,0,0,13-.06,11.41,11.41,0,0,0,0-14.38,8.57,8.57,0,0,0-6.48-2.67A8.45,8.45,0,0,0,673.46,442.17Z" transform="translate(-63.65 -35.34)"/><path d="M735.14,435.78q3.51,3.87,3.51,10.87v19.79H730v-18.8a8.9,8.9,0,0,0-2.08-6.3,7.43,7.43,0,0,0-5.72-2.24,7.67,7.67,0,0,0-5.9,2.39c-1.47,1.6-2.21,3.9-2.21,6.88v18.07h-8.66v-34h8.66v6.82a10.87,10.87,0,0,1,4.46-5.38,13.2,13.2,0,0,1,7.15-1.93A12,12,0,0,1,735.14,435.78Z" transform="translate(-63.65 -35.34)"/><path d="M766.94,434a11.39,11.39,0,0,1,4.39,5.47V421h8.61v45.47h-8.61v-7.13a11.56,11.56,0,0,1-4.39,5.5,12.8,12.8,0,0,1-7.34,2.06,14.62,14.62,0,0,1-7.74-2.09,14.07,14.07,0,0,1-5.38-6,23.31,23.31,0,0,1,0-18.62,14.07,14.07,0,0,1,5.38-6.05A14.62,14.62,0,0,1,759.6,432,12.94,12.94,0,0,1,766.94,434Zm-11.15,8.17a10.22,10.22,0,0,0-2.46,7.25,10.11,10.11,0,0,0,2.46,7.22,9.32,9.32,0,0,0,13-.06,11.45,11.45,0,0,0,0-14.38,8.61,8.61,0,0,0-6.49-2.67A8.48,8.48,0,0,0,755.79,442.17Z" transform="translate(-63.65 -35.34)"/><path d="M793.64,432.4l9.28,23.1,8.6-23.1H821l-20.83,50.26h-9.58l7.68-17.2L784,432.4Z" transform="translate(-63.65 -35.34)"/></g><g class="cls-2"><path class="cls-3" d="M610.18,151c-7.53,16.45-4.57,34.66,11.88,42.19A32.75,32.75,0,0,0,665.47,177a43.67,43.67,0,0,0-79.41-36.35,54.58,54.58,0,1,0,99.26,45.44" transform="translate(-63.65 -35.34)"/><circle class="cls-3" cx="562.18" cy="123.36" r="65.5"/></g><circle class="cls-1" cx="562.18" cy="123.35" r="25.18"/><g class="cls-2"><path class="cls-3" d="M855.19,151c-7.53,16.45-4.57,34.66,11.88,42.19A32.75,32.75,0,0,0,910.48,177a43.67,43.67,0,0,0-79.42-36.35,54.59,54.59,0,0,0,99.27,45.44" transform="translate(-63.65 -35.34)"/><circle class="cls-3" cx="807.18" cy="123.36" r="65.5"/></g><circle class="cls-1" cx="807.19" cy="123.35" r="25.18"/><rect class="cls-1" x="454.84" y="195.34" width="101.66" height="20.23" transform="translate(987.59 186.36) rotate(159.59)"/><rect class="cls-1" x="699.85" y="195.34" width="101.66" height="20.23" transform="translate(1462.23 100.94) rotate(159.59)"/></svg>