<svg id="Layer_1" data-name="Layer 1" xmlns="http://www.w3.org/2000/svg" viewBox="0 0 1366 768"><defs><style>.cls-1{fill:#ffbc42;}.cls-2{opacity:0.5;}.cls-3{fill:none;stroke:#000;stroke-linecap:round;stroke-miterlimit:10;stroke-width:6px;}</style></defs><title>all</title><path class="cls-1" d="M480.66,400.94q-28.35,46.9-82.11,73T270.7,500H109V86.18H270.7q74.06,0,127.85,25.49t82.11,72.1Q509,230.38,509,292.5,509,354,480.66,400.94Zm-104-10q40.23-35.16,40.25-98.47,0-63.88-40.25-99.06T263,158.27H199.85V426.14H263Q336.4,426.14,376.65,391Z"/><g class="cls-2"><path d="M169.87,687a15.39,15.39,0,0,1-6.38,6.23,20.91,20.91,0,0,1-9.93,2.22H141V660.09h12.56a21.39,21.39,0,0,1,9.93,2.17,15.17,15.17,0,0,1,6.38,6.16,20.63,20.63,0,0,1,0,18.54Zm-8.08-.85c2.08-2,3.13-4.8,3.13-8.41s-1-6.45-3.13-8.46-5-3-8.83-3h-4.91v22.87H153Q158.66,689.11,161.79,686.11Z"/><path d="M194.24,669a9,9,0,0,1,3.55,4.45v-5.76h7v27.72h-7v-5.8a9.17,9.17,0,0,1-3.55,4.48,10.6,10.6,0,0,1-6,1.67,11.86,11.86,0,0,1-6.3-1.7,11.41,11.41,0,0,1-4.38-4.93,19,19,0,0,1,0-15.16,11.44,11.44,0,0,1,4.38-4.92,11.86,11.86,0,0,1,6.3-1.7A10.67,10.67,0,0,1,194.24,669Zm-9.11,6.65a8.35,8.35,0,0,0-2,5.9,8.23,8.23,0,0,0,2,5.88,7.57,7.57,0,0,0,10.58,0,8.06,8.06,0,0,0,2.08-5.83,8.17,8.17,0,0,0-2.08-5.88,7.56,7.56,0,0,0-10.58,0Z"/><path d="M235.36,670.45q2.85,3.15,2.85,8.85v16.11h-7V680.1a7.22,7.22,0,0,0-1.7-5.12,6.06,6.06,0,0,0-4.66-1.83,6.22,6.22,0,0,0-4.8,2,8,8,0,0,0-1.8,5.6v14.71H211.2v-37h7.05v14.86a8.83,8.83,0,0,1,3.63-4.38,10.76,10.76,0,0,1,5.83-1.57A9.81,9.81,0,0,1,235.36,670.45Z"/><path d="M262.38,674.65v5.85H241.12v-5.85Z"/><path d="M299.46,687a15.39,15.39,0,0,1-6.38,6.23,20.92,20.92,0,0,1-9.94,2.22H270.59V660.09h12.55a21.41,21.41,0,0,1,9.94,2.17,15.17,15.17,0,0,1,6.38,6.16,20.63,20.63,0,0,1,0,18.54Zm-8.09-.85c2.09-2,3.13-4.8,3.13-8.41s-1-6.45-3.13-8.46-5-3-8.83-3h-4.9v22.87h4.9C286.34,689.11,289.29,688.11,291.37,686.11Z"/><path d="M307.36,657a5.17,5.17,0,0,1,6.3,0,3.58,3.58,0,0,1,1.21,2.78,3.52,3.52,0,0,1-1.21,2.73,5.17,5.17,0,0,1-6.3,0,3.51,3.51,0,0,1-1.2-2.73A3.57,3.57,0,0,1,307.36,657ZM314,667.69v27.72H307V667.69Z"/><path d="M335.23,689.36v6h-3.7c-3.11,0-5.48-.75-7.13-2.25s-2.48-4-2.48-7.5v-12h-3.85v-6h3.85v-6.85H329v6.85h6.21v6H329v12.11a3.92,3.92,0,0,0,.8,2.8,3.78,3.78,0,0,0,2.71.8Z"/><path d="M358.24,674.65v5.85H337v-5.85Z"/><path d="M395.32,687a15.39,15.39,0,0,1-6.38,6.23,20.91,20.91,0,0,1-9.93,2.22H366.45V660.09H379a21.39,21.39,0,0,1,9.93,2.17,15.17,15.17,0,0,1,6.38,6.16,20.63,20.63,0,0,1,0,18.54Zm-8.08-.85c2.08-2,3.12-4.8,3.12-8.41s-1-6.45-3.12-8.46-5-3-8.83-3H373.5v22.87h4.91Q384.11,689.11,387.24,686.11Z"/><path d="M403.22,657a5.19,5.19,0,0,1,6.31,0,3.57,3.57,0,0,1,1.2,2.78,3.51,3.51,0,0,1-1.2,2.73,5.19,5.19,0,0,1-6.31,0,3.51,3.51,0,0,1-1.2-2.73A3.57,3.57,0,0,1,403.22,657Zm6.66,10.73v27.72h-7.06V667.69Z"/><path d="M431.09,689.36v6h-3.7q-4.65,0-7.13-2.25t-2.48-7.5v-12h-3.85v-6h3.85v-6.85h7.06v6.85H431v6h-6.2v12.11a3.92,3.92,0,0,0,.79,2.8,3.78,3.78,0,0,0,2.71.8Z"/></g><g class="cls-2"><path d="M972.84,680.06a27.71,27.71,0,0,1-11.58,11.31,37.79,37.79,0,0,1-18,4h-22.8V631.28h22.8a38.5,38.5,0,0,1,18,4,27.22,27.22,0,0,1,11.58,11.17,37.39,37.39,0,0,1,0,33.65Zm-14.67-1.54q5.69-5.44,5.68-15.26t-5.68-15.35q-5.67-5.46-16-5.45h-8.9V684h8.9Q952.49,684,958.17,678.52Z"/><path d="M1022.94,647.54a22.62,22.62,0,0,1,9.22,9,29.77,29.77,0,0,1,0,27.48,23,23,0,0,1-9.22,8.95,29.48,29.48,0,0,1-26.44,0,23,23,0,0,1-9.22-8.95,29.77,29.77,0,0,1,0-27.48,22.62,22.62,0,0,1,9.22-9,29.91,29.91,0,0,1,26.44,0Zm-22.3,11.77q-3.74,3.77-3.73,10.94t3.73,11a12.82,12.82,0,0,0,18.16,0q3.74-3.76,3.73-11t-3.73-10.94a12.82,12.82,0,0,0-18.16,0Z"/><path d="M1075.22,647.45a16.37,16.37,0,0,1,6.44,8.09V645.09h12.72V695.6a27.92,27.92,0,0,1-2.77,12.58,20.46,20.46,0,0,1-8.26,8.76,26.2,26.2,0,0,1-13.31,3.18q-10.9,0-17.63-5.17a21.46,21.46,0,0,1-8.17-14.08h12.63a10.41,10.41,0,0,0,4.22,6,14,14,0,0,0,8,2.13,12.52,12.52,0,0,0,9.08-3.32q3.45-3.32,3.45-10V684.88a16.59,16.59,0,0,1-6.44,8.13,19.14,19.14,0,0,1-10.9,3,21.62,21.62,0,0,1-11.45-3.09,20.82,20.82,0,0,1-7.95-9,34.53,34.53,0,0,1,0-27.52,20.88,20.88,0,0,1,7.95-9,21.7,21.7,0,0,1,11.45-3.08A19.35,19.35,0,0,1,1075.22,647.45Zm-16.54,12.08q-3.63,3.91-3.63,10.72c0,4.55,1.21,8.1,3.63,10.68a13.78,13.78,0,0,0,19.22-.09c2.51-2.64,3.76-6.16,3.76-10.59s-1.25-8-3.76-10.67a12.71,12.71,0,0,0-9.59-4A12.55,12.55,0,0,0,1058.68,659.53Z"/></g><circle class="cls-1" cx="340.26" cy="592.65" r="13.63"/><circle class="cls-1" cx="393.35" cy="592.65" r="13.63"/><rect class="cls-1" x="163.76" y="579.01" width="137.04" height="27.26" transform="translate(464.56 1185.29) rotate(180)"/><g class="cls-2"><path d="M1124.32,443.84c0-8.34-7.21-15.11-16.1-15.11s-16.1,6.77-16.1,15.11"/><path d="M1095.31,371.76,1082.18,399c-5.88,12.29,4.71,32.82,9.94,44.87l20.82-14.3s-6.88-16.38-1.53-25.74l18.72-32Z"/><path d="M1167.48,431.94c0-8.35-7.21-15.11-16.1-15.11s-16.1,6.76-16.1,15.11"/><path d="M1156.1,418.53s-7.29-15.41-1.53-23.94l15-22.83h-30.64L1128.48,390c-7.14,11.89.47,30.52,6.8,42Z"/><path d="M1247.34,208a130.42,130.42,0,0,0-30.5,3.33,138.46,138.46,0,0,0-27.81,0,130.42,130.42,0,0,0-30.5-3.33c-18,0-38.66,26.3-38.66,72.59,0,12.79,5.12,30.88,17.3,30.88,17.68,0,20.95-24.37,20.95-24.37l17.14,20.8c0,14.37,6,23.25,17.12,23.25,7.61,0,10.55-3,10.55-3s3,3,10.56,3c11.08,0,17.12-8.88,17.12-23.25l17.14-20.8s3.27,24.37,21,24.37c12.18,0,17.3-18.09,17.3-30.88C1286,234.3,1265.34,208,1247.34,208Zm-49.47,112.41a2.44,2.44,0,0,1-3.21,2.22,7.29,7.29,0,0,1-5-4.8c-.19-.71.53-1.37,1.44-1.37h4.29a2.4,2.4,0,0,1,2.47,2.32Zm13.34,2.22a2.44,2.44,0,0,1-3.21-2.22v-1.63a2.4,2.4,0,0,1,2.47-2.32h4.29c.91,0,1.63.66,1.44,1.37A7.29,7.29,0,0,1,1211.21,322.63Z"/></g><g class="cls-2"><path d="M876.91,317.5c-22.11,0-40,16.82-40,37.58,0,18,13.41,33,31.35,36.7"/><path d="M827.85,392.6a34.11,34.11,0,0,0,46.09,0,29.29,29.29,0,0,0,0-43.27"/><path d="M839.59,341.46c-.72,1.09-10.18,22.59-14.14,31.47a4.63,4.63,0,0,1-4.28,2.67H808.41c-6.46,0-11.86,4.61-12.48,10.64L790,444l21-14,8.07-22A12.57,12.57,0,0,1,832,400l17.84,1.53Z"/><path d="M825.15,444c0-8.35-7.21-15.12-16.1-15.12s-19,6.77-19,15.12"/><path d="M879.34,322.79c-.72,1.09-13.25,29.2-17.21,38.09a4.65,4.65,0,0,1-4.29,2.66H845.08c-6.46,0-11.86,4.61-12.48,10.65l-5.92,57.75,18.08-14,8.07-22A12.57,12.57,0,0,1,865.68,388l7.76-.42Z"/><path d="M858.88,431.94c0-8.35-7.21-15.11-16.1-15.11s-16.1,6.76-16.1,15.11"/><path class="cls-3" d="M875.57,324.76c-40.86,0-73.93-31.05-73.93-69.41"/></g><rect class="cls-1" x="873.44" y="316.46" width="296.09" height="55.3" transform="translate(2042.97 688.22) rotate(180)"/><ellipse class="cls-1" cx="1179.55" cy="255.22" rx="17.18" ry="16.13"/><ellipse class="cls-1" cx="1226.32" cy="255.22" rx="17.18" ry="16.13"/></svg>