<svg id="Layer_1" data-name="Layer 1" xmlns="http://www.w3.org/2000/svg" viewBox="0 0 1366 768"><defs><style>.cls-1{fill:#ffbc42;}.cls-2{opacity:0.5;}</style></defs><title>all</title><path class="cls-1" d="M320.46,60.44V492H234.28V60.44Z"/><circle class="cls-1" cx="248.97" cy="579.47" r="13.38"/><circle class="cls-1" cx="301.1" cy="579.47" r="13.38"/><g id="_2iOb8Z" data-name="2iOb8Z" class="cls-2"><path d="M982.68,262.5H950.89a6.61,6.61,0,0,1-6.6-6.6V225.71l-35.4-24.78a6.6,6.6,0,1,1,7.58-10.81l38.21,26.74a6.62,6.62,0,0,1,2.81,5.41v27h25.19a6.6,6.6,0,1,1,0,13.2Z"/><path d="M911.12,326a6.55,6.55,0,0,1-2.76-.61l-36.53-16.88a6.6,6.6,0,0,1,5.54-12l31.92,14.75,24.93-30a6.58,6.58,0,0,1,5.08-2.38h30.07a6.6,6.6,0,1,1,0,13.2h-27L916.2,323.57A6.6,6.6,0,0,1,911.12,326Z"/><path d="M889.9,426.91a6.6,6.6,0,0,1-4-11.87l46.79-35.39V334a6.6,6.6,0,0,1,3.22-5.67l24.48-14.6A6.6,6.6,0,1,1,967.16,325L945.9,337.71v45.22a6.61,6.61,0,0,1-2.62,5.27l-49.41,37.37A6.55,6.55,0,0,1,889.9,426.91Z"/><path d="M1013.9,211.59a6.59,6.59,0,0,1-6.6-6.6c0-36.61-70.09-67.68-97.1-76.56a6.6,6.6,0,1,1,4.12-12.54c4.34,1.42,106.18,35.54,106.18,89.1A6.6,6.6,0,0,1,1013.9,211.59Z"/><path d="M1115.1,262.5h-31.79a6.6,6.6,0,1,1,0-13.2h25.19v-27a6.61,6.61,0,0,1,2.82-5.41l38.21-26.74a6.6,6.6,0,1,1,7.57,10.81l-35.4,24.78V255.9A6.6,6.6,0,0,1,1115.1,262.5Z"/><path d="M1154.88,326a6.59,6.59,0,0,1-5.08-2.39L1123.61,292h-27a6.6,6.6,0,0,1,0-13.2h30.07a6.58,6.58,0,0,1,5.08,2.38l24.93,30,31.92-14.75a6.6,6.6,0,1,1,5.54,12l-36.53,16.88A6.55,6.55,0,0,1,1154.88,326Z"/><path d="M1176.1,426.91a6.58,6.58,0,0,1-4-1.34l-49.4-37.37a6.61,6.61,0,0,1-2.62-5.27V337.71L1098.83,325a6.6,6.6,0,0,1,6.77-11.33l24.48,14.6a6.6,6.6,0,0,1,3.22,5.67v45.69L1180.08,415a6.6,6.6,0,0,1-4,11.87Z"/><path d="M1052.1,211.59a6.6,6.6,0,0,1-6.6-6.6c0-53.56,101.84-87.68,106.17-89.1a6.6,6.6,0,1,1,4.13,12.54c-27,8.89-97.1,40-97.1,76.56A6.59,6.59,0,0,1,1052.1,211.59Z"/><path d="M991.53,231a42.67,42.67,0,0,1,.26-4.48,41.47,41.47,0,0,1,82.68,4.71v0a5.12,5.12,0,0,1-5.17,5H996.71A5.21,5.21,0,0,1,991.53,231Z"/><path d="M960.87,249.3v99.28c.37,24.21,10.38,43.66,29.8,58,9.62,7.11,20.39,12,32.59,12.65a29.53,29.53,0,0,0,3.14.06V278.82h13.2V419.3a29.53,29.53,0,0,0,3.14-.06c12.2-.67,23-5.54,32.59-12.65,19.41-14.35,29.43-33.8,29.8-58V249.3Z"/></g><circle class="cls-1" cx="1071.32" cy="211.5" r="19.68"/><circle class="cls-1" cx="994.68" cy="211.5" r="19.68"/><g class="cls-2"><path d="M224.35,672.07a15.08,15.08,0,0,1-6.26,6.12,20.46,20.46,0,0,1-9.75,2.19H196V645.69h12.33a20.93,20.93,0,0,1,9.75,2.14,14.78,14.78,0,0,1,6.26,6,20.25,20.25,0,0,1,0,18.2Zm-7.93-.83q3.08-3,3.07-8.26t-3.07-8.3c-2-2-4.94-2.95-8.67-2.95h-4.82v22.46h4.82C211.48,674.19,214.37,673.2,216.42,671.24Z"/><path d="M232.11,642.62a5.09,5.09,0,0,1,6.19,0,3.51,3.51,0,0,1,1.19,2.73A3.45,3.45,0,0,1,238.3,648a5.09,5.09,0,0,1-6.19,0,3.47,3.47,0,0,1-1.17-2.68A3.53,3.53,0,0,1,232.11,642.62Zm6.54,10.54v27.22h-6.93V653.16Z"/><path d="M259.48,674.43v6h-3.64c-3,0-5.38-.74-7-2.22s-2.43-3.93-2.43-7.36V659h-3.78v-5.85h3.78v-6.73h6.93v6.73h6.09V659h-6.09V670.9a3.86,3.86,0,0,0,.78,2.75,3.71,3.71,0,0,0,2.66.78Z"/><path d="M282.07,660v5.75H261.2V660Z"/><path d="M318.48,672.07a15,15,0,0,1-6.27,6.12,20.4,20.4,0,0,1-9.75,2.19H290.13V645.69h12.33a20.88,20.88,0,0,1,9.75,2.14,14.75,14.75,0,0,1,6.27,6,20.25,20.25,0,0,1,0,18.2Zm-7.94-.83q3.07-3,3.07-8.26t-3.07-8.3c-2-2-4.94-2.95-8.67-2.95h-4.81v22.46h4.81C305.6,674.19,308.5,673.2,310.54,671.24Z"/><path d="M326.24,642.62a5.09,5.09,0,0,1,6.19,0,3.53,3.53,0,0,1,1.18,2.73,3.47,3.47,0,0,1-1.18,2.68,5.09,5.09,0,0,1-6.19,0,3.44,3.44,0,0,1-1.18-2.68A3.5,3.5,0,0,1,326.24,642.62Zm6.53,10.54v27.22h-6.92V653.16Z"/><path d="M353.6,674.43v6H350q-4.58,0-7-2.22c-1.63-1.47-2.44-3.93-2.44-7.36V659h-3.78v-5.85h3.78v-6.73h6.93v6.73h6.09V659h-6.09V670.9a3.86,3.86,0,0,0,.78,2.75,3.73,3.73,0,0,0,2.66.78Z"/></g><g class="cls-2"><path d="M898.07,617.41v63H885.49v-63Z"/><path d="M952.56,635.87q5.09,5.63,5.09,15.79v28.72H945.16v-27.3q0-5.88-3-9.14a10.76,10.76,0,0,0-8.29-3.25,11.11,11.11,0,0,0-8.56,3.47q-3.21,3.48-3.21,10v26.23H909.48V631h12.58v9.9a15.68,15.68,0,0,1,6.46-7.8,19.28,19.28,0,0,1,10.4-2.81Q947.47,630.25,952.56,635.87Z"/><path d="M1000.19,634.89A19.78,19.78,0,0,1,1007,647H995.19a9.74,9.74,0,0,0-3.21-5.71,9.64,9.64,0,0,0-6.51-2.14,7.46,7.46,0,0,0-5,1.52,5.08,5.08,0,0,0-1.79,4.1,4.17,4.17,0,0,0,1.43,3.3,10.36,10.36,0,0,0,3.57,2c1.42.48,3.48,1,6.15,1.69a64.22,64.22,0,0,1,9.14,2.64,15.08,15.08,0,0,1,6.07,4.37,12.06,12.06,0,0,1,2.54,8.07,12.48,12.48,0,0,1-5,10.26Q997.69,681,989.3,681q-9.63,0-15.43-4.33a18.18,18.18,0,0,1-7-12.35h12a8.13,8.13,0,0,0,3.21,5.75,11.61,11.61,0,0,0,7.22,2.1,7,7,0,0,0,4.91-1.56,5.26,5.26,0,0,0,1.7-4.06,4.46,4.46,0,0,0-1.48-3.48,10,10,0,0,0-3.65-2.05c-1.46-.47-3.53-1-6.2-1.69a70.83,70.83,0,0,1-9-2.54,14.32,14.32,0,0,1-5.89-4.15c-1.64-1.91-2.45-4.52-2.45-7.85a12.86,12.86,0,0,1,4.9-10.44q4.91-4,13.56-4Q994.74,630.34,1000.19,634.89Z"/><path d="M1063,658.08h-36.21q.27,6.6,3.57,9.72a11.49,11.49,0,0,0,8.21,3.12,11.86,11.86,0,0,0,7.26-2.14,9.49,9.49,0,0,0,3.71-5.8h13.29a21.38,21.38,0,0,1-4.2,9.28,21.89,21.89,0,0,1-8.25,6.42,28.23,28.23,0,0,1-24-.76,21.55,21.55,0,0,1-8.74-8.78,30.72,30.72,0,0,1,0-27,21.22,21.22,0,0,1,8.74-8.79,26.62,26.62,0,0,1,12.84-3,26.08,26.08,0,0,1,12.8,3,21.31,21.31,0,0,1,8.47,8.34,24.25,24.25,0,0,1,3,12.09A23.71,23.71,0,0,1,1063,658.08Zm-15.38-14.72a12.08,12.08,0,0,0-8.43-3.12,12.35,12.35,0,0,0-8.56,3.12q-3.48,3.12-3.84,9.19h24Q1051,646.48,1047.59,643.36Z"/><path d="M1110.47,635.51a22.61,22.61,0,0,1,8,14.1h-13.29a10.23,10.23,0,0,0-3.66-6.2,11.2,11.2,0,0,0-7.22-2.28,10.8,10.8,0,0,0-8.34,3.7q-3.35,3.7-3.34,10.84t3.34,10.84a10.8,10.8,0,0,0,8.34,3.7,11.25,11.25,0,0,0,7.22-2.27,10.28,10.28,0,0,0,3.66-6.21h13.29a22.61,22.61,0,0,1-8,14.1q-6.37,5.17-15.92,5.17a26.23,26.23,0,0,1-12.85-3.08,21.67,21.67,0,0,1-8.74-8.78,30.72,30.72,0,0,1,0-27,21.34,21.34,0,0,1,8.74-8.79,26.66,26.66,0,0,1,12.85-3Q1104.09,630.34,1110.47,635.51Z"/><path d="M1153.77,669.58v10.8h-6.6q-8.3,0-12.71-4T1130,663v-21.4h-6.86V631H1130V618.74h12.58V631h11.06v10.62h-11.06v21.58c0,2.38.47,4.05,1.43,5s2.55,1.42,4.81,1.42Z"/></g></svg>