<svg id="Layer_1" data-name="Layer 1" xmlns="http://www.w3.org/2000/svg" viewBox="0 0 1366 768"><defs><style>.cls-1{fill:none;stroke:#000;stroke-linecap:round;stroke-miterlimit:10;stroke-width:6px;}.cls-1,.cls-2{opacity:0.5;}.cls-3{fill:#ffbc42;}</style></defs><title>all</title><polyline class="cls-1" points="1137.66 220.19 1058.34 323.83 979.01 220.19"/><path class="cls-2" d="M1071,353.52l-10.91-10.9L1071,331.71a1.93,1.93,0,0,1,3.29,1.37v19.08A1.93,1.93,0,0,1,1071,353.52Z"/><g class="cls-2"><path d="M1168.25,493.68c-4.3,0-15.79-.63-22.48-7a15.91,15.91,0,0,1-5-11.79c0-16.94,19.8-20.9,37.26-24.4,20.22-4.05,33.48-7.53,33.48-18.59,0-4.21-1.09-7.2-3.42-9.41-8-7.59-30.66-6.43-52.59-5.31-31.51,1.61-67.22,3.44-87.54-15.87-10.3-9.78-15.52-24.13-15.52-42.65a5.88,5.88,0,0,1,11.75,0c0,15.39,3.88,26.55,11.87,34.14,16.65,15.82,49.69,14.13,78.84,12.65,26.64-1.37,49.65-2.54,61.28,8.52,4.7,4.46,7.08,10.49,7.08,17.93,0,21.52-23.8,26.28-42.92,30.11-16.29,3.26-27.82,6.09-27.82,12.88a4.14,4.14,0,0,0,1.35,3.29c3.37,3.21,11.8,3.92,15.36,3.74a5.88,5.88,0,0,1,.55,11.74C1169.55,493.66,1169,493.68,1168.25,493.68Z"/></g><g class="cls-2"><path d="M1024.81,653.92l27,32.45h-15.45l-23.59-29.19v29.19h-12.74V622.56h12.74v28.65l23.68-28.65h15.36Z"/><path d="M1059.6,616.92a9.29,9.29,0,0,1,11.39,0,6.39,6.39,0,0,1,2.17,5,6.33,6.33,0,0,1-2.17,4.93,9.33,9.33,0,0,1-11.39,0,6.35,6.35,0,0,1-2.16-4.93A6.42,6.42,0,0,1,1059.6,616.92Zm12,19.38v50.07h-12.74V636.3Z"/><path d="M1109.94,675.43v10.94h-6.69q-8.4,0-12.87-4.07t-4.48-13.55V647.06h-7V636.3h7V623.92h12.75V636.3h11.2v10.76h-11.2v21.87c0,2.41.48,4.09,1.44,5.06s2.59,1.44,4.88,1.44Z"/><path d="M1165.7,663.78H1129c.18,4.45,1.39,7.74,3.61,9.84a11.61,11.61,0,0,0,8.32,3.17,12.13,12.13,0,0,0,7.37-2.17,9.62,9.62,0,0,0,3.74-5.87h13.47a21.49,21.49,0,0,1-4.25,9.39,22.12,22.12,0,0,1-8.36,6.51,28.62,28.62,0,0,1-24.35-.77,21.89,21.89,0,0,1-8.86-8.9,31.15,31.15,0,0,1,0-27.34,21.59,21.59,0,0,1,8.86-8.9,27,27,0,0,1,13-3.07,26.46,26.46,0,0,1,13,3.07,21.69,21.69,0,0,1,8.59,8.45,24.64,24.64,0,0,1,3,12.25A24.32,24.32,0,0,1,1165.7,663.78Zm-15.59-14.92a12.26,12.26,0,0,0-8.54-3.16,12.55,12.55,0,0,0-8.67,3.16q-3.53,3.17-3.89,9.31h24.31Q1153.59,652,1150.11,648.86Z"/></g><path class="cls-3" d="M319.28,286.06,503,492h-105L237.59,306.71V492H151V87h86.61V268.85L398.52,87H503Z"/><g class="cls-2"><path d="M196.91,678a15.23,15.23,0,0,1-6.35,6.19,20.68,20.68,0,0,1-9.88,2.22H168.19V651.23h12.49a21.15,21.15,0,0,1,9.88,2.16,15,15,0,0,1,6.35,6.12,20.52,20.52,0,0,1,0,18.45Zm-8-.85q3.1-3,3.11-8.36t-3.11-8.42c-2.08-2-5-3-8.79-3h-4.87V680.1h4.87C183.87,680.1,186.79,679.1,188.87,677.11Z"/><path d="M221.15,660.09a8.92,8.92,0,0,1,3.53,4.43v-5.73h7v27.58h-7v-5.78a9.08,9.08,0,0,1-3.53,4.46,10.5,10.5,0,0,1-6,1.67,11.84,11.84,0,0,1-6.27-1.7,11.39,11.39,0,0,1-4.35-4.9,18.89,18.89,0,0,1,0-15.08,11.45,11.45,0,0,1,4.35-4.9,11.84,11.84,0,0,1,6.27-1.7A10.57,10.57,0,0,1,221.15,660.09Zm-9.06,6.62a9.62,9.62,0,0,0,0,11.72,7.56,7.56,0,0,0,10.53,0,9.27,9.27,0,0,0,0-11.65,7,7,0,0,0-5.25-2.16A6.85,6.85,0,0,0,212.09,666.71Z"/><path d="M262.06,661.53c1.9,2.09,2.84,5,2.84,8.81v16h-7V671.14a7.23,7.23,0,0,0-1.69-5.11,6,6,0,0,0-4.63-1.81,6.22,6.22,0,0,0-4.78,1.94,7.93,7.93,0,0,0-1.79,5.57v14.64h-7V649.53h7v14.79a8.79,8.79,0,0,1,3.61-4.36,10.78,10.78,0,0,1,5.8-1.56A9.76,9.76,0,0,1,262.06,661.53Z"/><path d="M289,665.71v5.82H267.79v-5.82Z"/><path d="M325.83,678a15.23,15.23,0,0,1-6.35,6.19,20.68,20.68,0,0,1-9.88,2.22H297.11V651.23H309.6a21.15,21.15,0,0,1,9.88,2.16,15,15,0,0,1,6.35,6.12,20.52,20.52,0,0,1,0,18.45Zm-8-.85q3.1-3,3.11-8.36t-3.11-8.42c-2.08-2-5-3-8.78-3h-4.88V680.1H309C312.79,680.1,315.71,679.1,317.79,677.11Z"/><path d="M333.69,648.12a5.13,5.13,0,0,1,6.27,0,3.52,3.52,0,0,1,1.2,2.76,3.47,3.47,0,0,1-1.2,2.71,5.13,5.13,0,0,1-6.27,0,3.5,3.5,0,0,1-1.19-2.71A3.54,3.54,0,0,1,333.69,648.12Zm6.62,10.67v27.58h-7V658.79Z"/><path d="M361.42,680.35v6h-3.68q-4.64,0-7.1-2.24t-2.46-7.47V664.71h-3.84v-5.92h3.84V652h7v6.82h6.18v5.92h-6.18v12a3.89,3.89,0,0,0,.8,2.79,3.73,3.73,0,0,0,2.69.8Z"/><path d="M384.32,665.71v5.82H363.16v-5.82Z"/><path d="M421.2,678a15.23,15.23,0,0,1-6.35,6.19,20.68,20.68,0,0,1-9.88,2.22H392.48V651.23H405a21.15,21.15,0,0,1,9.88,2.16,15,15,0,0,1,6.35,6.12,20.52,20.52,0,0,1,0,18.45Zm-8-.85q3.1-3,3.11-8.36t-3.11-8.42q-3.11-3-8.78-3H399.5V680.1h4.88Q410.05,680.1,413.16,677.11Z"/><path d="M445.44,660.09a8.94,8.94,0,0,1,3.54,4.43v-5.73h7v27.58h-7v-5.78a9.1,9.1,0,0,1-3.54,4.46,10.49,10.49,0,0,1-6,1.67,11.79,11.79,0,0,1-6.27-1.7,11.35,11.35,0,0,1-4.36-4.9,18.89,18.89,0,0,1,0-15.08,11.4,11.4,0,0,1,4.36-4.9,11.79,11.79,0,0,1,6.27-1.7A10.56,10.56,0,0,1,445.44,660.09Zm-9.06,6.62a9.62,9.62,0,0,0,0,11.72,7.56,7.56,0,0,0,10.53,0,9.23,9.23,0,0,0,0-11.65,7,7,0,0,0-5.26-2.16A6.86,6.86,0,0,0,436.38,666.71Z"/><path d="M486.36,661.53q2.83,3.13,2.83,8.81v16h-7V671.14a7.23,7.23,0,0,0-1.69-5.11,6,6,0,0,0-4.63-1.81,6.22,6.22,0,0,0-4.78,1.94,7.93,7.93,0,0,0-1.79,5.57v14.64h-7V649.53h7v14.79a8.79,8.79,0,0,1,3.61-4.36,10.78,10.78,0,0,1,5.8-1.56A9.78,9.78,0,0,1,486.36,661.53Z"/></g><circle class="cls-3" cx="328.59" cy="584.13" r="13.56"/><rect class="cls-3" x="153" y="570.57" width="136.33" height="27.12" transform="translate(442.33 1168.25) rotate(180)"/><rect class="cls-3" x="367.85" y="570.57" width="136.33" height="27.12" transform="translate(872.03 1168.25) rotate(180)"/><circle class="cls-3" cx="1058.34" cy="147.65" r="8.85"/><rect class="cls-3" x="1068.46" y="185.37" width="88.99" height="17.7" transform="translate(463.31 -730.09) rotate(45)"/><rect class="cls-3" x="959.23" y="185.37" width="88.99" height="17.7" transform="translate(156.65 766.62) rotate(-45)"/><path class="cls-2" d="M1045.68,353.52l10.9-10.9-10.9-10.91a1.93,1.93,0,0,0-3.29,1.37v19.08A1.93,1.93,0,0,0,1045.68,353.52Z"/></svg>