<svg id="Layer_1" data-name="Layer 1" xmlns="http://www.w3.org/2000/svg" viewBox="0 0 1366 768"><defs><style>.cls-1{opacity:0.5;}.cls-2{fill:#ffbc42;}</style></defs><title>all</title><g class="cls-1"><path d="M1244.24,200.4a9.49,9.49,0,0,0,8.88-5.67,9.75,9.75,0,0,0-8.88-13.73H1206c-5.08,0-9.7,3.65-10.2,8.7a9.69,9.69,0,0,0,9.65,10.7H1168.7a9.52,9.52,0,0,0,8.89-5.67A9.76,9.76,0,0,0,1168.7,181h-38.25c-5.07,0-9.7,3.65-10.2,8.7a9.7,9.7,0,0,0,9.65,10.7H1017.48a7.29,7.29,0,0,0,7.29-7.29v-4.82a7.29,7.29,0,0,0-7.29-7.29H973.86a7.29,7.29,0,0,0-7.29,7.29v4.82a7.29,7.29,0,0,0,7.29,7.29H861.44a9.52,9.52,0,0,0,8.89-5.67A9.76,9.76,0,0,0,861.44,181H823.19c-5.07,0-9.69,3.65-10.2,8.7a9.7,9.7,0,0,0,9.65,10.7H805v25.74h17.6v30.08h9.73a9.67,9.67,0,0,1,0,19.34h-9.73v24.32h9.73a9.68,9.68,0,0,1,0,19.35h-9.72v24.31h9.72a9.68,9.68,0,0,1,0,19.35h-9.72v38.74h38.79V226.14H976.28V239.2l-78.1,143h195l-78.09-143V226.14H1129.9v30.08h9.64a9.67,9.67,0,1,1,0,19.34h-9.64v24.32h9.64a9.68,9.68,0,0,1,0,19.35h-9.64v24.31h9.64a9.68,9.68,0,0,1,0,19.35h-9.64v38.74h38.79V226.14h36.74v30.08h9.64a9.67,9.67,0,1,1,0,19.34h-9.64v24.32h9.64a9.68,9.68,0,0,1,0,19.35h-9.64v24.31h9.64a9.68,9.68,0,0,1,0,19.35h-9.64v38.74h38.79V226.14h23.51V200.4ZM992.09,362.89H976.28V343.54h15.81a9.68,9.68,0,0,1,0,19.35Zm0-43.66H976.28V299.88h15.81a9.68,9.68,0,0,1,0,19.35Zm0-43.67H976.28V256.22h15.81a9.67,9.67,0,0,1,0,19.34Z"/></g><path class="cls-2" d="M244.4,426.71H387.69V492H159.16V65.17H244.4Z"/><g class="cls-1"><path d="M120.07,675.37a14.85,14.85,0,0,1-6.2,6.06,20.32,20.32,0,0,1-9.66,2.16H92V649.25h12.21a20.67,20.67,0,0,1,9.66,2.12,14.61,14.61,0,0,1,6.2,6,20,20,0,0,1,0,18Zm-7.86-.82c2-1.95,3-4.67,3-8.18s-1-6.27-3-8.22-4.89-2.92-8.58-2.92H98.86v22.23h4.77C107.32,677.46,110.19,676.49,112.21,674.55Z"/><path d="M127.76,646.21a5,5,0,0,1,6.13,0,3.5,3.5,0,0,1,1.17,2.7,3.44,3.44,0,0,1-1.17,2.65,5,5,0,0,1-6.13,0,3.4,3.4,0,0,1-1.17-2.65A3.46,3.46,0,0,1,127.76,646.21Zm6.47,10.43v27h-6.86v-27Z"/><path d="M154.85,677.71v5.88h-3.6q-4.53,0-6.93-2.19t-2.41-7.29V662.43h-3.74v-5.79h3.74V650h6.86v6.66h6v5.79h-6v11.78a3.79,3.79,0,0,0,.78,2.72,3.63,3.63,0,0,0,2.62.78Z"/><path d="M177.23,663.41v5.69H156.56v-5.69Z"/><path d="M213.27,675.37a14.8,14.8,0,0,1-6.2,6.06,20.28,20.28,0,0,1-9.65,2.16H185.2V649.25h12.22a20.63,20.63,0,0,1,9.65,2.12,14.56,14.56,0,0,1,6.2,6,20,20,0,0,1,0,18Zm-7.85-.82c2-1.95,3-4.67,3-8.18s-1-6.27-3-8.22-4.89-2.92-8.59-2.92h-4.77v22.23h4.77Q202.38,677.46,205.42,674.55Z"/><path d="M237,657.91a8.72,8.72,0,0,1,3.45,4.33v-5.6h6.81v27h-6.81V678A8.81,8.81,0,0,1,237,682.3a10.25,10.25,0,0,1-5.84,1.64,11.62,11.62,0,0,1-6.13-1.66,11.14,11.14,0,0,1-4.26-4.79,18.52,18.52,0,0,1,0-14.74A11.14,11.14,0,0,1,225,658a11.61,11.61,0,0,1,6.13-1.65A10.38,10.38,0,0,1,237,657.91Zm-8.86,6.47a8.14,8.14,0,0,0-1.94,5.74,8.06,8.06,0,0,0,1.94,5.72,7.39,7.39,0,0,0,10.29-.05,9,9,0,0,0,0-11.39,6.79,6.79,0,0,0-5.13-2.11A6.7,6.7,0,0,0,228.11,664.38Z"/><path d="M277,659.32q2.78,3.06,2.78,8.61v15.66h-6.81V668.71a7,7,0,0,0-1.66-5,5.88,5.88,0,0,0-4.52-1.77,6.06,6.06,0,0,0-4.67,1.89,7.75,7.75,0,0,0-1.75,5.45v14.3h-6.86v-36h6.86V662a8.6,8.6,0,0,1,3.52-4.25,10.51,10.51,0,0,1,5.67-1.53A9.55,9.55,0,0,1,277,659.32Z"/><path d="M303.22,663.41v5.69H282.55v-5.69Z"/><path d="M339.27,675.37a14.82,14.82,0,0,1-6.21,6.06,20.25,20.25,0,0,1-9.65,2.16H311.2V649.25h12.21a20.6,20.6,0,0,1,9.65,2.12,14.58,14.58,0,0,1,6.21,6,20,20,0,0,1,0,18Zm-7.86-.82c2-1.95,3-4.67,3-8.18s-1-6.27-3-8.22-4.89-2.92-8.58-2.92h-4.77v22.23h4.77C326.52,677.46,329.39,676.49,331.41,674.55Z"/><path d="M347,646.21a5,5,0,0,1,6.13,0,3.46,3.46,0,0,1,1.17,2.7,3.4,3.4,0,0,1-1.17,2.65,5,5,0,0,1-6.13,0,3.39,3.39,0,0,1-1.16-2.65A3.45,3.45,0,0,1,347,646.21Zm6.47,10.43v27h-6.86v-27Z"/><path d="M374.05,677.71v5.88h-3.6q-4.53,0-6.93-2.19t-2.41-7.29V662.43h-3.75v-5.79h3.75V650H368v6.66h6v5.79h-6v11.78a3.84,3.84,0,0,0,.77,2.72,3.66,3.66,0,0,0,2.63.78Z"/><path d="M396.43,663.41v5.69H375.75v-5.69Z"/><path d="M432.47,675.37a14.85,14.85,0,0,1-6.2,6.06,20.3,20.3,0,0,1-9.65,2.16H404.4V649.25h12.22a20.66,20.66,0,0,1,9.65,2.12,14.61,14.61,0,0,1,6.2,6,20,20,0,0,1,0,18Zm-7.85-.82c2-1.95,3-4.67,3-8.18s-1-6.27-3-8.22-4.89-2.92-8.59-2.92h-4.77v22.23H416Q421.58,677.46,424.62,674.55Z"/><path d="M440.16,646.21a5,5,0,0,1,6.13,0,3.46,3.46,0,0,1,1.17,2.7,3.4,3.4,0,0,1-1.17,2.65,5,5,0,0,1-6.13,0,3.4,3.4,0,0,1-1.17-2.65A3.46,3.46,0,0,1,440.16,646.21Zm6.47,10.43v27h-6.86v-27Z"/><path d="M467.26,677.71v5.88h-3.61q-4.51,0-6.92-2.19t-2.41-7.29V662.43h-3.75v-5.79h3.75V650h6.86v6.66h6v5.79h-6v11.78a3.8,3.8,0,0,0,.77,2.72,3.64,3.64,0,0,0,2.63.78Z"/></g><circle class="cls-2" cx="359.03" cy="583.68" r="13.25"/><circle class="cls-2" cx="149.06" cy="583.68" r="13.25"/><circle class="cls-2" cx="410.65" cy="583.68" r="13.25"/><rect class="cls-2" x="187.42" y="570.42" width="133.24" height="26.51" transform="translate(508.09 1167.35) rotate(180)"/><g class="cls-1"><path d="M790.16,674.06H811.1v9.53H777.71V621.24h12.45Z"/><path d="M846.51,637a15.82,15.82,0,0,1,6.27,7.86V634.66h12.37v48.93H852.78V673.35a16,16,0,0,1-6.27,7.9,18.54,18.54,0,0,1-10.6,3,21,21,0,0,1-11.13-3,20.26,20.26,0,0,1-7.72-8.7,33.48,33.48,0,0,1,0-26.76,20.26,20.26,0,0,1,7.72-8.7,21,21,0,0,1,11.13-3A18.83,18.83,0,0,1,846.51,637Zm-16.07,11.75q-3.54,3.79-3.54,10.42c0,4.42,1.18,7.87,3.54,10.38a13.39,13.39,0,0,0,18.68-.09q3.66-3.84,3.66-10.29t-3.66-10.38a12.34,12.34,0,0,0-9.32-3.84A12.17,12.17,0,0,0,830.44,648.71Z"/><path d="M915.05,637.05a20.26,20.26,0,0,1,7.72,8.7,33.48,33.48,0,0,1,0,26.76,20.26,20.26,0,0,1-7.72,8.7,21,21,0,0,1-11.13,3,18.34,18.34,0,0,1-10.56-3,16.13,16.13,0,0,1-6.22-7.9v10.24H874.69V618.24h12.45v26.58a15.94,15.94,0,0,1,6.22-7.86,18.62,18.62,0,0,1,10.56-2.91A21,21,0,0,1,915.05,637.05Zm-24.34,11.7q-3.66,3.84-3.66,10.38t3.66,10.29a13.39,13.39,0,0,0,18.68.09c2.36-2.51,3.54-6,3.54-10.38s-1.18-7.89-3.54-10.42a12.17,12.17,0,0,0-9.36-3.8A12.34,12.34,0,0,0,890.71,648.75Z"/><path d="M969.85,637.05a22,22,0,0,1,9,8.7,28.93,28.93,0,0,1,0,26.72,22.45,22.45,0,0,1-9,8.7,28.68,28.68,0,0,1-25.7,0,22.41,22.41,0,0,1-9-8.7,28.93,28.93,0,0,1,0-26.72,22,22,0,0,1,9-8.7,29,29,0,0,1,25.7,0Zm-21.68,11.44q-3.63,3.66-3.63,10.64t3.63,10.64a12.46,12.46,0,0,0,17.66,0q3.61-3.66,3.62-10.64t-3.62-10.64a12.46,12.46,0,0,0-17.66,0Z"/><path d="M1008.84,636.65a19.29,19.29,0,0,1,10.07-2.69v13.33h-3.62q-13.69,0-13.69,12.72v23.58H989.15V634.66h12.45V644A20.58,20.58,0,0,1,1008.84,636.65Z"/><path d="M1055.56,637a15.93,15.93,0,0,1,6.27,7.86V634.66h12.36v48.93h-12.36V673.35a16.11,16.11,0,0,1-6.27,7.9,18.54,18.54,0,0,1-10.6,3,21,21,0,0,1-11.13-3,20.26,20.26,0,0,1-7.72-8.7,33.48,33.48,0,0,1,0-26.76,20.26,20.26,0,0,1,7.72-8.7,21,21,0,0,1,11.13-3A18.83,18.83,0,0,1,1055.56,637Zm-16.07,11.75q-3.54,3.79-3.53,10.42c0,4.42,1.17,7.87,3.53,10.38a13.39,13.39,0,0,0,18.68-.09q3.66-3.84,3.66-10.29t-3.66-10.38a12.34,12.34,0,0,0-9.32-3.84A12.17,12.17,0,0,0,1039.49,648.71Z"/><path d="M1111.64,672.91v10.68h-6.53q-8.22,0-12.59-4t-4.37-13.25V645.18h-6.8V634.66h6.8v-12.1h12.45v12.1h11v10.52h-11v21.37q0,3.53,1.42,5t4.77,1.41Z"/><path d="M1156,637.05a22,22,0,0,1,9,8.7,28.93,28.93,0,0,1,0,26.72,22.45,22.45,0,0,1-9,8.7,28.7,28.7,0,0,1-25.71,0,22.38,22.38,0,0,1-9-8.7,28.93,28.93,0,0,1,0-26.72,21.94,21.94,0,0,1,9-8.7,29,29,0,0,1,25.71,0Zm-21.69,11.44q-3.61,3.66-3.62,10.64t3.62,10.64a12.47,12.47,0,0,0,17.67,0q3.62-3.66,3.61-10.64T1152,648.49a12.47,12.47,0,0,0-17.67,0Z"/><path d="M1195,636.65a19.28,19.28,0,0,1,10.06-2.69v13.33h-3.62q-13.68,0-13.68,12.72v23.58h-12.46V634.66h12.46V644A20.5,20.5,0,0,1,1195,636.65Z"/><path d="M1220.36,634.66l13.34,33.21,12.37-33.21h13.69l-30,72.25H1216l11-24.73-20.58-47.52Z"/></g><rect class="cls-2" x="898.18" y="382.23" width="194.97" height="38.79" transform="translate(1991.34 803.26) rotate(180)"/><circle class="cls-2" cx="842.04" cy="401.63" r="19.39"/><circle class="cls-2" cx="1149.3" cy="401.63" r="19.39"/><circle class="cls-2" cx="1224.84" cy="401.63" r="19.39"/></svg>