<svg id="Layer_1" data-name="Layer 1" xmlns="http://www.w3.org/2000/svg" viewBox="0 0 1366 768"><defs><style>.cls-1{opacity:0.5;}.cls-2{fill:none;}.cls-3{fill:#ffbc42;}</style></defs><title>all</title><g class="cls-1"><path class="cls-2" d="M1190,247c-.43.3-.87.59-1.35.88C1189.15,247.61,1189.59,247.32,1190,247Z"/><path class="cls-2" d="M890.59,240.35a6,6,0,0,1-.22-1.57A6,6,0,0,0,890.59,240.35Z"/><path class="cls-2" d="M1196,238.78a6,6,0,0,1-.22,1.57A6,6,0,0,0,1196,238.78Z"/><path class="cls-2" d="M892.25,243.44a9.42,9.42,0,0,1-.65-.95A9.42,9.42,0,0,0,892.25,243.44Z"/><path class="cls-2" d="M893.69,245c-.33-.3-.6-.6-.88-.9A12.31,12.31,0,0,0,893.69,245Z"/><path class="cls-2" d="M891.22,241.91a6.63,6.63,0,0,1-.43-1A6.63,6.63,0,0,0,891.22,241.91Z"/><path class="cls-2" d="M895.5,246.44c-.4-.29-.75-.59-1.1-.89C894.75,245.85,895.11,246.15,895.5,246.44Z"/><path class="cls-2" d="M1193.57,244.05c-.28.3-.56.6-.88.9C1193,244.65,1193.29,244.35,1193.57,244.05Z"/><path class="cls-2" d="M1194.77,242.49a9.42,9.42,0,0,1-.65.95A9.42,9.42,0,0,0,1194.77,242.49Z"/><path class="cls-2" d="M1195.59,240.86a7.82,7.82,0,0,1-.44,1A7.82,7.82,0,0,0,1195.59,240.86Z"/><path class="cls-2" d="M900.27,249.33c-.56-.29-1.08-.58-1.59-.87C899.19,248.75,899.71,249,900.27,249.33Z"/><path class="cls-2" d="M923.18,257.2c-1.18-.29-2.35-.59-3.47-.89C920.83,256.61,922,256.91,923.18,257.2Z"/><path class="cls-2" d="M928.25,258.39c-1.34-.3-2.67-.6-4-.91C925.58,257.79,926.91,258.09,928.25,258.39Z"/><path class="cls-2" d="M918.48,256c-1.05-.29-2.08-.59-3.08-.88C916.4,255.39,917.43,255.69,918.48,256Z"/><path class="cls-2" d="M939.79,260.7q-2.79-.51-5.43-1Q937,260.19,939.79,260.7Z"/><path class="cls-2" d="M933.76,259.55c-1.56-.31-3.08-.63-4.57-.95C930.68,258.92,932.2,259.24,933.76,259.55Z"/><path class="cls-2" d="M914.15,254.72l-2.75-.87Z"/><path class="cls-2" d="M897.7,247.9c-.47-.29-.91-.58-1.35-.88C896.79,247.32,897.23,247.61,897.7,247.9Z"/><path class="cls-2" d="M1187.7,248.46c-.52.29-1,.58-1.6.87C1186.66,249,1187.18,248.75,1187.7,248.46Z"/><path class="cls-2" d="M903.21,250.72c-.65-.28-1.26-.57-1.85-.86C902,250.15,902.56,250.44,903.21,250.72Z"/><path class="cls-2" d="M910.15,253.42c-.83-.29-1.64-.57-2.42-.86C908.51,252.85,909.32,253.13,910.15,253.42Z"/><path class="cls-2" d="M906.5,252.09c-.73-.29-1.44-.57-2.13-.86C905.06,251.52,905.77,251.8,906.5,252.09Z"/><path class="cls-2" d="M1192,245.55c-.36.3-.71.6-1.11.89C1191.27,246.15,1191.62,245.85,1192,245.55Z"/><path class="cls-2" d="M1171,255.1l-3.09.88Z"/><path class="cls-2" d="M1182,251.23c-.69.29-1.39.57-2.13.86C1180.6,251.8,1181.31,251.52,1182,251.23Z"/><path class="cls-2" d="M1162.07,257.48c-1.28.31-2.61.61-4,.91C1159.46,258.09,1160.79,257.79,1162.07,257.48Z"/><path class="cls-2" d="M1178.65,252.55c-.79.3-1.59.59-2.43.87C1177.06,253.14,1177.86,252.85,1178.65,252.55Z"/><path class="cls-2" d="M1146.57,260.7h0c1.86-.33,3.68-.68,5.45-1C1150.25,260,1148.43,260.37,1146.57,260.7Z"/><path class="cls-2" d="M1175,253.85l-2.75.87Z"/><path class="cls-2" d="M1185,249.86c-.6.29-1.21.58-1.86.86C1183.81,250.44,1184.42,250.15,1185,249.86Z"/><path class="cls-2" d="M1157.18,258.6c-1.49.32-3,.64-4.58.95C1154.16,259.24,1155.69,258.92,1157.18,258.6Z"/><path class="cls-2" d="M1166.67,256.31c-1.13.3-2.3.6-3.48.89C1164.37,256.91,1165.54,256.61,1166.67,256.31Z"/><path d="M1152,259.67l.58-.12c1.56-.31,3.09-.63,4.58-.95l.94-.21c1.34-.3,2.67-.6,4-.91l1.12-.28c1.18-.29,2.35-.59,3.48-.89l1.22-.33,3.09-.88,1.24-.38,2.75-.87,1.25-.43c.84-.28,1.64-.57,2.43-.87l1.22-.46c.74-.29,1.44-.57,2.13-.86l1.16-.51c.65-.28,1.26-.57,1.86-.86l1.08-.53c.56-.29,1.08-.58,1.6-.87.32-.19.66-.37,1-.56.48-.29.92-.58,1.35-.88l.85-.58c.4-.29.75-.59,1.11-.89s.49-.39.71-.6.6-.6.88-.9.39-.4.55-.61a9.42,9.42,0,0,0,.65-.95,5.25,5.25,0,0,0,.38-.58,7.82,7.82,0,0,0,.44-1,5.27,5.27,0,0,0,.19-.51,6,6,0,0,0,.22-1.57c0-8.68-19-16.48-49.43-21.92V132.22c0-9-46.28-16.22-103.38-16.22S939.8,123.26,939.8,132.22v84.64c-30.38,5.44-49.43,13.24-49.43,21.92a6,6,0,0,0,.22,1.57,5.38,5.38,0,0,0,.2.51,6.63,6.63,0,0,0,.43,1c.1.2.26.39.38.58a9.42,9.42,0,0,0,.65.95c.17.21.37.41.56.61s.55.6.88.9.47.4.71.6.7.6,1.1.89l.85.58c.44.3.88.59,1.35.88.31.19.65.37,1,.56.51.29,1,.58,1.59.87l1.09.53c.59.29,1.2.58,1.85.86l1.16.51c.69.29,1.4.57,2.13.86l1.23.47c.78.29,1.59.57,2.42.86l1.25.43,2.75.87,1.25.38c1,.29,2,.59,3.08.88l1.23.33c1.12.3,2.29.6,3.47.89l1.12.28c1.28.31,2.61.61,4,.91l.94.21c1.49.32,3,.64,4.57.95l.6.12q2.64.52,5.43,1c27.21,4.87,63.51,7.85,103.4,7.85s76.17-3,103.38-7.85h0C1148.43,260.37,1150.25,260,1152,259.67Z"/><path d="M1043.19,282.33c-38.29,0-74.59-2.69-103.39-7.6v16.45a13.45,13.45,0,0,0-8.61-3.35c-10.19,0-18.45,12.95-18.45,28.93s8.26,28.92,18.45,28.92a13.68,13.68,0,0,0,9.18-3.86c6,57.45,59.65,102.43,102.82,102.43S1139.78,399.47,1146,342.2a13.5,13.5,0,0,0,8.78,3.48c10.19,0,18.45-12.95,18.45-28.92s-8.26-28.93-18.45-28.93a13.33,13.33,0,0,0-8.18,3V274.73C1117.77,279.64,1081.47,282.33,1043.19,282.33Z"/></g><path class="cls-3" d="M550.92,73.53V492H467V200L359.67,492H286.52L179.21,201.23V492H94.68V73.53H197.19L324.3,388.28,449,73.53Z"/><g class="cls-1"><path d="M242.78,674.26a14.7,14.7,0,0,1-6.13,6,20,20,0,0,1-9.54,2.14H215V648.44h12.07a20.44,20.44,0,0,1,9.54,2.09,14.48,14.48,0,0,1,6.13,5.92,19.76,19.76,0,0,1,0,17.81Zm-7.76-.81q3-2.9,3-8.08c0-3.49-1-6.21-3-8.13s-4.83-2.88-8.49-2.88h-4.71v22h4.71C230.19,676.33,233,675.37,235,673.45Z"/><path d="M266.2,657a8.66,8.66,0,0,1,3.41,4.28v-5.53h6.73v26.64h-6.73v-5.58a8.71,8.71,0,0,1-3.41,4.3,10.08,10.08,0,0,1-5.77,1.62,11.47,11.47,0,0,1-6.06-1.64,11.06,11.06,0,0,1-4.2-4.74,18.19,18.19,0,0,1,0-14.56,11.06,11.06,0,0,1,4.2-4.74,11.47,11.47,0,0,1,6.06-1.63A10.3,10.3,0,0,1,266.2,657Zm-8.75,6.4a8,8,0,0,0-1.92,5.67,7.93,7.93,0,0,0,1.92,5.65,7.29,7.29,0,0,0,10.17-.05,8.94,8.94,0,0,0,0-11.25,6.73,6.73,0,0,0-5.08-2.09A6.62,6.62,0,0,0,257.45,663.4Z"/><path d="M305.72,658.4c1.83,2,2.74,4.85,2.74,8.51v15.48h-6.73V667.68a7,7,0,0,0-1.63-4.93,5.82,5.82,0,0,0-4.48-1.76,6,6,0,0,0-4.61,1.88,7.66,7.66,0,0,0-1.73,5.38v14.14H282.5V646.81h6.78v14.28a8.43,8.43,0,0,1,3.48-4.21,10.38,10.38,0,0,1,5.61-1.51A9.43,9.43,0,0,1,305.72,658.4Z"/><path d="M331.69,662.43v5.63H311.25v-5.63Z"/><path d="M367.32,674.26a14.81,14.81,0,0,1-6.13,6,20,20,0,0,1-9.55,2.14H339.57V648.44h12.07a20.48,20.48,0,0,1,9.55,2.09,14.59,14.59,0,0,1,6.13,5.92,19.85,19.85,0,0,1,0,17.81Zm-7.77-.81c2-1.93,3-4.62,3-8.08s-1-6.21-3-8.13-4.83-2.88-8.49-2.88h-4.71v22h4.71Q356.55,676.33,359.55,673.45Z"/><path d="M390.73,657a8.74,8.74,0,0,1,3.42,4.28v-5.53h6.73v26.64h-6.73v-5.58a8.79,8.79,0,0,1-3.42,4.3,10.08,10.08,0,0,1-5.77,1.62,11.47,11.47,0,0,1-6.06-1.64,11.06,11.06,0,0,1-4.2-4.74,18.19,18.19,0,0,1,0-14.56,11.06,11.06,0,0,1,4.2-4.74,11.47,11.47,0,0,1,6.06-1.63A10.3,10.3,0,0,1,390.73,657ZM382,663.4a8,8,0,0,0-1.92,5.67,7.93,7.93,0,0,0,1.92,5.65,7.29,7.29,0,0,0,10.17-.05,8.91,8.91,0,0,0,0-11.25,6.72,6.72,0,0,0-5.07-2.09A6.62,6.62,0,0,0,382,663.4Z"/><path d="M430.25,658.4c1.83,2,2.75,4.85,2.75,8.51v15.48h-6.74V667.68a7,7,0,0,0-1.63-4.93,5.81,5.81,0,0,0-4.47-1.76,6,6,0,0,0-4.62,1.88,7.66,7.66,0,0,0-1.73,5.38v14.14H407V646.81h6.78v14.28a8.5,8.5,0,0,1,3.49-4.21,10.34,10.34,0,0,1,5.6-1.51A9.4,9.4,0,0,1,430.25,658.4Z"/></g><g class="cls-1"><path d="M869.56,620.46v60.93H857.34V638.88l-15.63,42.51H831.06l-15.62-42.34v42.34H803.13V620.46h14.93l18.5,45.83,18.16-45.83Z"/><path d="M927,633v48.36H914.69v-9.78a15.39,15.39,0,0,1-6.33,7.64A18.74,18.74,0,0,1,898.19,682q-8.37,0-13.35-5.5t-5-15.36V633h12.22v26.71c0,3.84,1,6.83,3,9a10.43,10.43,0,0,0,8,3.19,11,11,0,0,0,8.47-3.41q3.13-3.4,3.14-9.78V633Z"/><path d="M969,636.87a19.25,19.25,0,0,1,6.63,11.87H964.1a9.61,9.61,0,0,0-3.14-5.59,9.5,9.5,0,0,0-6.38-2.09,7.3,7.3,0,0,0-4.88,1.48,5,5,0,0,0-1.75,4,4.06,4.06,0,0,0,1.4,3.23,10,10,0,0,0,3.49,1.92c1.4.47,3.4,1,6,1.66a61.62,61.62,0,0,1,8.95,2.57,14.9,14.9,0,0,1,5.94,4.28,11.83,11.83,0,0,1,2.48,7.9,12.2,12.2,0,0,1-4.84,10q-4.85,3.84-13,3.84-9.44,0-15.11-4.23a17.82,17.82,0,0,1-6.89-12.09h11.78a8,8,0,0,0,3.15,5.63,11.37,11.37,0,0,0,7.07,2.05,6.85,6.85,0,0,0,4.8-1.53,5.15,5.15,0,0,0,1.66-4,4.37,4.37,0,0,0-1.44-3.4,9.52,9.52,0,0,0-3.58-2q-2.14-.71-6.07-1.66a68,68,0,0,1-8.77-2.49,14,14,0,0,1-5.76-4.06c-1.61-1.86-2.4-4.42-2.4-7.68a12.57,12.57,0,0,1,4.8-10.21q4.8-3.93,13.27-3.93Q963.66,632.42,969,636.87Z"/><path d="M1011.24,670.83v10.56h-6.46q-8.12,0-12.44-3.93T988,664.37v-21H981.3V633H988v-12h12.31v12h10.82v10.39h-10.82v21.12q0,3.5,1.39,4.89c.93.93,2.51,1.4,4.72,1.4Z"/><path d="M1049.47,635.3a15.62,15.62,0,0,1,6.2,7.77V633h12.22v48.36h-12.22V671.27a15.85,15.85,0,0,1-6.2,7.81A18.37,18.37,0,0,1,1039,682a20.78,20.78,0,0,1-11-3,20,20,0,0,1-7.64-8.6,33.15,33.15,0,0,1,0-26.44,20,20,0,0,1,7.64-8.6,20.78,20.78,0,0,1,11-3A18.58,18.58,0,0,1,1049.47,635.3Zm-15.88,11.61q-3.49,3.75-3.5,10.3t3.5,10.26a13.22,13.22,0,0,0,18.46-.09q3.63-3.79,3.62-10.17T1052.05,647a12.2,12.2,0,0,0-9.21-3.8A12,12,0,0,0,1033.59,646.91Z"/><path d="M1116.39,637.48a22.16,22.16,0,0,1,7.81,13.79h-13a10,10,0,0,0-3.58-6.06,11,11,0,0,0-7.07-2.23,10.55,10.55,0,0,0-8.16,3.62q-3.27,3.63-3.27,10.61t3.27,10.6a10.53,10.53,0,0,0,8.16,3.63,11,11,0,0,0,7.07-2.23,10,10,0,0,0,3.58-6.06h13a22.14,22.14,0,0,1-7.81,13.79q-6.26,5.07-15.59,5.06a25.74,25.74,0,0,1-12.57-3,21.14,21.14,0,0,1-8.55-8.6,30,30,0,0,1,0-26.4,20.73,20.73,0,0,1,8.55-8.6,26.05,26.05,0,0,1,12.57-3Q1110.15,632.42,1116.39,637.48Z"/><path d="M1175.09,637.83q5,5.5,5,15.45v28.11h-12.23V654.68c0-3.84-1-6.82-3-8.95a10.58,10.58,0,0,0-8.12-3.19,10.85,10.85,0,0,0-8.38,3.41q-3.15,3.4-3.14,9.78v25.66h-12.31v-64.6h12.31v25.93a15.37,15.37,0,0,1,6.32-7.64,18.85,18.85,0,0,1,10.17-2.75Q1170.11,632.33,1175.09,637.83Z"/><path d="M1235.93,659.57h-35.44q.27,6.45,3.5,9.51a11.2,11.2,0,0,0,8,3.06,11.62,11.62,0,0,0,7.11-2.1,9.31,9.31,0,0,0,3.63-5.67h13a20.91,20.91,0,0,1-4.1,9.08,21.51,21.51,0,0,1-8.08,6.28,27.66,27.66,0,0,1-23.52-.74,21.16,21.16,0,0,1-8.56-8.6,30.09,30.09,0,0,1,0-26.4,20.75,20.75,0,0,1,8.56-8.6,26,26,0,0,1,12.57-3,25.48,25.48,0,0,1,12.53,3,20.86,20.86,0,0,1,8.29,8.16,23.86,23.86,0,0,1,2.48,16Zm-15-14.41a11.84,11.84,0,0,0-8.25-3,12.11,12.11,0,0,0-8.38,3q-3.4,3.06-3.76,9H1224Q1224.24,648.23,1220.88,645.16Z"/></g><rect class="cls-3" x="912.09" y="362.69" width="119.89" height="21.37"/><rect class="cls-3" x="1055.04" y="362.69" width="119.89" height="21.37"/><rect class="cls-3" x="336.33" y="570.53" width="131.69" height="26.2" transform="translate(804.36 1167.26) rotate(180)"/><rect class="cls-3" x="179.82" y="570.53" width="131.69" height="26.2" transform="translate(491.33 1167.26) rotate(180)"/></svg>