<svg id="Layer_1" data-name="Layer 1" xmlns="http://www.w3.org/2000/svg" viewBox="0 0 1366 768"><defs><style>.cls-1,.cls-4{fill:none;stroke:#000;stroke-linecap:round;stroke-width:6px;}.cls-1{stroke-miterlimit:10;}.cls-1,.cls-3{opacity:0.5;}.cls-2{fill:#ffbc42;}.cls-4{stroke-linejoin:round;}</style></defs><title>all</title><line class="cls-1" x1="1214.09" y1="274.68" x2="1214.09" y2="82"/><path class="cls-2" d="M456,481H375.52L195.1,207V481H114.6V77.91h80.5L375.52,354.25V77.91H456Z"/><g class="cls-3"><path d="M226.72,666.63a15.77,15.77,0,0,1-6.57,6.42,21.5,21.5,0,0,1-10.24,2.3H197V639h12.94a22,22,0,0,1,10.24,2.24,15.47,15.47,0,0,1,6.57,6.34,21.22,21.22,0,0,1,0,19.1Zm-8.33-.88c2.15-2.06,3.23-4.94,3.23-8.66s-1.08-6.65-3.23-8.71-5.18-3.09-9.1-3.09h-5v23.56h5Q215.17,668.85,218.39,665.75Z"/><path d="M251.83,648.12a9.35,9.35,0,0,1,3.66,4.59v-5.93h7.22v28.57h-7.22v-6a9.42,9.42,0,0,1-3.66,4.62,10.89,10.89,0,0,1-6.19,1.73,12.22,12.22,0,0,1-6.49-1.76,11.81,11.81,0,0,1-4.52-5.08,19.64,19.64,0,0,1,0-15.62,11.93,11.93,0,0,1,4.52-5.08,12.3,12.3,0,0,1,6.49-1.75A11,11,0,0,1,251.83,648.12ZM242.44,655a8.61,8.61,0,0,0-2.06,6.08,8.51,8.51,0,0,0,2.06,6.06,7.82,7.82,0,0,0,10.91,0,8.37,8.37,0,0,0,2.14-6,8.46,8.46,0,0,0-2.14-6.06,7.22,7.22,0,0,0-5.44-2.24A7.12,7.12,0,0,0,242.44,655Z"/><path d="M294.21,649.62q2.94,3.24,2.93,9.13v16.6h-7.21V659.57a7.48,7.48,0,0,0-1.76-5.29,6.24,6.24,0,0,0-4.79-1.88,6.42,6.42,0,0,0-4.95,2,8.21,8.21,0,0,0-1.86,5.78v15.16H269.3V637.19h7.27V652.5a9.14,9.14,0,0,1,3.74-4.5,11.07,11.07,0,0,1,6-1.63A10.1,10.1,0,0,1,294.21,649.62Z"/><path d="M322.05,654v6H300.14v-6Z"/><path d="M360.25,666.63a15.77,15.77,0,0,1-6.57,6.42,21.5,21.5,0,0,1-10.24,2.3H330.5V639h12.94a22,22,0,0,1,10.24,2.24,15.47,15.47,0,0,1,6.57,6.34,21.22,21.22,0,0,1,0,19.1Zm-8.33-.88c2.15-2.06,3.23-4.94,3.23-8.66s-1.08-6.65-3.23-8.71-5.18-3.09-9.1-3.09h-5.05v23.56h5.05Q348.7,668.85,351.92,665.75Z"/><path d="M368.4,635.72a5.34,5.34,0,0,1,6.49,0,3.66,3.66,0,0,1,1.24,2.86,3.61,3.61,0,0,1-1.24,2.82,5.34,5.34,0,0,1-6.49,0,3.61,3.61,0,0,1-1.24-2.82A3.66,3.66,0,0,1,368.4,635.72Zm6.85,11.06v28.57H368V646.78Z"/><path d="M397.11,669.11v6.24H393.3q-4.8,0-7.35-2.33t-2.55-7.73V652.92h-4v-6.14h4v-7.06h7.27v7.06h6.39v6.14h-6.39V665.4a4,4,0,0,0,.82,2.88,3.86,3.86,0,0,0,2.79.83Z"/></g><g class="cls-3"><path d="M1056.88,675.35h-13.19l-29.58-44.93v44.93h-13.2V609.26h13.2l29.58,45.31V609.26h13.19Z"/><path d="M1117.17,651.94h-38q.28,6.93,3.75,10.21a12.05,12.05,0,0,0,8.61,3.28,12.5,12.5,0,0,0,7.63-2.25,10,10,0,0,0,3.88-6.09h14a22.33,22.33,0,0,1-4.4,9.74,23,23,0,0,1-8.66,6.74,29.69,29.69,0,0,1-25.23-.8,22.68,22.68,0,0,1-9.17-9.22,32.18,32.18,0,0,1,0-28.31,22.32,22.32,0,0,1,9.17-9.22,28,28,0,0,1,13.49-3.18,27.35,27.35,0,0,1,13.43,3.18,22.35,22.35,0,0,1,8.89,8.75,25.4,25.4,0,0,1,3.14,12.68A25.12,25.12,0,0,1,1117.17,651.94ZM1101,636.5a12.68,12.68,0,0,0-8.84-3.28,13,13,0,0,0-9,3.28q-3.66,3.29-4,9.64h25.18Q1104.63,639.78,1101,636.5Z"/><path d="M1154.7,664v11.33h-6.92q-8.71,0-13.34-4.22t-4.64-14V634.63h-7.21V623.49h7.21V610.67H1143v12.82h11.61v11.14H1143v22.65c0,2.5.5,4.24,1.5,5.24s2.68,1.5,5,1.5Z"/></g><circle class="cls-2" cx="380.26" cy="569.45" r="14.05"/><rect class="cls-2" x="198.39" y="555.4" width="141.21" height="28.09" transform="translate(537.98 1138.89) rotate(180)"/><g class="cls-3"><path class="cls-4" d="M965.34,291s31.32,29.61,31.32,92.11a559.41,559.41,0,0,1-4.4,71.28L1147.47,291s-31.31,29.61-31.31,92.11a560.66,560.66,0,0,0,4.39,71.28Z"/><line class="cls-4" x1="992.26" y1="454.4" x2="1147.47" y2="291.01"/><line class="cls-4" x1="1120.55" y1="454.4" x2="965.34" y2="291.01"/><line class="cls-4" x1="1116.48" y1="402.17" x2="1033.65" y2="314.97"/><line class="cls-4" x1="1117.46" y1="360.29" x2="1079.18" y2="314.97"/><polyline class="cls-4" points="995.34 360.29 1033.64 314.98 1026.99 291.01"/><line class="cls-4" x1="1079.18" y1="314.97" x2="1085.83" y2="291.01"/><line class="cls-4" x1="996.34" y1="402.19" x2="1079.18" y2="314.97"/><polyline class="cls-4" points="995.34 361.43 1075.85 453.58 1116.53 403.66"/><polyline class="cls-4" points="996.27 403.66 1036.95 453.58 1117.46 361.43"/></g><ellipse class="cls-2" cx="1214.09" cy="274.68" rx="19.91" ry="18.99"/><rect class="cls-2" x="956.35" y="255.68" width="200.12" height="37.98" transform="translate(2112.82 549.35) rotate(180)"/></svg>