<svg id="Layer_1" data-name="Layer 1" xmlns="http://www.w3.org/2000/svg" viewBox="0 0 1366 768"><defs><style>.cls-1{fill:#ffbc42;}.cls-2{opacity:0.5;}</style></defs><title>all</title><path class="cls-1" d="M254.92,338.13V481H176V96H319.87q70,0,105.57,32.72T461,217.62q0,55.08-36.68,87.79T319.87,338.13Zm126-120.51q0-28.91-16.24-44.17t-53.2-15.27H254.92V276.51h56.56Q380.9,276.51,380.92,217.62Z"/><g class="cls-2"><path d="M125.13,666.93a15.48,15.48,0,0,1-6.44,6.28,21,21,0,0,1-10,2.25H96V639.82h12.67a21.47,21.47,0,0,1,10,2.19,15.15,15.15,0,0,1,6.44,6.21,20.82,20.82,0,0,1,0,18.71Zm-8.16-.86q3.16-3,3.16-8.48T117,649.05q-3.15-3-8.9-3h-4.95V669.1h4.95Q113.82,669.1,117,666.07Z"/><path d="M133.11,636.66a5.22,5.22,0,0,1,6.36,0,3.58,3.58,0,0,1,1.21,2.8,3.52,3.52,0,0,1-1.21,2.75,5.18,5.18,0,0,1-6.36,0,3.52,3.52,0,0,1-1.21-2.75A3.58,3.58,0,0,1,133.11,636.66Zm6.71,10.83v28H132.7v-28Z"/><path d="M161.23,669.35v6.11h-3.74q-4.69,0-7.19-2.27c-1.67-1.52-2.5-4-2.5-7.58V653.5h-3.89v-6h3.89v-6.92h7.12v6.92h6.26v6h-6.26v12.22a3.93,3.93,0,0,0,.8,2.82,3.77,3.77,0,0,0,2.73.81Z"/><path d="M184.45,654.51v5.9H163v-5.9Z"/><path d="M221.86,666.93a15.48,15.48,0,0,1-6.44,6.28,21,21,0,0,1-10,2.25H192.73V639.82H205.4a21.47,21.47,0,0,1,10,2.19,15.15,15.15,0,0,1,6.44,6.21,20.82,20.82,0,0,1,0,18.71Zm-8.16-.86q3.17-3,3.16-8.48t-3.16-8.54q-3.15-3-8.91-3h-4.94V669.1h4.94Q210.55,669.1,213.7,666.07Z"/><path d="M246.45,648.8a9.09,9.09,0,0,1,3.58,4.5v-5.81h7.07v28H250V669.6a9.18,9.18,0,0,1-3.58,4.52,10.66,10.66,0,0,1-6.07,1.69,11.93,11.93,0,0,1-6.35-1.72,11.54,11.54,0,0,1-4.42-5,19.17,19.17,0,0,1,0-15.29,11.62,11.62,0,0,1,4.42-5,12,12,0,0,1,6.35-1.71A10.8,10.8,0,0,1,246.45,648.8Zm-9.19,6.72a9.76,9.76,0,0,0,0,11.89,7,7,0,0,0,5.35,2.14,7.07,7.07,0,0,0,5.33-2.19,9.4,9.4,0,0,0,0-11.82,7.07,7.07,0,0,0-5.33-2.19A6.93,6.93,0,0,0,237.26,655.52Z"/><path d="M288,650.27c1.92,2.12,2.87,5.1,2.87,8.93v16.26h-7.07V660a7.3,7.3,0,0,0-1.71-5.17,6.12,6.12,0,0,0-4.7-1.85,6.31,6.31,0,0,0-4.85,2,8,8,0,0,0-1.81,5.65v14.85h-7.12V638.1h7.12v15a8.91,8.91,0,0,1,3.66-4.41,10.88,10.88,0,0,1,5.88-1.59A9.92,9.92,0,0,1,288,650.27Z"/><path d="M315.21,654.51v5.9H293.75v-5.9Z"/><path d="M352.62,666.93a15.54,15.54,0,0,1-6.44,6.28,21,21,0,0,1-10,2.25H323.49V639.82h12.67a21.47,21.47,0,0,1,10,2.19,15.2,15.2,0,0,1,6.44,6.21,20.82,20.82,0,0,1,0,18.71Zm-8.16-.86q3.17-3,3.16-8.48t-3.16-8.54q-3.15-3-8.91-3H330.6V669.1h4.95Q341.31,669.1,344.46,666.07Z"/><path d="M377.2,648.8a9.11,9.11,0,0,1,3.59,4.5v-5.81h7.07v28h-7.07V669.6a9.2,9.2,0,0,1-3.59,4.52,10.6,10.6,0,0,1-6.06,1.69,12,12,0,0,1-6.36-1.72,11.6,11.6,0,0,1-4.42-5,19.17,19.17,0,0,1,0-15.29,11.69,11.69,0,0,1,4.42-5,12.07,12.07,0,0,1,6.36-1.71A10.74,10.74,0,0,1,377.2,648.8ZM368,655.52a9.76,9.76,0,0,0,0,11.89,7.67,7.67,0,0,0,10.68,0,9.37,9.37,0,0,0,0-11.82,7.06,7.06,0,0,0-5.33-2.19A7,7,0,0,0,368,655.52Z"/><path d="M418.7,650.27q2.88,3.18,2.88,8.93v16.26h-7.07V660a7.26,7.26,0,0,0-1.72-5.17A6.09,6.09,0,0,0,408.1,653a6.29,6.29,0,0,0-4.85,2,8,8,0,0,0-1.82,5.65v14.85h-7.12V638.1h7.12v15a9,9,0,0,1,3.66-4.41,10.92,10.92,0,0,1,5.89-1.59A9.9,9.9,0,0,1,418.7,650.27Z"/><path d="M446,654.51v5.9H424.5v-5.9Z"/><path d="M483.37,666.93a15.51,15.51,0,0,1-6.43,6.28,21,21,0,0,1-10,2.25H454.24V639.82h12.67a21.51,21.51,0,0,1,10,2.19,15.18,15.18,0,0,1,6.43,6.21,20.82,20.82,0,0,1,0,18.71Zm-8.15-.86c2.1-2,3.16-4.85,3.16-8.48s-1.06-6.52-3.16-8.54-5.08-3-8.91-3h-4.95V669.1h4.95Q472.05,669.1,475.22,666.07Z"/><path d="M491.35,636.66a5.22,5.22,0,0,1,6.36,0,3.58,3.58,0,0,1,1.21,2.8,3.52,3.52,0,0,1-1.21,2.75,5.18,5.18,0,0,1-6.36,0,3.52,3.52,0,0,1-1.21-2.75A3.58,3.58,0,0,1,491.35,636.66Zm6.71,10.83v28h-7.12v-28Z"/><path d="M519.47,669.35v6.11h-3.74c-3.13,0-5.52-.76-7.19-2.27s-2.5-4-2.5-7.58V653.5h-3.89v-6H506v-6.92h7.12v6.92h6.26v6h-6.26v12.22a3.93,3.93,0,0,0,.81,2.82,3.73,3.73,0,0,0,2.72.81Z"/></g><g class="cls-2"><path d="M928.54,651.44v24H915.62V610.75h23.56q11.45,0,17.27,5.5t5.82,14.94q0,9.25-6,14.76t-17.09,5.49Zm20.63-20.25c0-3.24-.89-5.71-2.66-7.43s-4.68-2.56-8.71-2.56h-9.26v19.89h9.26Q949.17,641.09,949.17,631.19Z"/><path d="M1001.59,627.06a16.46,16.46,0,0,1,6.51,8.16V624.68h12.84v50.78H1008.1V664.83a16.69,16.69,0,0,1-6.51,8.2,19.25,19.25,0,0,1-11,3.07A21.79,21.79,0,0,1,979.05,673a21,21,0,0,1-8-9,34.8,34.8,0,0,1,0-27.77,21.06,21.06,0,0,1,8-9A21.87,21.87,0,0,1,990.6,624,19.54,19.54,0,0,1,1001.59,627.06Zm-16.68,12.19q-3.66,3.94-3.66,10.82t3.66,10.77a13.89,13.89,0,0,0,19.39-.09q3.81-4,3.8-10.68t-3.8-10.77a13.84,13.84,0,0,0-19.39,0Z"/><path d="M1063.51,627.06a17,17,0,0,1,6.55,8.16V607.63h12.84v67.83h-12.84V664.83a17.28,17.28,0,0,1-6.55,8.2,19.05,19.05,0,0,1-11,3.07A21.79,21.79,0,0,1,1041,673a21,21,0,0,1-8-9,34.8,34.8,0,0,1,0-27.77,21.06,21.06,0,0,1,8-9,21.87,21.87,0,0,1,11.55-3.11A19.34,19.34,0,0,1,1063.51,627.06Zm-16.63,12.19q-3.68,3.94-3.67,10.82t3.67,10.77a13.87,13.87,0,0,0,19.38-.09q3.81-4,3.8-10.68t-3.8-10.77a13.82,13.82,0,0,0-19.38,0Z"/><path d="M1125.47,627.06a17.12,17.12,0,0,1,6.56,8.16V607.63h12.83v67.83H1132V664.83a17.36,17.36,0,0,1-6.56,8.2,19,19,0,0,1-11,3.07A21.79,21.79,0,0,1,1103,673a21,21,0,0,1-8-9,34.8,34.8,0,0,1,0-27.77,21.06,21.06,0,0,1,8-9,21.87,21.87,0,0,1,11.55-3.11A19.31,19.31,0,0,1,1125.47,627.06Zm-16.63,12.19q-3.67,3.94-3.67,10.82t3.67,10.77a13.87,13.87,0,0,0,19.38-.09q3.81-4,3.81-10.68t-3.81-10.77a13.82,13.82,0,0,0-19.38,0Z"/><path d="M1169.51,607.63v67.83h-12.92V607.63Z"/><path d="M1228.54,652.54h-37.21q.27,6.8,3.67,10a11.8,11.8,0,0,0,8.43,3.2,12.23,12.23,0,0,0,7.47-2.2,9.74,9.74,0,0,0,3.8-5.95h13.66a21.83,21.83,0,0,1-4.31,9.53,22.56,22.56,0,0,1-8.48,6.6,29.07,29.07,0,0,1-24.7-.78,22.25,22.25,0,0,1-9-9,31.55,31.55,0,0,1,0-27.73,21.89,21.89,0,0,1,9-9,27.44,27.44,0,0,1,13.2-3.11,26.8,26.8,0,0,1,13.15,3.11,22,22,0,0,1,8.71,8.58,24.8,24.8,0,0,1,3.07,12.41A24,24,0,0,1,1228.54,652.54Zm-15.81-15.12a12.4,12.4,0,0,0-8.66-3.21,12.71,12.71,0,0,0-8.8,3.21q-3.57,3.21-3.94,9.44H1216Q1216.26,640.64,1212.73,637.42Z"/></g><g class="cls-2"><path d="M1141.26,331.27h-40a28.62,28.62,0,0,0,.48-5.1V278.3A29.44,29.44,0,0,0,1072.43,249h-8.85a34.07,34.07,0,1,0-39.1,0h-8.85a29.44,29.44,0,0,0-29.35,29.35v47.87a28.62,28.62,0,0,0,.48,5.1h-40a31.14,31.14,0,1,0,0,62.28h194.46a31.14,31.14,0,1,0,0-62.28Z"/></g><g class="cls-2"><path d="M1166.32,433.81c-11.82,0-18-2.92-23.5-5.49-4.87-2.29-8.71-4.1-17.27-4.1s-12.41,1.81-17.28,4.1c-5.47,2.57-11.67,5.49-23.5,5.49s-18-2.92-23.49-5.49c-4.87-2.29-8.72-4.1-17.28-4.1s-12.39,1.81-17.26,4.1c-5.47,2.57-11.67,5.49-23.49,5.49s-18-2.92-23.5-5.49c-4.87-2.29-8.71-4.1-17.27-4.1s-12.4,1.81-17.27,4.1c-5.47,2.57-11.67,5.49-23.49,5.49s-18-2.92-23.5-5.49c-4.86-2.29-8.71-4.1-17.26-4.1a7.32,7.32,0,1,1,0-14.63c11.82,0,18,2.92,23.49,5.49,4.87,2.28,8.71,4.09,17.27,4.09s12.4-1.81,17.27-4.09c5.47-2.57,11.67-5.49,23.49-5.49s18,2.92,23.5,5.49c4.86,2.28,8.71,4.09,17.27,4.09s12.4-1.81,17.26-4.09c5.47-2.57,11.67-5.49,23.49-5.49s18,2.92,23.5,5.49c4.87,2.28,8.72,4.09,17.27,4.09s12.41-1.81,17.28-4.09c5.47-2.57,11.67-5.49,23.5-5.49s18,2.92,23.5,5.49c4.87,2.28,8.71,4.09,17.27,4.09s12.41-1.81,17.28-4.09c5.47-2.57,11.67-5.49,23.5-5.49a7.32,7.32,0,1,1,0,14.63c-8.56,0-12.4,1.81-17.27,4.1C1184.36,430.89,1178.15,433.81,1166.32,433.81Z"/></g><circle class="cls-1" cx="1248.29" cy="318.11" r="14.74"/><circle class="cls-1" cx="838.74" cy="318.11" r="14.74"/><rect class="cls-1" x="1057.48" y="303.38" width="148.15" height="29.47"/><rect class="cls-1" x="881.4" y="303.38" width="148.15" height="29.47"/><circle class="cls-1" cx="114.29" cy="571.76" r="13.75"/><circle class="cls-1" cx="497.99" cy="571.76" r="13.75"/><rect class="cls-1" x="154.11" y="558.01" width="138.28" height="27.51"/><rect class="cls-1" x="318.45" y="558.01" width="138.28" height="27.51"/></svg>