<svg id="Layer_1" data-name="Layer 1" xmlns="http://www.w3.org/2000/svg" viewBox="0 0 1366 768"><defs><style>.cls-1{fill:#ffbc42;}.cls-2{opacity:0.5;}.cls-3{fill:none;stroke:#000;stroke-linecap:round;stroke-miterlimit:10;stroke-width:5.36px;}</style></defs><title>all</title><path class="cls-1" d="M324.68,473,234.09,322h-34V473H122.64V85.4H270.33q67.51,0,102.93,32.94t35.41,86.74q0,43.93-24.43,73.57T313.7,318.18L410.32,473ZM200.05,268.77h63.68q66.43,0,66.44-58.75,0-28-16.2-43.65t-50.24-15.64H200.05Z"/><g class="cls-2"><path d="M130,663.67a15.71,15.71,0,0,1-6.55,6.39,21.32,21.32,0,0,1-10.19,2.29H100.35V636.09h12.89a21.79,21.79,0,0,1,10.19,2.23,15.43,15.43,0,0,1,6.55,6.32,21.16,21.16,0,0,1,0,19Zm-8.29-.88q3.21-3.07,3.21-8.63t-3.21-8.68q-3.21-3.08-9.07-3.08h-5v23.48h5Q118.49,665.88,121.69,662.79Z"/><path d="M138.1,632.88a5.27,5.27,0,0,1,6.47,0,3.86,3.86,0,0,1,0,5.65,5.31,5.31,0,0,1-6.47,0,3.86,3.86,0,0,1,0-5.65Zm6.83,11v28.46h-7.24V643.89Z"/><path d="M166.71,666.13v6.22H162.9q-4.77,0-7.31-2.32c-1.7-1.54-2.55-4.1-2.55-7.7V650h-3.95v-6.11H153v-7h7.25v7h6.37V650h-6.37v12.44a4,4,0,0,0,.82,2.87,3.81,3.81,0,0,0,2.77.82Z"/><path d="M201.53,651v6H179.7v-6Z"/><path d="M250.79,663.67a15.71,15.71,0,0,1-6.55,6.39,21.33,21.33,0,0,1-10.2,2.29H221.15V636.09H234a21.81,21.81,0,0,1,10.2,2.23,15.43,15.43,0,0,1,6.55,6.32,21.24,21.24,0,0,1,0,19Zm-8.3-.88q3.21-3.07,3.21-8.63t-3.21-8.68q-3.21-3.08-9.06-3.08h-5v23.48h5Q239.28,665.88,242.49,662.79Z"/><path d="M275.8,645.23a9.29,9.29,0,0,1,3.65,4.57v-5.91h7.19v28.46h-7.19v-6a9.46,9.46,0,0,1-3.65,4.6,10.9,10.9,0,0,1-6.17,1.72,12.19,12.19,0,0,1-6.47-1.75,11.75,11.75,0,0,1-4.49-5.06,19.49,19.49,0,0,1,0-15.56,11.81,11.81,0,0,1,4.49-5.06,12.28,12.28,0,0,1,6.47-1.75A11,11,0,0,1,275.8,645.23Zm-9.35,6.83a9.91,9.91,0,0,0,0,12.1,7.13,7.13,0,0,0,5.44,2.18,7.21,7.21,0,0,0,5.43-2.24,8.35,8.35,0,0,0,2.13-6,8.45,8.45,0,0,0-2.13-6,7.2,7.2,0,0,0-5.43-2.23A7.08,7.08,0,0,0,266.45,652.06Z"/><path d="M318,646.72c2,2.15,2.93,5.19,2.93,9.09v16.54h-7.19V656.63a7.44,7.44,0,0,0-1.75-5.26,6.21,6.21,0,0,0-4.78-1.88,6.41,6.41,0,0,0-4.93,2,8.22,8.22,0,0,0-1.85,5.76v15.1h-7.24v-38h7.24v15.25a9.14,9.14,0,0,1,3.73-4.49,11,11,0,0,1,6-1.62A10.07,10.07,0,0,1,318,646.72Z"/><path d="M357,651v6H335.12v-6Z"/><path d="M406.21,663.67a15.71,15.71,0,0,1-6.55,6.39,21.33,21.33,0,0,1-10.2,2.29H376.57V636.09h12.89a21.81,21.81,0,0,1,10.2,2.23,15.43,15.43,0,0,1,6.55,6.32,21.24,21.24,0,0,1,0,19Zm-8.3-.88q3.21-3.07,3.21-8.63t-3.21-8.68q-3.21-3.08-9.07-3.08h-5v23.48h5Q394.71,665.88,397.91,662.79Z"/><path d="M414.32,632.88a5.27,5.27,0,0,1,6.47,0,3.86,3.86,0,0,1,0,5.65,5.31,5.31,0,0,1-6.47,0,3.86,3.86,0,0,1,0-5.65Zm6.83,11v28.46h-7.24V643.89Z"/><path d="M442.93,666.13v6.22h-3.8q-4.78,0-7.32-2.32c-1.7-1.54-2.54-4.1-2.54-7.7V650h-4v-6.11h4v-7h7.24v7h6.37V650h-6.37v12.44a4,4,0,0,0,.82,2.87,3.82,3.82,0,0,0,2.77.82Z"/></g><g class="cls-2"><path d="M932,672.35,916.65,646.7h-5.78v25.65H897.73V606.51h25.08q11.46,0,17.48,5.6t6,14.73a19,19,0,0,1-4.15,12.5q-4.15,5-12,6.71l16.42,26.3Zm-21.17-34.69h10.82q11.28,0,11.28-10a9.83,9.83,0,0,0-2.75-7.41c-1.83-1.77-4.68-2.66-8.53-2.66H910.87Z"/><path d="M992.61,623.21a23.15,23.15,0,0,1,9.46,9.18,30.56,30.56,0,0,1,0,28.21,23.53,23.53,0,0,1-9.46,9.18,30.2,30.2,0,0,1-27.14,0A23.53,23.53,0,0,1,956,660.6a30.48,30.48,0,0,1,0-28.21,23.15,23.15,0,0,1,9.46-9.18,30.54,30.54,0,0,1,27.14,0Zm-22.89,12.07q-3.83,3.87-3.83,11.24t3.83,11.24a13.19,13.19,0,0,0,18.65,0q3.81-3.87,3.82-11.24t-3.82-11.24a13.17,13.17,0,0,0-18.65,0Z"/><path d="M1057.46,623.21a21.34,21.34,0,0,1,8.16,9.18,35.4,35.4,0,0,1,0,28.25,21.37,21.37,0,0,1-8.16,9.19,22.23,22.23,0,0,1-11.75,3.17,19.43,19.43,0,0,1-11.14-3.12,17.09,17.09,0,0,1-6.57-8.35v10.82h-13.15v-69H1028v28.07a16.79,16.79,0,0,1,6.57-8.3,19.64,19.64,0,0,1,11.14-3.08A22.14,22.14,0,0,1,1057.46,623.21Zm-25.69,12.35q-3.87,4.05-3.87,11t3.87,10.86a14.14,14.14,0,0,0,19.73.1q3.72-4,3.73-11t-3.73-11a14.08,14.08,0,0,0-19.73,0Z"/><path d="M1115.32,623.21a23.12,23.12,0,0,1,9.47,9.18,30.56,30.56,0,0,1,0,28.21,23.5,23.5,0,0,1-9.47,9.18,30.18,30.18,0,0,1-27.13,0,23.56,23.56,0,0,1-9.47-9.18,30.56,30.56,0,0,1,0-28.21,23.18,23.18,0,0,1,9.47-9.18,30.52,30.52,0,0,1,27.13,0Zm-22.89,12.07q-3.83,3.87-3.82,11.24t3.82,11.24a13.19,13.19,0,0,0,18.65,0q3.83-3.87,3.83-11.24t-3.83-11.24a13.17,13.17,0,0,0-18.65,0Z"/><path d="M1165.17,661.06v11.29h-6.9q-8.67,0-13.29-4.2t-4.62-14V631.78h-7.18V620.69h7.18V607.91h13.15v12.78h11.57v11.09h-11.57v22.57q0,3.74,1.49,5.22c1,1,2.67,1.49,5,1.49Z"/></g><circle class="cls-1" cx="381.79" cy="566.85" r="13.99"/><circle class="cls-1" cx="160.1" cy="566.85" r="13.99"/><rect class="cls-1" x="200.61" y="552.86" width="140.68" height="27.99"/><g class="cls-2"><circle cx="1025.65" cy="141.47" r="21.12"/><line class="cls-3" x1="1025.65" y1="158.37" x2="1025.65" y2="224.41"/><polygon points="1150.85 270.1 1197 270.1 1197 361.95 1150.85 361.95 1150.85 441.23 900.44 441.23 900.44 361.95 854.29 361.95 854.29 270.1 900.44 270.1 900.44 191.39 1150.85 191.39 1150.85 270.1"/></g><circle class="cls-1" cx="1135.2" cy="316.07" r="17.18"/><circle class="cls-1" cx="920.41" cy="316.07" r="17.18"/><rect class="cls-1" x="965.52" y="303.92" width="124.58" height="24.78"/></svg>