<svg id="Layer_1" data-name="Layer 1" xmlns="http://www.w3.org/2000/svg" viewBox="0 0 1366 768"><defs><style>.cls-1{fill:#ffbc42;}.cls-2{opacity:0.5;}</style></defs><title>all</title><path class="cls-1" d="M410,84v62.35H295.72V477H213.09V146.35H99.4V84Z"/><g class="cls-2"><path d="M218,658.18a15.6,15.6,0,0,1-6.46,6.31,21.08,21.08,0,0,1-10,2.25H188.8V631h12.71a21.55,21.55,0,0,1,10,2.2,15.3,15.3,0,0,1,6.46,6.23,20.91,20.91,0,0,1,0,18.75Zm-8.18-.86c2.11-2,3.17-4.86,3.17-8.5s-1.06-6.53-3.17-8.56-5.09-3-8.93-3h-5v23.13h5Q206.66,660.36,209.83,657.32Z"/><path d="M242.66,640a9.13,9.13,0,0,1,3.59,4.51v-5.83h7.09v28h-7.09v-5.88a9.18,9.18,0,0,1-3.59,4.53,10.62,10.62,0,0,1-6.08,1.7,12,12,0,0,1-6.37-1.72,11.55,11.55,0,0,1-4.43-5,19.16,19.16,0,0,1,0-15.33,11.55,11.55,0,0,1,4.43-5,12.07,12.07,0,0,1,6.37-1.72A10.84,10.84,0,0,1,242.66,640Zm-9.22,6.73a8.46,8.46,0,0,0-2,6,8.31,8.31,0,0,0,2,5.94,7.68,7.68,0,0,0,10.71,0,8.16,8.16,0,0,0,2.1-5.89,8.27,8.27,0,0,0-2.1-6,7.65,7.65,0,0,0-10.71,0Z"/><path d="M284.26,641.48c1.93,2.13,2.88,5.11,2.88,9v16.3h-7.08V651.25a7.35,7.35,0,0,0-1.72-5.19,6.14,6.14,0,0,0-4.71-1.85,6.3,6.3,0,0,0-4.86,2,8.06,8.06,0,0,0-1.82,5.66v14.89h-7.14V629.28H267v15a8.91,8.91,0,0,1,3.67-4.42,10.85,10.85,0,0,1,5.9-1.6A9.9,9.9,0,0,1,284.26,641.48Z"/></g><rect class="cls-1" x="168.56" y="548.98" width="138.63" height="27.58"/><g class="cls-2"><path d="M926.52,601.86v10.29H908.6v54.59h-13V612.15H877.82V601.86Z"/><path d="M964.66,618.22a16.51,16.51,0,0,1,6.53,8.18V615.83h12.86v50.91H971.19V656.08a16.73,16.73,0,0,1-6.53,8.22,19.29,19.29,0,0,1-11,3.08,21.88,21.88,0,0,1-11.57-3.12,21,21,0,0,1-8-9,34.88,34.88,0,0,1,0-27.85,21,21,0,0,1,8-9.05,21.88,21.88,0,0,1,11.57-3.12A19.58,19.58,0,0,1,964.66,618.22Zm-16.72,12.22q-3.68,4-3.68,10.85t3.68,10.79a12.72,12.72,0,0,0,9.74,3.91,12.86,12.86,0,0,0,9.7-4q3.81-4,3.81-10.7t-3.81-10.8a12.83,12.83,0,0,0-9.7-4A12.67,12.67,0,0,0,947.94,630.44Z"/><path d="M1037.81,618.31a21.1,21.1,0,0,1,8,9.05,34.88,34.88,0,0,1,0,27.85,21.1,21.1,0,0,1-8,9,21.89,21.89,0,0,1-11.58,3.12,19.06,19.06,0,0,1-11-3.08,16.86,16.86,0,0,1-6.48-8.22V691h-13V615.83h13V626.4a16.63,16.63,0,0,1,6.48-8.18,19.34,19.34,0,0,1,11-3A21.89,21.89,0,0,1,1037.81,618.31Zm-25.32,12.18q-3.81,4-3.81,10.8t3.81,10.7a12.86,12.86,0,0,0,9.7,4,12.73,12.73,0,0,0,9.74-3.91q3.67-3.9,3.67-10.79t-3.67-10.85a12.69,12.69,0,0,0-9.74-4A12.83,12.83,0,0,0,1012.49,630.49Z"/><path d="M1105.35,643.77H1068q.29,6.79,3.68,10a11.8,11.8,0,0,0,8.45,3.22,12.25,12.25,0,0,0,7.49-2.21,9.77,9.77,0,0,0,3.82-6h13.69a22,22,0,0,1-4.32,9.56,22.65,22.65,0,0,1-8.5,6.61,29.11,29.11,0,0,1-24.76-.78,22.19,22.19,0,0,1-9-9.05,28.43,28.43,0,0,1-3.22-13.87,28.72,28.72,0,0,1,3.22-13.93,21.83,21.83,0,0,1,9-9.05,27.42,27.42,0,0,1,13.23-3.12,26.88,26.88,0,0,1,13.19,3.12,22.13,22.13,0,0,1,8.73,8.59,25,25,0,0,1,3.07,12.45A24.32,24.32,0,0,1,1105.35,643.77ZM1089.5,628.6a12.44,12.44,0,0,0-8.68-3.21,12.75,12.75,0,0,0-8.83,3.21q-3.57,3.23-4,9.47h24.72Q1093,631.81,1089.5,628.6Z"/></g><g class="cls-2"><polygon points="952.83 275.09 976.65 259.33 991.37 276.42 1006.98 262.77 1030.01 272.4 1047.92 265.54 1058.42 275.82 1080.96 259.57 1110.28 280.29 1121.55 259.31 1143.41 270.08 1143.41 148 925.05 148 925.05 264.2 942.68 264.2 952.83 275.09"/><polygon points="1114.81 299.54 1081.04 275.67 1057.14 292.91 1044.76 280.78 1029.8 286.51 1009.46 278.01 990.07 294.97 974.25 276.63 950.8 292.13 936.98 277.3 925.05 277.3 925.05 423.16 1143.41 423.16 1143.41 284.68 1127.11 276.65 1114.81 299.54"/></g><rect class="cls-1" x="973.69" y="264.85" width="126" height="25.07"/></svg>