<svg id="Layer_1" data-name="Layer 1" xmlns="http://www.w3.org/2000/svg" viewBox="0 0 1366 768"><defs><style>.cls-1{opacity:0.5;}.cls-2,.cls-3{stroke:#000;stroke-linecap:round;stroke-width:6px;}.cls-2{stroke-linejoin:round;}.cls-3{fill:none;stroke-miterlimit:10;}.cls-4{fill:#ffbc42;}</style></defs><title>all</title><g class="cls-1"><path d="M1288,305.34H978a7.28,7.28,0,1,1,0-14.56h310a7.28,7.28,0,0,1,0,14.56Z"/><polygon class="cls-2" points="989.62 298.06 1007.44 331.96 969.69 325.48 942.96 352.91 937.45 315.01 903.11 298.06 937.45 281.11 942.96 243.21 969.69 270.63 1007.44 264.16 989.62 298.06"/><line class="cls-3" x1="928.27" y1="198" x2="934.69" y2="217.75"/><line class="cls-3" x1="855.58" y1="298.06" x2="876.34" y2="298.06"/><line class="cls-3" x1="1045.9" y1="236.22" x2="1029.1" y2="248.42"/><line class="cls-3" x1="1045.9" y1="359.9" x2="1029.1" y2="347.69"/><line class="cls-3" x1="928.27" y1="398.12" x2="934.69" y2="378.37"/></g><path class="cls-4" d="M604,80.11,511.18,474H417.82L347,188.35,275.64,474H182.82L90,80.11h82.09L230,385.29,305.15,80.11h83.16L464,385.29,521.91,80.11Z"/><g class="cls-1"><path d="M191.05,664.13a15.16,15.16,0,0,1-6.29,6.15,20.61,20.61,0,0,1-9.8,2.19H162.58V637.63H175a21,21,0,0,1,9.8,2.14,14.89,14.89,0,0,1,6.29,6.08,20.33,20.33,0,0,1,0,18.28Zm-8-.84c2.06-2,3.09-4.74,3.09-8.29s-1-6.37-3.09-8.34-5-3-8.71-3h-4.83v22.55h4.83C178.12,666.25,181,665.27,183.08,663.29Z"/><path d="M198.85,634.54a5.13,5.13,0,0,1,6.22,0,3.52,3.52,0,0,1,1.18,2.74,3.47,3.47,0,0,1-1.18,2.7,5.13,5.13,0,0,1-6.22,0,3.47,3.47,0,0,1-1.18-2.7A3.52,3.52,0,0,1,198.85,634.54Zm6.56,10.59v27.34h-6.95V645.13Z"/><path d="M226.34,666.5v6h-3.66c-3.05,0-5.4-.74-7-2.22s-2.44-4-2.44-7.41V651h-3.8v-5.87h3.8v-6.76h7v6.76h6.12V651h-6.12v12a3.84,3.84,0,0,0,.79,2.76,3.65,3.65,0,0,0,2.66.79Z"/><path d="M249,652v5.77h-21V652Z"/><path d="M285.6,664.13a15.11,15.11,0,0,1-6.29,6.15,20.59,20.59,0,0,1-9.79,2.19H257.13V637.63h12.39a21,21,0,0,1,9.79,2.14,14.83,14.83,0,0,1,6.29,6.08,20.33,20.33,0,0,1,0,18.28Zm-8-.84c2.06-2,3.09-4.74,3.09-8.29s-1-6.37-3.09-8.34-4.95-3-8.71-3h-4.83v22.55h4.83C272.68,666.25,275.58,665.27,277.63,663.29Z"/><path d="M309.64,646.42a8.84,8.84,0,0,1,3.5,4.38v-5.67h6.91v27.34h-6.91v-5.73a9,9,0,0,1-3.5,4.42,10.36,10.36,0,0,1-5.93,1.66,11.71,11.71,0,0,1-6.21-1.68,11.3,11.3,0,0,1-4.32-4.87,18.69,18.69,0,0,1,0-14.95,11.33,11.33,0,0,1,4.32-4.86,11.71,11.71,0,0,1,6.21-1.68A10.5,10.5,0,0,1,309.64,646.42Zm-9,6.55a8.28,8.28,0,0,0-2,5.83,8.15,8.15,0,0,0,2,5.8,7.5,7.5,0,0,0,10.44-.05,9.16,9.16,0,0,0,0-11.55,7.45,7.45,0,0,0-10.44,0Z"/><path d="M350.2,647.84c1.88,2.08,2.81,5,2.81,8.74v15.89h-6.9v-15.1a7.14,7.14,0,0,0-1.68-5.06,6,6,0,0,0-4.59-1.8,6.12,6.12,0,0,0-4.74,1.93,7.86,7.86,0,0,0-1.78,5.52v14.51h-6.95V636h6.95v14.66a8.78,8.78,0,0,1,3.58-4.32,10.6,10.6,0,0,1,5.75-1.55A9.67,9.67,0,0,1,350.2,647.84Z"/><path d="M376.85,652v5.77h-21V652Z"/><path d="M413.42,664.13a15.22,15.22,0,0,1-6.29,6.15,20.63,20.63,0,0,1-9.8,2.19H384.94V637.63h12.39a21,21,0,0,1,9.8,2.14,15,15,0,0,1,6.29,6.08,20.33,20.33,0,0,1,0,18.28Zm-8-.84c2.05-2,3.08-4.74,3.08-8.29s-1-6.37-3.08-8.34-5-3-8.71-3H391.9v22.55h4.84C400.49,666.25,403.39,665.27,405.45,663.29Z"/><path d="M437.45,646.42a8.84,8.84,0,0,1,3.5,4.38v-5.67h6.91v27.34H441v-5.73a9,9,0,0,1-3.5,4.42,10.34,10.34,0,0,1-5.92,1.66,11.72,11.72,0,0,1-6.22-1.68,11.37,11.37,0,0,1-4.32-4.87,18.8,18.8,0,0,1,0-14.95,11.4,11.4,0,0,1,4.32-4.86,11.72,11.72,0,0,1,6.22-1.68A10.49,10.49,0,0,1,437.45,646.42Zm-9,6.55a8.24,8.24,0,0,0-2,5.83,8.11,8.11,0,0,0,2,5.8,7.49,7.49,0,0,0,10.43-.05,9.16,9.16,0,0,0,0-11.55,7.44,7.44,0,0,0-10.43,0Z"/><path d="M478,647.84c1.88,2.08,2.81,5,2.81,8.74v15.89h-6.9v-15.1a7.14,7.14,0,0,0-1.68-5.06,6,6,0,0,0-4.59-1.8,6.14,6.14,0,0,0-4.74,1.93,7.86,7.86,0,0,0-1.78,5.52v14.51h-6.95V636h6.95v14.66a8.78,8.78,0,0,1,3.58-4.32,10.64,10.64,0,0,1,5.76-1.55A9.67,9.67,0,0,1,478,647.84Z"/></g><circle class="cls-4" cx="158.95" cy="571.11" r="13.45"/><rect class="cls-4" x="197.87" y="557.66" width="135.16" height="26.89"/><rect class="cls-4" x="358.5" y="557.66" width="135.16" height="26.89"/><g class="cls-1"><path d="M1021,609.22l-15.5,63.25H989.9L978.07,626.6l-11.92,45.87h-15.5l-15.5-63.25h13.71l9.68,49,12.54-49H985l12.63,49,9.68-49Z"/><path d="M1059.78,625.16a16.1,16.1,0,0,1,6.36,8V622.83h12.54v49.64h-12.54V662.08a16.37,16.37,0,0,1-6.36,8,18.88,18.88,0,0,1-10.75,3,21.33,21.33,0,0,1-11.29-3.05,20.54,20.54,0,0,1-7.84-8.82,34.08,34.08,0,0,1,0-27.15,20.54,20.54,0,0,1,7.84-8.82,21.33,21.33,0,0,1,11.29-3A19.09,19.09,0,0,1,1059.78,625.16Zm-16.31,11.92q-3.59,3.85-3.58,10.57t3.58,10.53a13.57,13.57,0,0,0,19-.09c2.48-2.6,3.72-6.07,3.72-10.44s-1.24-7.93-3.72-10.52a12.5,12.5,0,0,0-9.45-3.9A12.36,12.36,0,0,0,1043.47,637.08Z"/><path d="M1133.43,627.76q5.1,5.65,5.1,15.86v28.85H1126V645.05q0-5.91-3-9.18a10.82,10.82,0,0,0-8.33-3.27,11.18,11.18,0,0,0-8.6,3.49q-3.23,3.51-3.22,10v26.34h-12.64V622.83h12.64v9.95a15.74,15.74,0,0,1,6.49-7.84,19.32,19.32,0,0,1,10.44-2.82Q1128.32,622.12,1133.43,627.76Z"/><path d="M1179.79,625.16a16.7,16.7,0,0,1,6.41,8v-27h12.54v66.3H1186.2V662.08a17,17,0,0,1-6.41,8,18.68,18.68,0,0,1-10.71,3,21.29,21.29,0,0,1-11.28-3.05,20.54,20.54,0,0,1-7.84-8.82,34,34,0,0,1,0-27.15,20.54,20.54,0,0,1,7.84-8.82,21.29,21.29,0,0,1,11.28-3A18.88,18.88,0,0,1,1179.79,625.16Zm-16.26,11.92q-3.58,3.85-3.59,10.57t3.59,10.53a13.57,13.57,0,0,0,19-.09c2.48-2.6,3.72-6.07,3.72-10.44s-1.24-7.93-3.72-10.52a12.5,12.5,0,0,0-9.45-3.9A12.34,12.34,0,0,0,1163.53,637.08Z"/></g><rect class="cls-4" x="1028.67" y="287.42" width="113.19" height="22.52"/><rect class="cls-4" x="1163.19" y="287.42" width="113.19" height="22.52"/><circle class="cls-4" cx="961.63" cy="298.06" r="11.26"/></svg>