<svg id="Layer_1" data-name="Layer 1" xmlns="http://www.w3.org/2000/svg" viewBox="0 0 1366 768"><defs><style>.cls-1{fill:#ffbc42;}.cls-2{opacity:0.5;}</style></defs><title>all</title><path class="cls-1" d="M373.81,486,284.13,346.24,204.61,486H113.8L239,276.66,110.41,76.59h94.2l88,136.85L371,76.59H461.8L337.15,282.45,468,486Z"/><g class="cls-2"><path d="M127.17,659.43A15,15,0,0,1,121,665.5a20.33,20.33,0,0,1-9.67,2.16H99.07V633.29h12.22A20.69,20.69,0,0,1,121,635.4a14.72,14.72,0,0,1,6.21,6,20.08,20.08,0,0,1,0,18Zm-7.87-.82q3-2.93,3-8.19c0-3.53-1-6.28-3-8.22s-4.89-2.93-8.59-2.93h-4.77v22.26h4.77C114.41,661.53,117.27,660.55,119.3,658.61Z"/><path d="M150.88,642a8.84,8.84,0,0,1,3.46,4.33v-5.6h6.81v27h-6.81V662a9,9,0,0,1-3.46,4.36A10.26,10.26,0,0,1,145,668a11.62,11.62,0,0,1-6.13-1.66,11.23,11.23,0,0,1-4.26-4.8,18.54,18.54,0,0,1,0-14.75,11.23,11.23,0,0,1,4.26-4.8,11.62,11.62,0,0,1,6.13-1.66A10.4,10.4,0,0,1,150.88,642ZM142,648.43a9.41,9.41,0,0,0,0,11.47,6.74,6.74,0,0,0,5.16,2.06,6.82,6.82,0,0,0,5.14-2.11,9.05,9.05,0,0,0,0-11.4,6.82,6.82,0,0,0-5.14-2.12A6.69,6.69,0,0,0,142,648.43Z"/><path d="M190.9,643.36q2.78,3.07,2.78,8.62v15.68h-6.82v-14.9a7.07,7.07,0,0,0-1.65-5,5.93,5.93,0,0,0-4.53-1.78,6.09,6.09,0,0,0-4.68,1.9,7.79,7.79,0,0,0-1.75,5.45v14.32h-6.87v-36h6.87v14.46a8.6,8.6,0,0,1,3.53-4.26,10.52,10.52,0,0,1,5.68-1.53A9.55,9.55,0,0,1,190.9,643.36Z"/><path d="M217.2,647.45v5.7H196.51v-5.7Z"/><path d="M253.28,659.43a15,15,0,0,1-6.21,6.07,20.33,20.33,0,0,1-9.67,2.16H225.18V633.29H237.4a20.69,20.69,0,0,1,9.67,2.11,14.72,14.72,0,0,1,6.21,6,20.08,20.08,0,0,1,0,18Zm-7.87-.82q3-2.93,3.05-8.19c0-3.53-1-6.28-3.05-8.22s-4.89-2.93-8.59-2.93h-4.77v22.26h4.77C240.52,661.53,243.38,660.55,245.41,658.61Z"/><path d="M261,630.24a5.05,5.05,0,0,1,6.14,0,3.45,3.45,0,0,1,1.16,2.7,3.4,3.4,0,0,1-1.16,2.66,5.05,5.05,0,0,1-6.14,0,3.41,3.41,0,0,1-1.17-2.66A3.46,3.46,0,0,1,261,630.24Zm6.47,10.44v27h-6.86v-27Z"/><path d="M288.09,661.77v5.89h-3.6q-4.53,0-6.94-2.19c-1.61-1.46-2.41-3.89-2.41-7.31V646.48h-3.75v-5.8h3.75V634H282v6.66h6v5.8h-6v11.79a3.82,3.82,0,0,0,.78,2.72,3.65,3.65,0,0,0,2.64.78Z"/><path d="M310.49,647.45v5.7H289.8v-5.7Z"/><path d="M346.57,659.43a15,15,0,0,1-6.21,6.07,20.32,20.32,0,0,1-9.66,2.16H318.48V633.29H330.7a20.67,20.67,0,0,1,9.66,2.11,14.72,14.72,0,0,1,6.21,6,20.08,20.08,0,0,1,0,18Zm-7.86-.82q3-2.93,3-8.19c0-3.53-1-6.28-3-8.22s-4.89-2.93-8.6-2.93h-4.77v22.26h4.77C333.82,661.53,336.68,660.55,338.71,658.61Z"/><path d="M354.26,630.24a5.05,5.05,0,0,1,6.14,0,3.46,3.46,0,0,1,1.17,2.7,3.41,3.41,0,0,1-1.17,2.66,5.05,5.05,0,0,1-6.14,0,3.41,3.41,0,0,1-1.17-2.66A3.46,3.46,0,0,1,354.26,630.24Zm6.48,10.44v27h-6.87v-27Z"/><path d="M381.38,661.77v5.89h-3.6q-4.53,0-6.94-2.19c-1.6-1.46-2.41-3.89-2.41-7.31V646.48h-3.75v-5.8h3.75V634h6.87v6.66h6v5.8h-6v11.79a3.78,3.78,0,0,0,.78,2.72,3.61,3.61,0,0,0,2.63.78Z"/><path d="M403.78,647.45v5.7H383.09v-5.7Z"/><path d="M439.86,659.43a14.9,14.9,0,0,1-6.21,6.07,20.32,20.32,0,0,1-9.66,2.16H411.77V633.29H424a20.67,20.67,0,0,1,9.66,2.11,14.66,14.66,0,0,1,6.21,6,20.08,20.08,0,0,1,0,18Zm-7.86-.82q3-2.93,3-8.19c0-3.53-1-6.28-3-8.22s-4.89-2.93-8.59-2.93h-4.78v22.26h4.78C427.11,661.53,430,660.55,432,658.61Z"/><path d="M463.58,642a8.76,8.76,0,0,1,3.45,4.33v-5.6h6.82v27H467V662a8.88,8.88,0,0,1-3.45,4.36,10.28,10.28,0,0,1-5.85,1.64,11.59,11.59,0,0,1-6.13-1.66,11.16,11.16,0,0,1-4.26-4.8,18.43,18.43,0,0,1,0-14.75,11.16,11.16,0,0,1,4.26-4.8,11.59,11.59,0,0,1,6.13-1.66A10.42,10.42,0,0,1,463.58,642Zm-8.87,6.48a9.41,9.41,0,0,0,0,11.47,7.4,7.4,0,0,0,10.3,0,9.05,9.05,0,0,0,0-11.4,6.8,6.8,0,0,0-5.13-2.12A6.72,6.72,0,0,0,454.71,648.43Z"/><path d="M503.6,643.36q2.77,3.07,2.77,8.62v15.68h-6.81v-14.9a7.07,7.07,0,0,0-1.66-5,5.9,5.9,0,0,0-4.53-1.78,6.08,6.08,0,0,0-4.67,1.9,7.75,7.75,0,0,0-1.76,5.45v14.32h-6.86v-36h6.86v14.46a8.62,8.62,0,0,1,3.54-4.26,10.51,10.51,0,0,1,5.67-1.53A9.56,9.56,0,0,1,503.6,643.36Z"/></g><circle class="cls-1" cx="276.79" cy="567.65" r="13.27"/><circle class="cls-1" cx="328.46" cy="567.65" r="13.27"/><rect class="cls-1" x="105.03" y="554.38" width="133.36" height="26.53" transform="translate(343.42 1135.29) rotate(180)"/><rect class="cls-1" x="366.86" y="554.38" width="133.36" height="26.53" transform="translate(867.09 1135.29) rotate(180)"/><g class="cls-2"><path d="M952.66,661.66l-14-21.3-12.47,21.3H911.91l19.63-31.91-20.16-30.5h14.76l13.79,20.86,12.29-20.86h14.24l-19.54,31.38,20.51,31Z"/><path d="M1005.88,625v10.34H968.31V625Z"/><path d="M1052.91,661.66l-14.59-24.31h-5.48v24.31h-12.46V599.25h23.78q10.88,0,16.57,5.3t5.71,14a18,18,0,0,1-3.94,11.85q-3.93,4.77-11.36,6.36l15.56,24.93Zm-20.07-32.88h10.26q10.7,0,10.69-9.46a9.34,9.34,0,0,0-2.6-7q-2.61-2.52-8.09-2.52h-10.26Z"/><path d="M1104.63,615a15.89,15.89,0,0,1,6.27,7.86V612.69h12.38v49H1110.9V651.41a16.14,16.14,0,0,1-6.27,7.91,18.67,18.67,0,0,1-10.61,3,21.06,21.06,0,0,1-11.14-3,20.39,20.39,0,0,1-7.74-8.71,33.66,33.66,0,0,1,0-26.79,20.31,20.31,0,0,1,7.74-8.7,21,21,0,0,1,11.14-3A18.81,18.81,0,0,1,1104.63,615Zm-16.09,11.75q-3.54,3.81-3.54,10.44t3.54,10.38a13.38,13.38,0,0,0,18.69-.09q3.68-3.84,3.67-10.29t-3.67-10.39a13.33,13.33,0,0,0-18.69,0Z"/><path d="M1143,612.69l13.35,33.24,12.38-33.24h13.7l-30,72.31h-13.79l11-24.75-20.6-47.56Z"/></g><g class="cls-2"><path d="M833.42,243.32l51.24,26.54,83.54,42.91,108,59.5a47.82,47.82,0,0,0,21.39,5.06h165.62a4.78,4.78,0,0,0,4.77-4.78V302.18a4.76,4.76,0,0,0-5-4.77c-17.84.85-81.82,4-163.08,8.41L959.73,253.36,947,186a8.81,8.81,0,0,0-17.49,1.47,7.49,7.49,0,0,0,0,.83l2.72,29.61a4.1,4.1,0,0,1-7.18,3.07l-41.2-49.79a5.64,5.64,0,0,0-10.11,3.45,5.6,5.6,0,0,0,.54,2.41l21.64,39a1.3,1.3,0,0,1-2,1.58l-38.84-39a6.67,6.67,0,0,0-11.37,4.73,6.52,6.52,0,0,0,1.26,3.85l36.45,42.39a1.3,1.3,0,0,1-1.63,2l-40.92-24a5.61,5.61,0,0,0-7.78,2.06,5.76,5.76,0,0,0-.75,2.76,5.66,5.66,0,0,0,2.07,4.34l36.07,27.47a1.33,1.33,0,0,1-1.26,2.3l-29.58-13.35a5.5,5.5,0,0,0-4.25,10.13Z"/></g><circle class="cls-1" cx="1113.12" cy="339.51" r="11.61"/><circle class="cls-1" cx="1078.86" cy="334.52" r="11.61"/><rect class="cls-1" x="1134.62" y="327.9" width="116.71" height="23.22"/><rect class="cls-1" x="946.32" y="288.78" width="116.71" height="23.22" transform="translate(217.48 -392.37) rotate(24.7)"/></svg>