<svg id="Layer_1" data-name="Layer 1" xmlns="http://www.w3.org/2000/svg" viewBox="0 0 1366 768"><defs><style>.cls-1{opacity:0.5;}.cls-2{fill:none;stroke:#000;stroke-miterlimit:10;stroke-width:6px;}.cls-3{fill:#ffbc42;}</style></defs><title>all</title><g class="cls-1"><path d="M981.12,400.07V350.22a14.86,14.86,0,0,0,8.77-7A14.66,14.66,0,0,0,1008,325.09a14.66,14.66,0,0,0,0-25.66,14.66,14.66,0,0,0-18.15-18.15,14.67,14.67,0,0,0-25.67,0,14.66,14.66,0,0,0-18.14,18.15,14.66,14.66,0,0,0,0,25.66,14.66,14.66,0,0,0,18.14,18.15,14.85,14.85,0,0,0,8.78,7V400c-4.9-14.12-16.25-19.53-32-19.53,0,19.94,12.1,35.87,32,35.87h8.12c19.94,0,32-15.93,32-35.87A36,36,0,0,0,981.12,400.07Z"/><line class="cls-2" x1="977.06" y1="339.49" x2="977.06" y2="410.13"/></g><g class="cls-1"><path d="M1288.8,266.37h-24.89v-47a18.44,18.44,0,0,0-6.39-14l-18.45-15.95a18.46,18.46,0,0,0-24.14,0l-18.45,15.95a18.44,18.44,0,0,0-6.39,14v47H1144v-47a18.44,18.44,0,0,0-6.39-14l-18.45-15.95a18.47,18.47,0,0,0-24.15,0l-18.45,15.95a18.47,18.47,0,0,0-6.39,14v47h-24.89a3.2,3.2,0,0,0-3.2,3.19v19.61a3.2,3.2,0,0,0,3.2,3.2h24.89V413.42a3.2,3.2,0,0,0,3.2,3.19h67.43a3.19,3.19,0,0,0,3.2-3.19v-121h46.1V413.42a3.19,3.19,0,0,0,3.19,3.19h67.43a3.19,3.19,0,0,0,3.2-3.19v-121h24.89a3.2,3.2,0,0,0,3.2-3.2V269.56A3.19,3.19,0,0,0,1288.8,266.37Z"/></g><g class="cls-1"><path d="M884,219.41a18.44,18.44,0,0,0-6.39-14l-18.45-15.95a18.46,18.46,0,0,0-24.14,0l-18.45,15.95a18.44,18.44,0,0,0-6.39,14v47h-24.9a3.19,3.19,0,0,0-3.19,3.19v19.61a3.19,3.19,0,0,0,3.19,3.2h24.9V413.42a3.19,3.19,0,0,0,3.19,3.19h67.43a3.19,3.19,0,0,0,3.2-3.19v-121h24.89a3.2,3.2,0,0,0,3.2-3.2V269.56a3.19,3.19,0,0,0-3.2-3.19H884Z"/></g><path class="cls-3" d="M503,79,359.3,341.4V482.62H273.92V341.4L129.62,79H227l90.2,176.65L407.4,79Z"/><g class="cls-1"><path d="M130.85,656.51a16.12,16.12,0,0,1-6.66,6.5,21.79,21.79,0,0,1-10.38,2.33H100.7V628.45h13.11a22.27,22.27,0,0,1,10.38,2.27,15.72,15.72,0,0,1,6.66,6.43,21.52,21.52,0,0,1,0,19.36Zm-8.44-.89q3.27-3.14,3.27-8.78T122.41,638q-3.27-3.13-9.22-3.14h-5.12v23.88h5.12Q119.15,658.75,122.41,655.62Z"/><path d="M156.3,637.75A9.51,9.51,0,0,1,160,642.4v-6h7.31v29H160v-6.07A9.58,9.58,0,0,1,156.3,664,11,11,0,0,1,150,665.7a12.37,12.37,0,0,1-6.58-1.78,11.9,11.9,0,0,1-4.57-5.14,19.81,19.81,0,0,1,0-15.83,11.92,11.92,0,0,1,4.57-5.15A12.46,12.46,0,0,1,150,636,11.17,11.17,0,0,1,156.3,637.75Zm-9.52,7a10.09,10.09,0,0,0,0,12.3,7.93,7.93,0,0,0,11.06,0,9.7,9.7,0,0,0,0-12.23,7.33,7.33,0,0,0-5.52-2.27A7.21,7.21,0,0,0,146.78,644.7Z"/><path d="M199.25,639.26q3,3.3,3,9.25v16.83h-7.31v-16a7.59,7.59,0,0,0-1.78-5.36,6.31,6.31,0,0,0-4.86-1.91,6.48,6.48,0,0,0-5,2,8.3,8.3,0,0,0-1.89,5.85v15.37H174V626.67h7.36v15.52a9.21,9.21,0,0,1,3.79-4.57,11.25,11.25,0,0,1,6.09-1.65A10.27,10.27,0,0,1,199.25,639.26Z"/><path d="M227.46,643.65v6.11h-22.2v-6.11Z"/><path d="M266.18,656.51a16,16,0,0,1-6.66,6.5,21.78,21.78,0,0,1-10.37,2.33H236V628.45h13.12a22.25,22.25,0,0,1,10.37,2.27,15.61,15.61,0,0,1,6.66,6.43,21.52,21.52,0,0,1,0,19.36Zm-8.44-.89q3.27-3.14,3.27-8.78T257.74,638q-3.27-3.13-9.22-3.14H243.4v23.88h5.12Q254.48,658.75,257.74,655.62Z"/><path d="M274.44,625.18a5.39,5.39,0,0,1,6.58,0,3.71,3.71,0,0,1,1.25,2.9,3.65,3.65,0,0,1-1.25,2.85,5.39,5.39,0,0,1-6.58,0,3.65,3.65,0,0,1-1.26-2.85A3.71,3.71,0,0,1,274.44,625.18Zm6.95,11.21v29H274v-29Z"/><path d="M303.54,659v6.33h-3.87q-4.86,0-7.44-2.36c-1.72-1.56-2.59-4.18-2.59-7.83V642.61h-4v-6.22h4v-7.16H297v7.16h6.48v6.22H297v12.64a4.07,4.07,0,0,0,.84,2.93,3.86,3.86,0,0,0,2.82.83Z"/><path d="M327.58,643.65v6.11H305.37v-6.11Z"/><path d="M366.3,656.51a16,16,0,0,1-6.66,6.5,21.79,21.79,0,0,1-10.38,2.33H336.15V628.45h13.11a22.27,22.27,0,0,1,10.38,2.27,15.61,15.61,0,0,1,6.66,6.43,21.52,21.52,0,0,1,0,19.36Zm-8.44-.89q3.27-3.14,3.27-8.78T357.86,638q-3.27-3.13-9.22-3.14h-5.12v23.88h5.12Q354.6,658.75,357.86,655.62Z"/><path d="M391.74,637.75a9.34,9.34,0,0,1,3.71,4.65v-6h7.32v29h-7.32v-6.07a9.41,9.41,0,0,1-3.71,4.68,11,11,0,0,1-6.27,1.75,12.39,12.39,0,0,1-6.58-1.78,12,12,0,0,1-4.57-5.14,19.81,19.81,0,0,1,0-15.83,12,12,0,0,1,4.57-5.15,12.48,12.48,0,0,1,6.58-1.78A11.12,11.12,0,0,1,391.74,637.75Zm-9.5,7a10.09,10.09,0,0,0,0,12.3,7.92,7.92,0,0,0,11.05,0,9.74,9.74,0,0,0,0-12.23,7.33,7.33,0,0,0-5.52-2.27A7.18,7.18,0,0,0,382.24,644.7Z"/><path d="M434.7,639.26q3,3.3,3,9.25v16.83h-7.31v-16a7.54,7.54,0,0,0-1.78-5.36,6.3,6.3,0,0,0-4.85-1.91,6.5,6.5,0,0,0-5,2,8.34,8.34,0,0,0-1.88,5.85v15.37h-7.37V626.67h7.37v15.52a9.16,9.16,0,0,1,3.79-4.57A11.19,11.19,0,0,1,426.7,636,10.27,10.27,0,0,1,434.7,639.26Z"/><path d="M462.91,643.65v6.11h-22.2v-6.11Z"/><path d="M501.63,656.51A16,16,0,0,1,495,663a21.78,21.78,0,0,1-10.37,2.33H471.48V628.45H484.6A22.25,22.25,0,0,1,495,630.72a15.61,15.61,0,0,1,6.66,6.43,21.52,21.52,0,0,1,0,19.36Zm-8.44-.89q3.27-3.14,3.27-8.78T493.19,638q-3.26-3.13-9.22-3.14h-5.12v23.88H484Q489.92,658.75,493.19,655.62Z"/><path d="M527.08,637.75a9.4,9.4,0,0,1,3.71,4.65v-6h7.31v29h-7.31v-6.07a9.47,9.47,0,0,1-3.71,4.68,11,11,0,0,1-6.27,1.75,12.43,12.43,0,0,1-6.59-1.78,11.94,11.94,0,0,1-4.56-5.14,19.81,19.81,0,0,1,0-15.83,12,12,0,0,1,4.56-5.15,12.52,12.52,0,0,1,6.59-1.78A11.12,11.12,0,0,1,527.08,637.75Zm-9.51,7a10.09,10.09,0,0,0,0,12.3,7.92,7.92,0,0,0,11,0,9.7,9.7,0,0,0,0-12.23,7.29,7.29,0,0,0-5.51-2.27A7.2,7.2,0,0,0,517.57,644.7Z"/><path d="M570,639.26q3,3.3,3,9.25v16.83h-7.32v-16a7.58,7.58,0,0,0-1.77-5.36,6.34,6.34,0,0,0-4.86-1.91,6.51,6.51,0,0,0-5,2,8.34,8.34,0,0,0-1.88,5.85v15.37h-7.37V626.67h7.37v15.52a9.21,9.21,0,0,1,3.79-4.57A11.25,11.25,0,0,1,562,636,10.25,10.25,0,0,1,570,639.26Z"/></g><circle class="cls-3" cx="251.7" cy="557.44" r="14.24"/><rect class="cls-3" x="292.91" y="543.2" width="143.12" height="28.47"/><rect class="cls-3" x="67.37" y="543.2" width="143.12" height="28.47"/><rect class="cls-3" x="463" y="543.2" width="143.12" height="28.47"/><rect class="cls-3" x="1024.57" y="296.01" width="165.01" height="32.83" transform="translate(1419.5 -794.65) rotate(90)"/><rect class="cls-3" x="764.53" y="296.01" width="165.01" height="32.83" transform="translate(534.61 1159.47) rotate(-90)"/><rect class="cls-3" x="1144.49" y="296.01" width="165.01" height="32.83" transform="translate(1539.43 -914.57) rotate(90)"/><g class="cls-1"><path d="M1016.11,596.36,993.44,639.9v23.44H980V639.9L957.2,596.36h15.37l14.23,29.31L1001,596.36Z"/><path d="M1055.29,613.25a17,17,0,0,1,6.74,8.44V610.78h13.28v52.56H1062v-11a17.25,17.25,0,0,1-6.74,8.49,19.94,19.94,0,0,1-11.38,3.18,22.55,22.55,0,0,1-12-3.22,21.73,21.73,0,0,1-8.3-9.35,36,36,0,0,1,0-28.74,21.73,21.73,0,0,1,8.3-9.35,22.55,22.55,0,0,1,12-3.22A20.15,20.15,0,0,1,1055.29,613.25ZM1038,625.86q-3.79,4.08-3.8,11.2t3.8,11.15a14.37,14.37,0,0,0,20.06-.1Q1062,644,1062,637.06t-3.94-11.15a14.31,14.31,0,0,0-20.06,0Z"/><path d="M1108.61,612.92a20.57,20.57,0,0,1,10.81-2.9v14.33h-3.89q-14.7,0-14.7,13.66v25.33h-13.37V610.78h13.37v10.05A21.94,21.94,0,0,1,1108.61,612.92Z"/><path d="M1158.75,613.25a17.68,17.68,0,0,1,6.78,8.44V593.13h13.28v70.21h-13.28v-11a17.9,17.9,0,0,1-6.78,8.49,19.74,19.74,0,0,1-11.34,3.18,22.55,22.55,0,0,1-12-3.22,21.73,21.73,0,0,1-8.3-9.35,36,36,0,0,1,0-28.74,21.73,21.73,0,0,1,8.3-9.35,22.55,22.55,0,0,1,12-3.22A20,20,0,0,1,1158.75,613.25Zm-17.22,12.61q-3.79,4.08-3.79,11.2t3.79,11.15a14.37,14.37,0,0,0,20.06-.1q3.95-4.12,3.94-11.05t-3.94-11.15a14.31,14.31,0,0,0-20.06,0Z"/></g><circle class="cls-3" cx="977.06" cy="312.43" r="16.41"/></svg>