<svg id="Layer_1" data-name="Layer 1" xmlns="http://www.w3.org/2000/svg" viewBox="0 0 1366 768"><defs><style>.cls-1{opacity:0.5;}.cls-2{fill:#ffbc42;}</style></defs><title>all</title><path class="cls-1" d="M1247.34,157c-28.09,4.11-32.52,25.37-33,25.1a25.87,25.87,0,0,0-5-2c2.72-10.82,5.75-23.3,5.32-23.41-.75-.19-29.73-.34-29.73-.34l5,22.42c-1.85,0-3.94-.05-6.23,0-2.55-6-9.92-19.21-31.18-22.83,0,0-5,13.3,1.2,24.64-34.67,4-81.41,16.23-112.58,51.32-22.17.29-68.37.87-91.1.87-1,0-1.92,0-2.88.08-45.62,1.75-72.67,44.79-72.67,83.65,0,35.11-22.28,62.37-22.28,62.37h31.93s7.58-10,7.58-44.31c0-19.26,2.6-34.3,6.71-46.21a51.6,51.6,0,0,0,12.76,30.38l-9.55,54.36a16.9,16.9,0,0,0,.31,7.45c3.67,13.61,15,60.72,20.6,74.95h0l-1.73,8.9a3.49,3.49,0,0,0,3.43,4.17h35.66c2.65.11,4.4-2.25,3.09-4.17l-13.71-20.13-16.33-62.59,24.14-42.94h4.18l-7.54,42.51a14.92,14.92,0,0,0,.8,8.07c3.8,9.7,13.86,35,20.91,48.78l-2.31,8.9a3.51,3.51,0,0,0,3.44,4.17h33.13l.27,0,.79,0,0-.09c2-.43,3.21-2.42,2.08-4.08l-15-22-16.24-32.8,16.66-53.48H1067c-3.86,23.8-12.55,77.86-15.42,99.36h0l-1.74,8.9a3.5,3.5,0,0,0,3.43,4.17h32.31c2.64.12,4.39-2.25,3.09-4.17l-10-14.61,19.9-93.65h2.56s7.47,82.57,11.83,113.1h0l-2.43,9.93a3.5,3.5,0,0,0,3.44,4.17h34.39c2.64.11,4.39-2.25,3.09-4.18l-12.41-18.2-7.72-109.45c5.84-4.87,18.41-19.24,18.41-38.34,0-31.32,20.57-41.79,27.67-44.48a92.54,92.54,0,0,1,2.2,17.09c.14,4.86.19,8.36.19,8.36h0a19,19,0,1,0,38.09.44h0q-.09-4.61-.13-8.55a95.2,95.2,0,0,1,7.86-37.82c7.22-17.22,1.7-36.46,1.7-36.46C1257.54,186,1247.34,157,1247.34,157Z"/><path class="cls-2" d="M217.71,414.4H430V482H117.05V418L324.82,130.4H120.28v-67H427.42v64Z"/><g class="cls-1"><path d="M111.93,656.82a14.49,14.49,0,0,1-6,5.89,19.67,19.67,0,0,1-9.37,2.09H84.68V631.46H96.54a20.15,20.15,0,0,1,9.37,2,14.21,14.21,0,0,1,6,5.82,19.42,19.42,0,0,1,0,17.49Zm-7.63-.8c2-1.89,3-4.53,3-7.94s-1-6.09-3-8-4.74-2.83-8.33-2.83H91.34v21.58H96Q101.36,658.85,104.3,656Z"/><path d="M134.93,639.87a8.53,8.53,0,0,1,3.36,4.2v-5.43h6.61V664.8h-6.61v-5.48a8.6,8.6,0,0,1-3.36,4.23,9.89,9.89,0,0,1-5.67,1.59,11.21,11.21,0,0,1-5.94-1.61,10.78,10.78,0,0,1-4.14-4.66,17.9,17.9,0,0,1,0-14.3,10.81,10.81,0,0,1,4.14-4.65,11.12,11.12,0,0,1,5.94-1.61A10,10,0,0,1,134.93,639.87Zm-8.59,6.28a7.86,7.86,0,0,0-1.89,5.57,7.78,7.78,0,0,0,1.89,5.55,6.53,6.53,0,0,0,5,2,6.63,6.63,0,0,0,5-2,8.78,8.78,0,0,0,0-11.06,6.6,6.6,0,0,0-5-2A6.48,6.48,0,0,0,126.34,646.15Z"/><path d="M173.76,641.24q2.69,3,2.68,8.36v15.2h-6.61V650.35a6.85,6.85,0,0,0-1.6-4.84,5.71,5.71,0,0,0-4.39-1.72,5.87,5.87,0,0,0-4.54,1.84,7.54,7.54,0,0,0-1.7,5.29V664.8h-6.66V629.85h6.66v14a8.39,8.39,0,0,1,3.43-4.13,10.18,10.18,0,0,1,5.5-1.49A9.27,9.27,0,0,1,173.76,641.24Z"/><path d="M199.26,645.2v5.53H179.19V645.2Z"/><path d="M234.26,656.82a14.57,14.57,0,0,1-6,5.89,19.67,19.67,0,0,1-9.37,2.09H207V631.46h11.85a20.15,20.15,0,0,1,9.37,2,14.3,14.3,0,0,1,6,5.82,19.51,19.51,0,0,1,0,17.49Zm-7.63-.8c2-1.89,3-4.53,3-7.94s-1-6.09-3-8-4.75-2.83-8.34-2.83h-4.63v21.58h4.63Q223.68,658.85,226.63,656Z"/><path d="M257.25,639.87a8.47,8.47,0,0,1,3.36,4.2v-5.43h6.61V664.8h-6.61v-5.48a8.55,8.55,0,0,1-3.36,4.23,9.88,9.88,0,0,1-5.66,1.59,11.22,11.22,0,0,1-6-1.61,10.76,10.76,0,0,1-4.13-4.66,17.9,17.9,0,0,1,0-14.3,10.79,10.79,0,0,1,4.13-4.65,11.13,11.13,0,0,1,6-1.61A10,10,0,0,1,257.25,639.87Zm-8.59,6.28a7.86,7.86,0,0,0-1.89,5.57,7.78,7.78,0,0,0,1.89,5.55,6.55,6.55,0,0,0,5,2,6.63,6.63,0,0,0,5-2,8.78,8.78,0,0,0,0-11.06,6.6,6.6,0,0,0-5-2A6.49,6.49,0,0,0,248.66,646.15Z"/><path d="M296.08,641.24q2.69,3,2.69,8.36v15.2h-6.61V650.35a6.85,6.85,0,0,0-1.61-4.84,5.7,5.7,0,0,0-4.39-1.72,5.85,5.85,0,0,0-4.53,1.84,7.5,7.5,0,0,0-1.71,5.29V664.8h-6.65V629.85h6.65v14a8.39,8.39,0,0,1,3.43-4.13,10.18,10.18,0,0,1,5.5-1.49A9.27,9.27,0,0,1,296.08,641.24Z"/><path d="M321.58,645.2v5.53H301.51V645.2Z"/><path d="M356.58,656.82a14.61,14.61,0,0,1-6,5.89,19.71,19.71,0,0,1-9.38,2.09H329.33V631.46h11.85a20.19,20.19,0,0,1,9.38,2,14.33,14.33,0,0,1,6,5.82,19.42,19.42,0,0,1,0,17.49ZM349,656c2-1.89,2.95-4.53,2.95-7.94s-1-6.09-2.95-8-4.75-2.83-8.33-2.83H336v21.58h4.63Q346,658.85,349,656Z"/><path d="M364,628.51a4.89,4.89,0,0,1,5.95,0,3.56,3.56,0,0,1,0,5.2,4.89,4.89,0,0,1-5.95,0,3.56,3.56,0,0,1,0-5.2Zm6.28,10.13V664.8h-6.66V638.64Z"/><path d="M390.35,659.09v5.71h-3.5c-2.92,0-5.17-.71-6.73-2.12s-2.34-3.78-2.34-7.09V644.26h-3.63v-5.62h3.63v-6.47h6.66v6.47h5.86v5.62h-5.86v11.43a3.68,3.68,0,0,0,.76,2.64,3.49,3.49,0,0,0,2.55.76Z"/><path d="M412.07,645.2v5.53H392V645.2Z"/><path d="M447.07,656.82a14.61,14.61,0,0,1-6,5.89,19.71,19.71,0,0,1-9.38,2.09H419.82V631.46h11.85a20.19,20.19,0,0,1,9.38,2,14.33,14.33,0,0,1,6,5.82,19.42,19.42,0,0,1,0,17.49Zm-7.63-.8c2-1.89,2.95-4.53,2.95-7.94s-1-6.09-2.95-8-4.75-2.83-8.33-2.83h-4.63v21.58h4.63Q436.48,658.85,439.44,656Z"/><path d="M454.53,628.51a4.89,4.89,0,0,1,6,0,3.56,3.56,0,0,1,0,5.2,4.89,4.89,0,0,1-6,0,3.56,3.56,0,0,1,0-5.2Zm6.28,10.13V664.8h-6.66V638.64Z"/><path d="M480.84,659.09v5.71h-3.5c-2.92,0-5.17-.71-6.73-2.12s-2.34-3.78-2.34-7.09V644.26h-3.63v-5.62h3.63v-6.47h6.66v6.47h5.86v5.62h-5.86v11.43a3.68,3.68,0,0,0,.76,2.64,3.49,3.49,0,0,0,2.55.76Z"/></g><circle class="cls-2" cx="410.8" cy="567.79" r="12.87"/><circle class="cls-2" cx="460.92" cy="567.79" r="12.87"/><rect class="cls-2" x="244.2" y="554.93" width="129.36" height="25.74" transform="translate(617.75 1135.59) rotate(180)"/><rect class="cls-2" x="90.46" y="554.93" width="129.36" height="25.74" transform="translate(310.27 1135.59) rotate(180)"/><g class="cls-1"><path d="M944,655h28.21v9.78H930.64v-9.27L958.25,614H931.07v-9.69h40.82v9.26Z"/><path d="M1025.74,643.37H990.93q.26,6.35,3.43,9.34a11,11,0,0,0,7.88,3,11.47,11.47,0,0,0,7-2.06,9.09,9.09,0,0,0,3.56-5.57h12.78a20.55,20.55,0,0,1-4,8.91,21.2,21.2,0,0,1-7.93,6.18,25.59,25.59,0,0,1-10.77,2.23,25.28,25.28,0,0,1-12.34-3,20.74,20.74,0,0,1-8.41-8.45,26.59,26.59,0,0,1-3-13,26.86,26.86,0,0,1,3-13,20.36,20.36,0,0,1,8.41-8.44,25.6,25.6,0,0,1,12.34-2.92,25.09,25.09,0,0,1,12.31,2.92,20.59,20.59,0,0,1,8.15,8,23.47,23.47,0,0,1,2.44,15.74ZM1011,629.22a11.61,11.61,0,0,0-8.11-3,11.87,11.87,0,0,0-8.23,3q-3.35,3-3.68,8.83H1014Q1014.24,632.23,1011,629.22Z"/><path d="M1073.93,619.62a19.64,19.64,0,0,1,7.5,8.44,32.6,32.6,0,0,1,0,26,19.67,19.67,0,0,1-7.5,8.45,20.49,20.49,0,0,1-10.81,2.92,17.77,17.77,0,0,1-10.24-2.88,15.69,15.69,0,0,1-6.05-7.67v9.95h-12.09V601.35h12.09v25.81a15.51,15.51,0,0,1,6.05-7.63,18.06,18.06,0,0,1,10.24-2.83A20.49,20.49,0,0,1,1073.93,619.62ZM1050.31,631q-3.57,3.74-3.56,10.07t3.56,10a13,13,0,0,0,18.13.09q3.42-3.64,3.43-10.08c0-4.28-1.15-7.66-3.43-10.11a12.93,12.93,0,0,0-18.13,0Z"/><path d="M1111.83,619.23a18.68,18.68,0,0,1,9.77-2.61v12.94h-3.51q-13.29,0-13.29,12.35v22.9h-12.09V617.3h12.09v9.09A19.79,19.79,0,0,1,1111.83,619.23Z"/><path d="M1157.19,619.53a15.45,15.45,0,0,1,6.08,7.63V617.3h12v47.51h-12v-9.95a15.64,15.64,0,0,1-6.08,7.67,18,18,0,0,1-10.29,2.88,20.46,20.46,0,0,1-10.81-2.92,19.67,19.67,0,0,1-7.5-8.45,32.6,32.6,0,0,1,0-26,19.64,19.64,0,0,1,7.5-8.44,20.46,20.46,0,0,1,10.81-2.92A18.32,18.32,0,0,1,1157.19,619.53Zm-15.61,11.41c-2.29,2.45-3.43,5.83-3.43,10.11s1.14,7.65,3.43,10.08a13,13,0,0,0,18.14-.09q3.55-3.72,3.55-10T1159.72,631a12,12,0,0,0-9-3.73A11.83,11.83,0,0,0,1141.58,630.94Z"/></g><circle class="cls-2" cx="1185.14" cy="219.25" r="7.21"/><circle class="cls-2" cx="1213.23" cy="219.57" r="7.21"/><rect class="cls-2" x="932.32" y="274.65" width="99.98" height="19.89" transform="translate(170.11 906.1) rotate(-53.58)"/><rect class="cls-2" x="1025.45" y="240.52" width="99.98" height="19.89" transform="translate(283.06 1019.52) rotate(-57.25)"/></svg>